<svg xmlns="http://www.w3.org/2000/svg" xmlns:xlink="http://www.w3.org/1999/xlink" width="375" height="692" viewBox="0 0 375 692"><defs><clipPath id="a"><rect width="375" height="170" fill="#fff" stroke="#707070" stroke-width="1"/></clipPath></defs><g clip-path="url(#a)"><path d="M1367.114,507.486h-271.37c-20.49-15.64-34.727-37.951-38.573-63.439-1.6-10.6-.69-23.15,7.948-29.5,13.283-9.761,33.217,2.546,48.224-4.275,9.667-4.393,14.431-15.808,14.531-26.427s-3.488-20.867-6.174-31.14-4.457-21.367-.828-31.347,14.315-18.076,24.6-15.426c8.813,2.269,14.4,11.2,22.849,14.59,8.79,3.531,18.993.319,26.795-5.054s14.01-12.722,21.3-18.768c12.8-10.612,29.71-17.115,46.153-14.637s31.655,15.219,34.222,31.647c2.1,13.44-3.553,28.968,4.684,39.793,9.287,12.205,28.713,8.78,42.139,16.193,10.93,6.034,16.761,20.02,13.357,32.032-3.478,12.265-15.293,22.558-13.368,35.163,1.379,9.035,9.388,15.276,15.031,22.466C1369.48,473.178,1374.385,491.5,1367.114,507.486Z" transform="matrix(0.342, 0.94, -0.94, 0.342, -30.576, -1284.287)" fill="#eff0fb"/></g><g transform="translate(0 522)" clip-path="url(#a)"><path d="M310.59,225.947H39.22C18.73,210.307,4.493,188,.648,162.508c-1.6-10.6-.69-23.15,7.948-29.5,13.283-9.761,33.217,2.546,48.224-4.275,9.667-4.393,14.431-15.808,14.531-26.427s-3.488-20.867-6.174-31.14S60.721,49.8,64.349,39.821,78.664,21.745,88.946,24.4c8.813,2.269,14.4,11.2,22.849,14.59,8.79,3.531,18.993.319,26.795-5.054s14.01-12.722,21.3-18.768C172.694,4.551,189.6-1.951,206.046.526S237.7,15.745,240.268,32.174c2.1,13.44-3.553,28.968,4.684,39.793,9.287,12.205,28.713,8.78,42.139,16.193,10.93,6.034,16.761,20.02,13.357,32.032-3.478,12.265-15.293,22.558-13.368,35.163,1.379,9.035,9.388,15.276,15.031,22.466C312.957,191.638,317.861,209.957,310.59,225.947Z" transform="translate(308.784 365.188) rotate(-110)" fill="#eff0fb"/></g></svg>