<svg xmlns="http://www.w3.org/2000/svg" width="86" height="86" viewBox="0 0 86 86"><g transform="translate(-143 -126)"><circle cx="43" cy="43" r="43" transform="translate(143 126)" fill="#eff0fb"/><g transform="translate(167.894 147.861)" opacity="0"><g transform="translate(5.488)"><path d="M144.718,312.639v-3.827a6.742,6.742,0,0,1,6.736-6.736h6.039a6.742,6.742,0,0,1,6.736,6.736v3.827h4.363v-3.827a11.11,11.11,0,0,0-11.1-11.1h-6.039a11.11,11.11,0,0,0-11.1,11.1v3.827Z" transform="translate(-140.355 -297.713)" fill="#372381"/></g><path d="M137.6,308.841v20.1a2.223,2.223,0,0,0,2.222,2.224h34.768a2.223,2.223,0,0,0,2.222-2.224v-20.1a2.222,2.222,0,0,0-2.222-2.222H139.821A2.222,2.222,0,0,0,137.6,308.841Zm20.866,11.384v3.951h-2.519v-3.951a2.447,2.447,0,0,1-1.221-2.089,2.481,2.481,0,0,1,4.962,0A2.449,2.449,0,0,1,158.465,320.225Z" transform="translate(-137.599 -288.886)" fill="#372381"/></g><g transform="translate(22.531 18.573)" opacity="0.8"><path d="M567.781,471.141h-32.4a5.508,5.508,0,0,0-5.5,5.5v72.334a5.508,5.508,0,0,0,5.172,5.49h18.257v.011h14.469a5.508,5.508,0,0,0,5.5-5.5V476.642A5.508,5.508,0,0,0,567.781,471.141Z" transform="translate(-388.614 -362.382)" fill="#162e5c"/><path d="M570.007,474.59h-5.269l-.959,1.7a2.841,2.841,0,0,1-2.473,1.443H546.311a2.841,2.841,0,0,1-2.473-1.443l-.959-1.7H537.61a4.279,4.279,0,0,0-4.279,4.279V551.2a4.279,4.279,0,0,0,4.279,4.279h32.4a4.279,4.279,0,0,0,4.279-4.279V478.869A4.279,4.279,0,0,0,570.007,474.59Z" transform="translate(-390.862 -364.163)" fill="#5e44be"/><path d="M586.381,477.416H576.3a.408.408,0,0,1-.407-.408h0a.408.408,0,0,1,.407-.408h10.086a.407.407,0,0,1,.407.408h0A.407.407,0,0,1,586.381,477.416Z" transform="translate(-418.31 -365.907)" fill="#e7e8fa"/><g transform="translate(0 8)"><g transform="translate(153.997 126.148)"><circle cx="10" cy="10" r="10" transform="translate(-0.528 -0.721)" fill="#eff0fb"/><g transform="translate(5.373 4.757)"><g transform="translate(1.187)"><path d="M141.3,300.942v-.828a1.459,1.459,0,0,1,1.457-1.457h1.306a1.459,1.459,0,0,1,1.457,1.457v.828h.944v-.828a2.4,2.4,0,0,0-2.4-2.4h-1.306a2.4,2.4,0,0,0-2.4,2.4v.828Z" transform="translate(-140.355 -297.713)" fill="#372381"/></g><path d="M137.6,307.1v4.348a.481.481,0,0,0,.481.481H145.6a.481.481,0,0,0,.481-.481V307.1a.481.481,0,0,0-.481-.481H138.08A.481.481,0,0,0,137.6,307.1Zm4.514,2.463v.855h-.545v-.855a.529.529,0,0,1-.264-.452.537.537,0,0,1,1.073,0A.53.53,0,0,1,142.113,309.562Z" transform="translate(-137.599 -302.783)" fill="#372381"/></g></g><text transform="translate(163.469 157.427)" fill="#fff" font-size="10" font-family="Roboto-Medium, Roboto" font-weight="500" letter-spacing="0.057em"><tspan x="-14.682" y="0">******</tspan></text></g></g></g></svg>