<svg xmlns="http://www.w3.org/2000/svg" xmlns:xlink="http://www.w3.org/1999/xlink" width="132" height="132" viewBox="0 0 132 132"><defs><clipPath id="a"><circle cx="56" cy="56" r="56" transform="translate(668.474 -625)" fill="#fff" stroke="#e1e1e1" stroke-width="1"/></clipPath></defs><g transform="translate(-405 698)"><rect width="132" height="132" transform="translate(405 -698)" fill="#fff" opacity="0"/><g transform="translate(-259.474 -63)"><g transform="translate(536.474 -862)"><g transform="translate(130 235)" fill="#fff" stroke="#e9ebff" stroke-width="2"><circle cx="58" cy="58" r="58" stroke="none"/><circle cx="58" cy="58" r="57" fill="none"/></g><g transform="translate(226.326 259.452)"><circle cx="15.971" cy="15.971" r="15.971" fill="#ffa600"/><path d="M567.266,542.963l5.082,5.082,9.619-9.619" transform="translate(-557.587 -526.75)" fill="none" stroke="#fff" stroke-linecap="round" stroke-linejoin="round" stroke-width="2"/></g></g><g clip-path="url(#a)"><g transform="translate(670.474 -610.499)"><path d="M326.767,625.867s-.587,9.612.54,11.321,6.281,5.982,10.629,6.666c0,0-22.111,26.665-49.707,0,0,0,9.928-3.247,10.733-8.2l-.163-9.783Z" transform="translate(-257.879 -562.568)" fill="#eecaa6"/><path d="M235.4,682.53l3.419-10.426s1.368-4.786,8.547-7.179,22.793-7.817,22.793-7.817,18.786,17.911,40.5,0l23.2,8.671a11.028,11.028,0,0,1,7.35,6.325l3.247,10.939s-26.684,9.045-53.947,8.916S235.4,682.53,235.4,682.53Z" transform="translate(-235.404 -578.494)" fill="#6b56bb"/><path d="M309.071,627.137s13.9,21.155,29.683,0C338.754,627.137,323.939,644.36,309.071,627.137Z" transform="translate(-269.418 -563.651)" fill="#d3a67f"/><path d="M297.333,570.973s-2.906,1.026-3.076-2.051a25.212,25.212,0,0,0-1.881-7.008s-2.268-6.081,2.113-5.519c3.2.41,2.7-3.569,2.193-5.754a8.421,8.421,0,0,1-.145-3.037c.3-2.2.8-5.874.8-6.427,0-.8,1.538-5.927,4.786-6.782a20.989,20.989,0,0,1,8.546-.684c3.077.342,9.914,1.2,11.281,1.2s8.375,1.709,8.375,2.051,4.957-.171,5.128,6.325.854,12.648.854,12.648l.646,1.007s2.944-2.032,2.6,3.267c0,0-1.026,3.76-1.368,5.812s-.271,5.456-3.468,5.121c0,0,.563,14.878-15.847,20.86,0,0-3.918.684-6.4,0S299.385,588.579,297.333,570.973Z" transform="translate(-261.439 -520.437)" fill="#eecaa6"/><path d="M297.654,551.853s.679.628.725-.433c0,0-1.067-13.873.13-17.686.041-.13.082-.257.163-.5a7.764,7.764,0,0,1,2.593-5.376s1.347-3.682,7.842-1.631a65.648,65.648,0,0,1,9.493,3.612s7.364,2.883,11.466,4.593c0,0-7.326-6.078-5.275-6.078s9.272-1.784,10.126,6.078.512,7.862.512,7.862-.568,10.328.67,9.539a36.783,36.783,0,0,1,2.407-7.488c1.71-3.76,1.538-11.623,1.538-11.623s2.393-13.674-5.641-16.751a1,1,0,0,1,1.025-1.2,6.911,6.911,0,0,0-5.364,0,4.507,4.507,0,0,0-4.549-3.76L325,509.989a3.836,3.836,0,0,1-2.051.855s.676-1.115-3.935-.387c0,0-5.466-3.373-9.226.9,0,0-6.5-.342-4.786,1.71,0,0-6.154,1.685-7.35,6.142,0,0-1.367-.331-1.88,2.917s-3.077,9.4-1.025,20Z" transform="translate(-262.443 -509.192)"/><g transform="translate(38.545 33.89)" opacity="0"><path d="M319.829,576.891c.62.31-6.928-6.235-11.777-2.079C308.052,574.812,311.516,572.734,319.829,576.891Z" transform="translate(-308.052 -573.426)"/><path d="M343.087,576.891c-.619.31,6.928-6.235,11.778-2.079C354.865,574.812,351.4,572.734,343.087,576.891Z" transform="translate(-323.314 -573.426)"/><g transform="translate(7.183 7.272)"><path d="M341.5,619.5a8.362,8.362,0,0,1-11.443,0Z" transform="translate(-327.111 -601.172)" fill="none" stroke="#d3a67f" stroke-linecap="round" stroke-linejoin="round" stroke-miterlimit="10" stroke-width="1"/></g></g><g transform="translate(-1014.217 -496.644)" opacity="0.47"><path d="M1070.626,571l12.462-6.6,8.064-19.427,1.1-15.395-6.964-14.662-14.662-5.254-14.662,5.621L1049,529.215l1.1,15.761,8.064,19.427Z" transform="translate(-2.4 -1.832)" fill="none" stroke="#fff" stroke-miterlimit="10" stroke-width="0.5"/><line y1="25.178" x2="20.526" transform="translate(1068.226 543.144)" fill="none" stroke="#fff" stroke-miterlimit="10" stroke-width="0.5"/><line x1="20.526" y1="25.178" transform="translate(1047.7 543.144)" fill="none" stroke="#fff" stroke-miterlimit="10" stroke-width="0.5"/><path d="M1074,642.993l.223-9.262,12.24,6.752,12.24-6.752.223,9.262" transform="translate(-18.236 -80.422)" fill="none" stroke="#fff" stroke-miterlimit="10" stroke-width="0.5"/><path d="M1074.608,618.7l11.873-1.235,12.614,1.569L1091.979,610l-5.5,7.053L1081.5,610l-6.378,8.064" transform="translate(-18.621 -65.39)" fill="none" stroke="#fff" stroke-miterlimit="10" stroke-width="0.5"/><path d="M1094.786,538.662l-5.865,3.3-1.1-17.961-12.463,16.861,11,9.53,7.331,3.3-15.395,1.833-5.5,2.274-4.985-2.274L1053,553.69l6.231-3.665,11.729-9.53L1058.5,524.367l-1.283,17.777,2.566,8.43" transform="translate(-4.934 -10.912)" fill="none" stroke="#fff" stroke-miterlimit="10" stroke-width="0.5"/><path d="M1125.751,579.6l2.566-8.43-13.125-1.062" transform="translate(-44.329 -40.116)" fill="none" stroke="#fff" stroke-miterlimit="10" stroke-width="0.5"/><path d="M1065.314,580.793l3.152-15.028-13.745,1.649-5.659-3.521" transform="translate(-2.439 -36.183)" fill="none" stroke="#fff" stroke-miterlimit="10" stroke-width="0.5"/><path d="M1122,610" transform="translate(-48.642 -65.39)" fill="none" stroke="#fff" stroke-miterlimit="10" stroke-width="0.5"/><line y1="3.414" x2="2.203" transform="translate(1066.027 525.652)" fill="none" stroke="#fff" stroke-miterlimit="10" stroke-width="0.5"/><line x1="2.932" y1="13.913" transform="translate(1070.426 530.522)" fill="none" stroke="#fff" stroke-miterlimit="10" stroke-width="0.5"/><path d="M1102.5,562.525l2.02-3.457,2.2,4.007-2.566,16.458" transform="translate(-36.29 -33.126)" fill="none" stroke="#fff" stroke-miterlimit="10" stroke-width="0.5"/><path d="M1102,571.563l2.016,16.1-.183,5.447" transform="translate(-35.973 -41.042)" fill="none" stroke="#fff" stroke-miterlimit="10" stroke-width="0.5"/><line y1="9.347" transform="translate(1068.226 559.822)" fill="none" stroke="#fff" stroke-miterlimit="10" stroke-width="0.5"/><g transform="translate(1044.891 506.82)"><circle cx="1.333" cy="1.333" r="1.333" transform="translate(21.993 17.328)" fill="#fff" stroke="#fff" stroke-width="0.5"/><circle cx="1.333" cy="1.333" r="1.333" transform="translate(24.659 21.993)" fill="#fff" stroke="#fff" stroke-width="0.5"/><circle cx="1.333" cy="1.333" r="1.333" transform="translate(27.324 36.655)" fill="#fff" stroke="#fff" stroke-width="0.5"/><ellipse cx="1" cy="1.333" rx="1" ry="1.333" transform="translate(6.664 22.659)" fill="#fff" stroke="#fff" stroke-width="0.5"/><circle cx="1.333" cy="1.333" r="1.333" transform="translate(16.661 36.655)" fill="#fff" stroke="#fff" stroke-width="0.5"/><circle cx="1.333" cy="1.333" r="1.333" transform="translate(8.664 30.657)" fill="#fff" stroke="#fff" stroke-width="0.5"/><circle cx="1.333" cy="1.333" r="1.333" transform="translate(1.333 34.655)" fill="#fff" stroke="#fff" stroke-width="0.5"/><ellipse cx="1.333" cy="1" rx="1.333" ry="1" transform="translate(0 19.993)" fill="#fff" stroke="#fff" stroke-width="0.5"/><circle cx="1.333" cy="1.333" r="1.333" transform="translate(6.664 4.665)" fill="#fff" stroke="#fff" stroke-width="0.5"/><ellipse cx="1.333" cy="1" rx="1.333" ry="1" transform="translate(21.993 0)" fill="#fff" stroke="#fff" stroke-width="0.5"/><circle cx="1.333" cy="1.333" r="1.333" transform="translate(36.655 5.332)" fill="#fff" stroke="#fff" stroke-width="0.5"/><ellipse cx="1.333" cy="1" rx="1.333" ry="1" transform="translate(43.986 19.993)" fill="#fff" stroke="#fff" stroke-width="0.5"/><circle cx="1.333" cy="1.333" r="1.333" transform="translate(37.321 22.659)" fill="#fff" stroke="#fff" stroke-width="0.5"/><ellipse cx="1.333" cy="1.666" rx="1.333" ry="1.666" transform="translate(34.655 31.323)" fill="#fff" stroke="#fff" stroke-width="0.5"/><circle cx="1.333" cy="1.333" r="1.333" transform="translate(41.986 34.655)" fill="#fff" stroke="#fff" stroke-width="0.5"/><circle cx="1.333" cy="1.333" r="1.333" transform="translate(34.655 54.649)" fill="#fff" stroke="#fff" stroke-width="0.5"/><circle cx="1.333" cy="1.333" r="1.333" transform="translate(33.989 45.318)" fill="#fff" stroke="#fff" stroke-width="0.5"/><circle cx="1.333" cy="1.333" r="1.333" transform="translate(9.33 54.649)" fill="#fff" stroke="#fff" stroke-width="0.5"/><circle cx="1.333" cy="1.333" r="1.333" transform="translate(9.33 45.318)" fill="#fff" stroke="#fff" stroke-width="0.5"/><ellipse cx="1.333" cy="1" rx="1.333" ry="1" transform="translate(21.993 60.647)" fill="#fff" stroke="#fff" stroke-width="0.5"/><circle cx="1.333" cy="1.333" r="1.333" transform="translate(21.993 51.983)" fill="#fff" stroke="#fff" stroke-width="0.5"/><ellipse cx="1.333" cy="1.666" rx="1.333" ry="1.666" transform="translate(21.993 37.988)" fill="#fff" stroke="#fff" stroke-width="0.5"/><circle cx="1.333" cy="1.333" r="1.333" transform="translate(21.326 43.986)" fill="#fff" stroke="#fff" stroke-width="0.5"/><circle cx="1.333" cy="1.333" r="1.333" transform="translate(19.327 21.993)" fill="#fff" stroke="#fff" stroke-width="0.5"/></g></g><path d="M39.009,82.025S26.853,88.4,27.521,95.749c.006.066.011.13.028.495.436,6.526-10.791-11.481-10.791-11.481l18.465-5.737Z" fill="#624fa9"/></g></g></g></g></svg>