<svg xmlns="http://www.w3.org/2000/svg" xmlns:xlink="http://www.w3.org/1999/xlink" width="192.591" height="173.116" viewBox="0 0 192.591 173.116"><defs><linearGradient id="a" y1="0.5" x2="1" y2="0.5" gradientUnits="objectBoundingBox"><stop offset="0" stop-color="#ff8d02"/><stop offset="1" stop-color="#ffc757"/></linearGradient><linearGradient id="c" y1="0.5" x2="1" y2="0.5" gradientUnits="objectBoundingBox"><stop offset="0" stop-color="#d5e0f5"/><stop offset="1" stop-color="#fff"/></linearGradient><linearGradient id="d" x1="0.135" y1="1.065" x2="0.697" y2="0.195" gradientUnits="objectBoundingBox"><stop offset="0" stop-color="#d8e2f6"/><stop offset="0.01" stop-color="#d9e3f6"/><stop offset="0.122" stop-color="#eaeffa"/><stop offset="0.261" stop-color="#f6f8fd"/><stop offset="0.457" stop-color="#fdfdfe"/><stop offset="1" stop-color="#fff"/></linearGradient><clipPath id="e"><circle cx="24.444" cy="24.444" r="24.444" fill="none"/></clipPath><linearGradient id="f" x1="15.442" y1="0.879" x2="15.054" y2="0.402" gradientUnits="objectBoundingBox"><stop offset="0" stop-color="#ffb58e"/><stop offset="0.328" stop-color="#feb38a"/><stop offset="0.591" stop-color="#fcac80"/><stop offset="0.83" stop-color="#f8a270"/><stop offset="1" stop-color="#f5985f"/></linearGradient><linearGradient id="g" x1="11.856" y1="0.145" x2="12.072" y2="0.979" xlink:href="#f"/><linearGradient id="h" x1="9.244" y1="0.178" x2="9.728" y2="0.806" gradientUnits="objectBoundingBox"><stop offset="0" stop-color="#b62c01"/><stop offset="1" stop-color="#7c0c0a"/></linearGradient><linearGradient id="i" x1="48.468" y1="-2.032" x2="49.111" y2="1.299" xlink:href="#f"/><linearGradient id="j" x1="-0.03" y1="1.015" x2="0.897" y2="0.3" gradientUnits="objectBoundingBox"><stop offset="0" stop-color="#1196c3"/><stop offset="1" stop-color="#02b2ca"/></linearGradient><linearGradient id="l" x1="0.5" y1="1" x2="0.5" gradientUnits="objectBoundingBox"><stop offset="0" stop-color="#6c9cff"/><stop offset="1" stop-color="#a4c4ff"/></linearGradient><filter id="m" x="105.948" y="96.026" width="69.517" height="69.517" filterUnits="userSpaceOnUse"><feOffset dy="3" input="SourceAlpha"/><feGaussianBlur stdDeviation="2.5" result="n"/><feFlood flood-color="#546cff" flood-opacity="0.502"/><feComposite operator="in" in2="n"/><feComposite in="SourceGraphic"/></filter><linearGradient id="o" x1="4.447" y1="2.87" x2="5.447" y2="2.87" gradientUnits="objectBoundingBox"><stop offset="0" stop-color="#aac8fd"/><stop offset="0.855" stop-color="#d4e4ff"/></linearGradient><linearGradient id="p" x1="0.5" y1="1" x2="0.5" gradientUnits="objectBoundingBox"><stop offset="0" stop-color="#1123a5"/><stop offset="0.369" stop-color="#2a3ec7"/><stop offset="1" stop-color="#546cff"/></linearGradient><linearGradient id="q" x1="0.5" y1="1" x2="0.5" gradientUnits="objectBoundingBox"><stop offset="0" stop-color="#ff8f00"/><stop offset="1" stop-color="#ffbd00"/></linearGradient><linearGradient id="s" x1="0.5" y1="1" x2="0.5" y2="0" xlink:href="#q"/><linearGradient id="u" x1="0.5" y1="1" x2="0.5" y2="0" xlink:href="#q"/><linearGradient id="v" x1="0.5" y1="1" x2="0.5" y2="0" xlink:href="#q"/><linearGradient id="y" x1="0.5" y1="16.017" x2="0.5" y2="0" xlink:href="#p"/><linearGradient id="z" x1="0.5" y1="1" x2="0.5" y2="-15.017" xlink:href="#p"/><linearGradient id="aa" x1="8.008" y1="30.407" x2="8.008" y2="-29.407" xlink:href="#p"/><linearGradient id="ab" x1="-7.008" y1="30.407" x2="-7.008" y2="-29.407" xlink:href="#p"/><linearGradient id="ac" x1="7.259" y1="17.45" x2="7.259" y2="-2.935" xlink:href="#p"/><linearGradient id="ad" x1="-6.257" y1="3.935" x2="-6.257" y2="-16.45" xlink:href="#p"/><linearGradient id="ae" x1="7.259" y1="3.935" x2="7.259" y2="-16.45" xlink:href="#p"/><linearGradient id="af" x1="-6.257" y1="17.45" x2="-6.257" y2="-2.935" xlink:href="#p"/></defs><g transform="translate(6.83 7.967)" opacity="0.8"><path d="M643.48,601.173c-.008-.15-.016-.3-.025-.452-5.839-54.309-53.725-47.885-87.595-91.682S491.039,485.1,491.039,485.1c-36.206,26.278-11.1,56.645-11.679,71.244s-19.271,32.7-11.1,63.653l.043.161A17.938,17.938,0,0,0,484.841,633.4H554.1v.021h58.732A30.664,30.664,0,0,0,643.48,601.173Z" transform="translate(-462.28 -475.219)" fill="#e7e8fa"/><path d="M641.9,680.308c-2.371.653-9.318-3.33-11.016-3.377-1.758.964-1.951,5.533-2.286,6.995s15.091-.986,14,.813-11.148.18-12.071.482c-.476.154-.536,1.082-.209,2.057h17.791a16.5,16.5,0,0,0,2.718-3.019,22.918,22.918,0,0,0-1.537,3.019h3.75a2.648,2.648,0,0,1,.858-1.147c.228-.143.615.365,1.173,1.147h16.718c1.083-1.085,1.729-1.995,1.68-2.3-.139-.886-8.925.177-10.525-1.044s-1.54-2.232.507-2.959,9.305,2.644,11.574.942,4.21-5.7,3.983-6.947-4.965,2.28-9.4,2.974-7.478-.175-6.781-1.724,10.847-1.1,13.839-2.981,3.409-7.421,2.908-8.219-11.587,6.573-14.059,6.178-1.053-2.121,1.768-2.5,9.994-3.349,10.639-5.423-.373-6.578-1.258-6.439-2.753,3.811-4.734,5.75-4.464,3.078-4.917.583,7.183-4.506,8.329-5.781-.247-6.379-.91-7.214-10.891-3.178-12.687-2.052c-2,2.787-2.366,11.077-1.49,12.474s.369,4.356-1.768,2.5c-2.026-2.344.591-13.022.54-13.546s-2.073-.646-4.106.769-1.433,9.24-.455,11.685,1.986,8.486-2.039,5.171-1.645-13.7-2.995-14.526-4.241,2.1-5.35,3.217-.93,4.059.373,6.578,7.354,8.177,4.422,9.043S642,658.973,640.9,658.551s-3.731,1.367-4.8,4.54c-1.031,3.01,9.978,10.146,8.484,12.2-4.43.694-7.891-8.813-9.678-9.222s-3.416,2.977-4.26,5.175.267,3.307,3.379,5.387S643.608,678.82,641.9,680.308Zm13.037-6.211c-.33,2.21-2.529.3-2.529.3C652.609,671.981,655.267,671.887,654.937,674.1Zm-6.11,2.117c2.464-1.546,2.662,2.192,1.086,4.468a2.535,2.535,0,0,1-3.685.738C644.62,680,646.363,677.758,648.827,676.213Z" transform="translate(-514.68 -529.173)" fill="#6d57bc"/><path d="M476.818,658.746c1.987-1.164,6.1-.331,3.414,2.574-3.357,2.729-18.152-1.374-18.886-1.326s-.989,2.867.9,5.764,12.837,2.391,16.292,1.13,11.928-2.415,7.132,3.064-19.2,1.718-20.4,3.567,2.758,6.009,4.264,7.6a4.077,4.077,0,0,0,2.476,1.053h2.239a14.052,14.052,0,0,0,4.483-1.3c3.572-1.712,11.726-9.919,12.811-5.79.62,2.361-5.272,4.986-10.553,7.085h12.554c1.35-.987,2.457-1.458,3.125-.938a4.181,4.181,0,0,1,0,.938h20.051a21.924,21.924,0,0,0-7.265-9.263c11.578,7.421,16.9,2.482,18.555-.318,1.723-2.916.277-10.265-1.405-11.185s-1.91,4.55-6.059,7.553-7.682.879-8.347-.257,9.865-4.636,9.152-12.033-8.7-15.493-9.938-15.336-.13,12.466-1.9,14.648-3.181,2.054-4.11-.833,4.084-12.877,1.8-16.116-7.778-6.118-9.529-5.854,2.973,7.027,3.754,13.241-.56,10.431-2.693,9.393-1.082-15.187-3.576-19.445-10.215-5.071-11.35-4.406,8.685,16.451,8.029,19.886-3,1.378-3.415-2.574-4.253-14.092-7.119-15.081-9.2.242-9.042,1.485,5.2,4,7.826,6.852,4.108,6.361.6,6.888-5.986-10.218-7.717-11.872-8.914.077-10.108.967-4.9,15.069-3.4,17.623C463.275,659.055,474.831,659.91,476.818,658.746Zm27.606,15.287a3.54,3.54,0,0,1,.874,5.175c-2.054,2.184-5.1-.343-7.157-3.848S501.313,671.736,504.424,674.032Zm-8.979-7.292c3.07.555.311,3.544.311,3.544C492.394,669.9,492.375,666.186,495.445,666.741Z" transform="translate(-459.996 -523.991)" fill="#6d57bc"/><g transform="translate(25.738 -7.967)"><g transform="translate(0)"><path d="M608.61,471.141h-67.3a11.441,11.441,0,0,0-11.428,11.428v150.26a11.441,11.441,0,0,0,10.745,11.405h37.926v.023H608.61a11.442,11.442,0,0,0,11.428-11.428V482.569A11.441,11.441,0,0,0,608.61,471.141Z" transform="translate(-512.546 -471.141)" fill="#162e5c"/><path d="M609.519,474.59H598.573l-1.992,3.524a5.9,5.9,0,0,1-5.138,3H560.3a5.9,5.9,0,0,1-5.138-3l-1.992-3.524H542.22a8.889,8.889,0,0,0-8.889,8.888v150.26a8.889,8.889,0,0,0,8.889,8.888h67.3a8.889,8.889,0,0,0,8.889-8.888V483.478A8.889,8.889,0,0,0,609.519,474.59Z" transform="translate(-513.455 -472.05)" fill="#5e44be"/><path d="M597.686,478.295H576.734a.847.847,0,0,1-.846-.847h0a.847.847,0,0,1,.846-.847h20.952a.846.846,0,0,1,.846.847h0A.846.846,0,0,1,597.686,478.295Z" transform="translate(-524.673 -472.58)" fill="#e7e8fa"/><g transform="translate(7.725 96.611)"><rect width="38.094" height="8.889" rx="4.444" fill="#fff"/><rect width="38.094" height="31.428" rx="6.368" transform="translate(0 13.015)" fill="#fff"/><path d="M542.875,609.253h-20a.873.873,0,0,1-.873-.873h0a.873.873,0,0,1,.873-.873h20a.873.873,0,0,1,.873.873h0A.874.874,0,0,1,542.875,609.253Z" transform="translate(-518.193 -603.697)" fill="#a1c2ff"/><path d="M542.875,630.807h-20a.873.873,0,0,1-.873-.873h0a.873.873,0,0,1,.873-.873h20a.873.873,0,0,1,.873.873h0A.873.873,0,0,1,542.875,630.807Z" transform="translate(-518.193 -609.379)" fill="#a1c2ff"/><path d="M542.875,642.662h-20a.873.873,0,0,1-.873-.873h0a.872.872,0,0,1,.873-.873h20a.873.873,0,0,1,.873.873h0A.873.873,0,0,1,542.875,642.662Z" transform="translate(-518.193 -612.504)" fill="#a1c2ff"/><path d="M542.875,654.516h-20a.872.872,0,0,1-.873-.873h0a.873.873,0,0,1,.873-.873h20a.873.873,0,0,1,.873.873h0A.873.873,0,0,1,542.875,654.516Z" transform="translate(-518.193 -615.629)" fill="#a1c2ff"/><path d="M551.208,636.626H522.876a.872.872,0,0,1-.873-.873h0a.872.872,0,0,1,.873-.873h28.332a.873.873,0,0,1,.873.873h0A.873.873,0,0,1,551.208,636.626Z" transform="translate(-518.193 -610.913)" fill="#a1c2ff"/><path d="M560.66,609.253h-5.238a.873.873,0,0,1-.873-.873h0a.873.873,0,0,1,.873-.873h5.238a.873.873,0,0,1,.873.873h0A.873.873,0,0,1,560.66,609.253Z" transform="translate(-526.772 -603.697)" fill="#a1c2ff"/><path d="M558.231,653.028l-2.073,1.09a.266.266,0,0,1-.386-.28l.4-2.308a.267.267,0,0,0-.077-.236l-1.678-1.635a.266.266,0,0,1,.147-.454l2.318-.337a.266.266,0,0,0,.2-.146l1.036-2.1a.266.266,0,0,1,.477,0l1.037,2.1a.264.264,0,0,0,.2.146l2.318.337a.266.266,0,0,1,.147.454l-1.677,1.635a.267.267,0,0,0-.077.236l.4,2.308a.266.266,0,0,1-.386.28l-2.073-1.09A.267.267,0,0,0,558.231,653.028Z" transform="translate(-526.716 -613.969)" fill="url(#a)"/></g><rect width="43.173" height="104.547" rx="11.321" transform="translate(54.813 21.375)" fill="#513ba3"/><g transform="translate(75.806 97.948)"><circle cx="20.528" cy="20.528" r="20.528" transform="translate(0 29.032) rotate(-45)" fill="#323197"/><path d="M639.646,608.8v25.711H613.935A25.606,25.606,0,1,0,639.646,608.8Z" transform="translate(-610.508 -605.377)" fill="url(#a)"/><circle cx="14.179" cy="14.179" r="14.179" transform="translate(14.852 14.852)" fill="url(#c)"/><circle cx="9.656" cy="9.656" r="9.656" transform="translate(19.376 19.376)" fill="#a1c2ff"/><text transform="translate(23.938 28.145)" fill="#fff" font-size="2" font-family="Aileron-SemiBold, Aileron" font-weight="600"><tspan x="0" y="0">75%</tspan></text></g><g transform="translate(67.934 34.39)"><path d="M638.15,523.158H602.613a4.021,4.021,0,0,0-4.021,4.021v51.85a4.021,4.021,0,0,0,4.021,4.021H638.15Z" transform="translate(-598.592 -519.243)" fill="#323197" opacity="0.31" style="mix-blend-mode:multiply;isolation:isolate"/><rect width="51.215" height="59.892" rx="7.682" transform="translate(3.492)" fill="url(#d)"/><path d="M628.518,528.635V517.842H607.355a4.021,4.021,0,0,0-4.022,4.021v6.772Z" transform="translate(-599.842 -517.842)" fill="#372381"/><text transform="translate(11.847 5.25)" fill="#fff" font-size="2" font-family="Montserrat-SemiBold, Montserrat" font-weight="600"><tspan x="0" y="0">APR</tspan></text><text transform="translate(35.127 5.25)" fill="#93a5c9" font-size="2" font-family="Montserrat-SemiBold, Montserrat" font-weight="600"><tspan x="0" y="0">MAY</tspan></text><g transform="translate(8.121 16.825)"><rect width="7.936" height="7.936" rx="2.274" fill="#5b1f7d"/><rect width="7.936" height="7.936" rx="2.274" transform="translate(11.269)" fill="#5b1f7d"/><rect width="7.936" height="7.936" rx="2.274" transform="translate(22.539)" fill="#5b1f7d"/><rect width="7.936" height="7.936" rx="2.274" transform="translate(33.808)" fill="#5b1f7d"/></g><g transform="translate(8.121 29.205)"><rect width="7.936" height="7.936" rx="2.274" fill="#5b1f7d"/><rect width="7.936" height="7.936" rx="2.274" transform="translate(11.269)" fill="#5b1f7d"/><rect width="7.936" height="7.936" rx="2.274" transform="translate(22.539)" fill="#ffa600"/><rect width="7.936" height="7.936" rx="2.274" transform="translate(33.808)" fill="#5b1f7d"/></g><g transform="translate(8.121 41.586)"><rect width="7.936" height="7.936" rx="2.274" fill="#5b1f7d"/><rect width="7.936" height="7.936" rx="2.274" transform="translate(11.269)" fill="#5b1f7d"/><rect width="7.936" height="7.936" rx="2.274" transform="translate(22.539)" fill="#5b1f7d"/><rect width="7.936" height="7.936" rx="2.274" transform="translate(33.808)" fill="#5b1f7d"/></g></g><g transform="translate(24.867 22.01)"><rect width="25.079" height="6.349" rx="3.175" fill="#513ba3"/><rect width="25.079" height="6.349" rx="3.174" transform="translate(0 9.523)" fill="#513ba3"/></g><path d="M539.635,519.422a28.922,28.922,0,0,0-9.752,1.686v54.615a29,29,0,1,0,9.752-56.3Z" transform="translate(-512.546 -483.868)" fill="#323197" opacity="0.31" style="mix-blend-mode:multiply;isolation:isolate"/><g transform="translate(0 37.459)"><circle cx="27.089" cy="27.089" r="27.089" fill="#6653a8"/><g transform="translate(2.645 2.645)"><circle cx="24.444" cy="24.444" r="24.444" fill="#fff"/><g clip-path="url(#e)"><g transform="translate(4.375 4.21)"><g transform="translate(10.196)"><g transform="translate(2.203 13.544)"><path d="M543.777,556.073s-1.982,5.286-.661,8.754c.5,3.3-8.919.826-10.406-3.3.5-2.643,2.312-4.46,2.478-9.745S543.942,552.6,543.777,556.073Z" transform="translate(-532.71 -549.71)" fill="url(#f)"/><path d="M535.386,556.182a17.069,17.069,0,0,0,.379-2.124l5.252-2.445c1.88,1.353,3.539,3.417,3.466,4.96a20.224,20.224,0,0,0-1.087,5.1C538.519,560.682,536.326,557.964,535.386,556.182Z" transform="translate(-533.415 -550.212)" fill="#ffa26e" opacity="0.32" style="mix-blend-mode:multiply;isolation:isolate"/></g><g transform="translate(4.773 5.185)"><path d="M548.7,544.935s2.32,6.538.077,9.179c-3.5,4.123-8.946,1.867-11.124-.622s-2.1-12.835,1.556-14.469S547.144,538.556,548.7,544.935Z" transform="translate(-536.2 -538.359)" fill="url(#g)"/></g><path d="M537.1,542.689c.066-.215.136-.424.213-.626l1.976-2.1,6.177-.379a7.089,7.089,0,0,1,2.341,2.639,14.419,14.419,0,0,1-5.952,1.018c-2.067-.214-1.782,0-1.782,0a4.624,4.624,0,0,1-.285,3.919c-1.14,2-2.28,2.993-1.71,4.632C537.579,550.856,537.189,544.336,537.1,542.689Z" transform="translate(-531.664 -533.496)" fill="#ffa26e" opacity="0.32" style="mix-blend-mode:multiply;isolation:isolate"/><path d="M536.962,540.347s1.306,2.067-.689,5.772a5.414,5.414,0,0,0,.023,3.445c.1.855-1.806-.9-2.091-1.663-.285-.571-2.043.237-2.589-.523s.4-1.615.4-1.615-2.566-2.661-2.281-4.846,2.85-2,2.85-2a4.653,4.653,0,0,1-1.8-1.425c-.285-.665,1.9.57,2.09,1.045a1.7,1.7,0,0,1,.38-1.425c.38-.475.095,1.425.095,1.425a8.523,8.523,0,0,1,1.616-2.566c1.235-1.425,3.42-.475,5.13-1.52s1.425-3.04,2.565-3.135,3.587,1.757,3.088,5.178a9.561,9.561,0,0,0,.285-3.278c.428-.214,1.568,2.993-.427,4.489a2.967,2.967,0,0,0,1.781-1.924c.5-1.14,1.211,2.566-2.779,3.777S538.15,539.492,536.962,540.347Z" transform="translate(-529.719 -531.318)" fill="url(#h)"/><path d="M540.178,554.493a2.054,2.054,0,1,0,2.054-2.055A2.054,2.054,0,0,0,540.178,554.493Z" transform="translate(-532.476 -536.885)" fill="#fe746a"/><g transform="translate(2.017 15.586)"><path d="M535.463,554.05s-1.788-2.552-2.837-1.143c-1.063,1.43,3.232,3.96,3.347,2.772A2.207,2.207,0,0,0,535.463,554.05Z" transform="translate(-532.457 -552.483)" fill="url(#i)"/><path d="M535.208,555.225s-.891-1.639-2.031-1.639c-.321-.285.605-.178,1.1.213S535.564,554.9,535.208,555.225Z" transform="translate(-532.63 -552.731)" fill="#ff7d5a"/><path d="M535.421,555.209s-1.069-1.046-1.615-.689C533.544,554.947,535.659,555.992,535.421,555.209Z" transform="translate(-532.807 -553)" fill="#ff7d5a"/></g></g><path d="M548.171,617.923c-.326-2.24-.948-33.268-.948-37.464a14.335,14.335,0,0,0-1.884-7.441c-1.036-1.789-4.238-3.485-5.274-4.144a8.623,8.623,0,0,1-1.7-1.412,2.413,2.413,0,0,1-1.224,2.166c-5.181.566-8.571-4.9-8.571-4.9s-8.005,3.579-9.418,7.535c-2.618,7.514-3.191,43.023-3.282,45.658Z" transform="translate(-515.873 -540.126)" fill="url(#j)"/></g></g><g transform="translate(37.988 4.338)"><circle cx="6.984" cy="6.984" r="6.984" fill="url(#a)"/><path d="M567.266,540.41l2.222,2.222,4.206-4.206" transform="translate(-563.034 -533.32)" fill="none" stroke="#fff" stroke-linecap="round" stroke-linejoin="round" stroke-width="2"/></g></g></g><g transform="translate(7.407 143.434)"><path d="M566.3,672.6H529.883v11.746H566.3a1.9,1.9,0,0,0,1.9-1.9v-7.936A1.9,1.9,0,0,0,566.3,672.6Z" transform="translate(-519.953 -667.679)" fill="#323197" opacity="0.31" style="mix-blend-mode:multiply;isolation:isolate"/><g transform="translate(0 2.699)"><rect width="46.03" height="11.746" rx="3.639" fill="#fff"/><g transform="translate(4.127 2.064)"><path d="M526.077,680.532a4.074,4.074,0,1,1,4.074-4.074A4.078,4.078,0,0,1,526.077,680.532Zm0-6.878a2.8,2.8,0,1,0,2.8,2.8A2.807,2.807,0,0,0,526.077,673.655Z" transform="translate(-522.003 -672.385)" fill="#a1c2ff"/><path d="M528.2,677.777h-1.032a.317.317,0,0,1-.317-.317V675.4a.318.318,0,0,1,.635,0v1.746h.714a.317.317,0,1,1,0,.635Z" transform="translate(-523.281 -673.095)" fill="#a1c2ff"/><text transform="translate(11.032 4.659)" fill="#93a5c9" font-size="4" font-family="Aileron-SemiBold, Aileron" font-weight="600"><tspan x="0" y="0">03:00 </tspan><tspan y="0" fill="#5a6a90" font-family="Aileron-Bold, Aileron" font-weight="700">PM</tspan></text></g></g><path d="M582.092,667.188a1.27,1.27,0,1,1-1.27-1.27A1.27,1.27,0,0,1,582.092,667.188Z" transform="translate(-533.046 -665.918)" fill="#fff"/></g><g transform="translate(64.548 102.642)"><rect width="26.666" height="3.492" rx="1.746" transform="translate(0)" fill="#081731" opacity="0.44"/><path d="M602.723,621.56h-6.984a1.746,1.746,0,0,1-1.746-1.746h0a1.746,1.746,0,0,1,1.746-1.746h6.984a1.746,1.746,0,0,1,1.746,1.746h0A1.746,1.746,0,0,1,602.723,621.56Z" transform="translate(-593.993 -612.513)" fill="#081731" opacity="0.44"/></g><path d="M517.2,524.852a1.693,1.693,0,1,1-1.693-1.694A1.693,1.693,0,0,1,517.2,524.852Z" transform="translate(-508.31 -484.853)" fill="#a1c2ff"/></g></g><g transform="translate(156.121 89.004)" opacity="0.6" style="mix-blend-mode:multiply;isolation:isolate"><path d="M739.315,411.387l-2.842-.311a11.787,11.787,0,0,0-.7-1.684l1.791-2.23a.886.886,0,0,0-.119-1.105l-3.549-3.549a.886.886,0,0,0-1.1-.119l-2.23,1.79a11.788,11.788,0,0,0-1.684-.7l-.311-2.842a.886.886,0,0,0-.866-.7h-5.019a.885.885,0,0,0-.865.7l-.311,2.842a11.823,11.823,0,0,0-1.684.7l-2.23-1.79a.886.886,0,0,0-1.105.119l-3.549,3.549a.885.885,0,0,0-.119,1.105l1.79,2.23a11.785,11.785,0,0,0-.7,1.684l-2.842.311a.885.885,0,0,0-.7.866v5.019a.885.885,0,0,0,.7.865l2.842.311a11.817,11.817,0,0,0,.7,1.684l-1.79,2.23a.886.886,0,0,0,.119,1.105l3.549,3.549a.886.886,0,0,0,1.105.119l2.23-1.79a11.818,11.818,0,0,0,1.684.7l.311,2.842a.885.885,0,0,0,.865.7H727.7a.886.886,0,0,0,.866-.7l.311-2.842a11.783,11.783,0,0,0,1.684-.7l2.23,1.79a.885.885,0,0,0,1.1-.119l3.549-3.549a.886.886,0,0,0,.119-1.105l-1.791-2.23a11.819,11.819,0,0,0,.7-1.684l2.842-.311a.886.886,0,0,0,.7-.865v-5.019A.886.886,0,0,0,739.315,411.387Zm-14.194,10.638a7.263,7.263,0,1,1,7.264-7.263A7.263,7.263,0,0,1,725.121,422.026Z" transform="translate(-710.372 -399.942)" fill="#ffa600"/></g><g transform="translate(106.618 92.559)"><g transform="matrix(1, 0, 0, 1, -113.45, -100.53)" filter="url(#m)"><circle cx="27.258" cy="27.258" r="27.258" transform="translate(113.45 100.53)" fill="url(#l)"/></g><path d="M881.035,372.308a23.25,23.25,0,1,1,0-32.88A23.276,23.276,0,0,1,881.035,372.308Z" transform="translate(-837.337 -328.609)" fill="url(#o)"/><path d="M888.1,339.428a23.276,23.276,0,0,0-32.88,0l32.88,32.88A23.276,23.276,0,0,0,888.1,339.428Z" transform="translate(-844.397 -328.609)" fill="#fff" opacity="0.9" style="mix-blend-mode:soft-light;isolation:isolate"/><path d="M896.86,364.709h-8.065V353.327a1.1,1.1,0,1,0-2.2,0v12.481a1.1,1.1,0,0,0,1.1,1.1h9.165a1.1,1.1,0,1,0,0-2.2Z" transform="translate(-860.368 -338.587)" fill="url(#p)"/><g transform="translate(6.513 6.513)"><path d="M888.335,337.708a.347.347,0,0,0-.347.347v1.9a.347.347,0,0,0,.694,0v-1.9A.347.347,0,0,0,888.335,337.708Z" transform="translate(-867.589 -337.708)" fill="url(#q)"/><path d="M888.335,416.95a.347.347,0,0,0-.347.347v1.9a.347.347,0,0,0,.694,0v-1.9A.347.347,0,0,0,888.335,416.95Z" transform="translate(-867.589 -378.05)" fill="url(#q)"/><path d="M848.679,379.261h-1.9a.347.347,0,1,0,0,.694h1.9a.347.347,0,0,0,0-.694Z" transform="translate(-846.435 -358.862)" fill="url(#s)"/><path d="M927.921,379.261h-1.9a.347.347,0,1,0,0,.694h1.9a.347.347,0,0,0,0-.694Z" transform="translate(-886.777 -358.862)" fill="url(#s)"/><path d="M859.2,349.98a.347.347,0,0,0-.49.491l1.341,1.341a.347.347,0,0,0,.49-.49Z" transform="translate(-852.631 -343.904)" fill="url(#u)"/><path d="M915.23,406.013a.347.347,0,0,0-.49.49l1.341,1.342a.347.347,0,0,0,.491-.491Z" transform="translate(-881.157 -372.43)" fill="url(#v)"/><path d="M860.049,406.013l-1.341,1.341a.347.347,0,0,0,.49.491l1.341-1.342a.347.347,0,0,0-.49-.49Z" transform="translate(-852.631 -372.43)" fill="url(#v)"/><path d="M916.081,349.98l-1.341,1.342a.347.347,0,0,0,.49.49l1.342-1.341a.347.347,0,0,0-.491-.491Z" transform="translate(-881.157 -343.904)" fill="url(#u)"/><path d="M888.335,337.708a.347.347,0,0,0-.347.347v1.9a.347.347,0,0,0,.694,0v-1.9A.347.347,0,0,0,888.335,337.708Z" transform="translate(-867.589 -337.708)" fill="url(#y)"/><path d="M888.335,416.95a.347.347,0,0,0-.347.347v1.9a.347.347,0,0,0,.694,0v-1.9A.347.347,0,0,0,888.335,416.95Z" transform="translate(-867.589 -378.05)" fill="url(#z)"/><path d="M848.679,379.261h-1.9a.347.347,0,1,0,0,.694h1.9a.347.347,0,0,0,0-.694Z" transform="translate(-846.435 -358.862)" fill="url(#aa)"/><path d="M927.921,379.261h-1.9a.347.347,0,1,0,0,.694h1.9a.347.347,0,0,0,0-.694Z" transform="translate(-886.777 -358.862)" fill="url(#ab)"/><path d="M859.2,349.98a.347.347,0,0,0-.49.491l1.341,1.341a.347.347,0,0,0,.49-.49Z" transform="translate(-852.631 -343.904)" fill="url(#ac)"/><path d="M915.23,406.013a.347.347,0,0,0-.49.49l1.341,1.342a.347.347,0,0,0,.491-.491Z" transform="translate(-881.157 -372.43)" fill="url(#ad)"/><path d="M860.049,406.013l-1.341,1.341a.347.347,0,0,0,.49.491l1.341-1.342a.347.347,0,0,0-.49-.49Z" transform="translate(-852.631 -372.43)" fill="url(#ae)"/><path d="M916.081,349.98l-1.341,1.342a.347.347,0,0,0,.49.49l1.342-1.341a.347.347,0,0,0-.491-.491Z" transform="translate(-881.157 -343.904)" fill="url(#af)"/></g></g><path d="M587.8,194.151l-3.444-.377a14.348,14.348,0,0,0-.846-2.04l2.169-2.7a1.073,1.073,0,0,0-.144-1.339l-4.3-4.3a1.073,1.073,0,0,0-1.339-.144l-2.7,2.169a14.274,14.274,0,0,0-2.04-.846l-.377-3.444a1.073,1.073,0,0,0-1.049-.845h-6.081a1.073,1.073,0,0,0-1.049.845l-.377,3.444a14.273,14.273,0,0,0-2.04.846l-2.7-2.169a1.073,1.073,0,0,0-1.339.144l-4.3,4.3a1.073,1.073,0,0,0-.144,1.339l2.169,2.7a14.349,14.349,0,0,0-.846,2.04l-3.444.377a1.073,1.073,0,0,0-.845,1.049v6.081a1.073,1.073,0,0,0,.845,1.049l3.444.377a14.351,14.351,0,0,0,.846,2.04l-2.169,2.7a1.073,1.073,0,0,0,.144,1.339l4.3,4.3a1.073,1.073,0,0,0,1.339.144l2.7-2.169a14.3,14.3,0,0,0,2.04.846l.377,3.444a1.073,1.073,0,0,0,1.049.845h6.081a1.073,1.073,0,0,0,1.049-.845l.377-3.444a14.3,14.3,0,0,0,2.04-.846l2.7,2.169a1.073,1.073,0,0,0,1.339-.144l4.3-4.3a1.073,1.073,0,0,0,.144-1.339l-2.169-2.7a14.35,14.35,0,0,0,.846-2.04l3.444-.377a1.073,1.073,0,0,0,.845-1.049V195.2A1.073,1.073,0,0,0,587.8,194.151Zm-17.2,14.954A10.865,10.865,0,1,1,581.47,198.24,10.865,10.865,0,0,1,570.605,209.105Z" transform="translate(-559.564 -175.774)" fill="#ffa600"/></g></svg>