<svg xmlns="http://www.w3.org/2000/svg" width="233.323" height="204.307" viewBox="0 0 233.323 204.307"><g transform="translate(-865.183 -270.143)" opacity="0.95"><g transform="translate(865.183 315.207)"><path d="M1125.048,488.082V458.894h-2.5V444.987H1118.9V396.632h-5.274v-6.239l-11.26-5.252V378.85h-1.56v17.782h-2.184v48.355h-2.184V419.561h-5.927v-13.1h-1.654v38.528h-4.5V430.324H1081.4v-3.744h-6.863V413.79h-3.758v-9.047h-4.62V391.562h-1.649v13.181h-4.62v9.047h-3.759v12.791h-6.863v3.744H1046.3v14.662h-3.515V426.581h-6.863v-39.62h-2.184v-4.368h-14.662v4.368h-3.12v28.7h-12.479v2.808H998.8v2.184h4.679v11.231h-13.1V394.448h-2.808v-7.955h-6.083V358.26h-1.716v28.233H975.4v7.955H949.795v-2.619h-1.56v17.782h-2.184v.312h-1.312v17.782h-2.184v4.835H937.94v-13.1h-1.654v31.2h-1.841v-13.1H932.79v20.434h-1.006V443.3H928.82v-3.743h-6.863V426.77H918.2v-9.047h-4.62V404.542H911.93v13.181h-4.62v9.047h-3.758v12.791h-6.863V443.3h-2.964v14.351h-.532v.312h-1.467v30.115Z" transform="translate(-891.725 -358.26)" fill="#e7e7e7"/><g transform="translate(6.635 30.242)"><rect width="1.768" height="1.768" transform="translate(65.721 7.695)" fill="#f0f0f0"/><rect width="1.768" height="1.768" transform="translate(65.721 10.659)" fill="#f0f0f0"/><rect width="1.768" height="1.768" transform="translate(65.721 22.514)" fill="#f0f0f0"/><rect width="1.768" height="1.768" transform="translate(65.721 25.477)" fill="#f0f0f0"/><rect width="1.768" height="1.768" transform="translate(65.721 28.441)" fill="#f0f0f0"/><rect width="1.768" height="1.768" transform="translate(65.721 37.332)" fill="#f0f0f0"/><rect width="1.768" height="1.768" transform="translate(65.721 40.296)" fill="#f0f0f0"/><rect width="1.768" height="1.768" transform="translate(68.529 19.55)" fill="#f0f0f0"/><rect width="1.768" height="1.768" transform="translate(68.529 22.514)" fill="#f0f0f0"/><rect width="1.768" height="1.768" transform="translate(68.529 25.477)" fill="#f0f0f0"/><rect width="1.768" height="1.768" transform="translate(68.529 28.441)" fill="#f0f0f0"/><rect width="1.768" height="1.768" transform="translate(68.529 31.405)" fill="#f0f0f0"/><rect width="1.768" height="1.768" transform="translate(68.529 37.332)" fill="#f0f0f0"/><rect width="1.768" height="1.768" transform="translate(68.529 40.296)" fill="#f0f0f0"/><rect width="1.768" height="1.768" transform="translate(71.336 7.695)" fill="#f0f0f0"/><rect width="1.768" height="1.768" transform="translate(71.336 10.659)" fill="#f0f0f0"/><rect width="1.768" height="1.768" transform="translate(71.336 13.623)" fill="#f0f0f0"/><rect width="1.768" height="1.768" transform="translate(71.336 16.586)" fill="#f0f0f0"/><rect width="1.768" height="1.768" transform="translate(71.336 19.55)" fill="#f0f0f0"/><rect width="1.768" height="1.768" transform="translate(71.336 22.514)" fill="#f0f0f0"/><rect width="1.768" height="1.768" transform="translate(71.336 25.477)" fill="#f0f0f0"/><rect width="1.768" height="1.768" transform="translate(71.336 28.441)" fill="#f0f0f0"/><rect width="1.768" height="1.768" transform="translate(71.336 31.405)" fill="#f0f0f0"/><rect width="1.768" height="1.768" transform="translate(71.336 34.368)" fill="#f0f0f0"/><rect width="1.768" height="1.768" transform="translate(71.336 40.296)" fill="#f0f0f0"/><rect width="1.768" height="1.768" transform="translate(74.144 7.695)" fill="#f0f0f0"/><rect width="1.768" height="1.768" transform="translate(74.144 10.659)" fill="#f0f0f0"/><rect width="1.768" height="1.768" transform="translate(74.144 13.623)" fill="#f0f0f0"/><rect width="1.768" height="1.768" transform="translate(74.144 16.586)" fill="#f0f0f0"/><rect width="1.768" height="1.768" transform="translate(74.144 19.55)" fill="#f0f0f0"/><rect width="1.768" height="1.768" transform="translate(74.144 22.514)" fill="#f0f0f0"/><rect width="1.768" height="1.768" transform="translate(74.144 25.477)" fill="#f0f0f0"/><rect width="1.768" height="1.768" transform="translate(74.144 52.15)" fill="#f0f0f0"/><rect width="1.768" height="1.768" transform="translate(76.952 7.695)" fill="#f0f0f0"/><rect width="1.768" height="1.768" transform="translate(76.952 10.659)" fill="#f0f0f0"/><rect width="1.768" height="1.768" transform="translate(76.952 13.623)" fill="#f0f0f0"/><rect width="1.768" height="1.768" transform="translate(76.952 16.586)" fill="#f0f0f0"/><rect width="1.768" height="1.768" transform="translate(76.952 19.55)" fill="#f0f0f0"/><rect width="1.768" height="1.768" transform="translate(76.952 22.514)" fill="#f0f0f0"/><rect width="1.768" height="1.768" transform="translate(76.952 25.477)" fill="#f0f0f0"/><rect width="1.768" height="1.768" transform="translate(76.952 28.441)" fill="#f0f0f0"/><rect width="1.768" height="1.768" transform="translate(76.952 46.223)" fill="#f0f0f0"/><rect width="1.768" height="1.768" transform="translate(76.952 49.187)" fill="#f0f0f0"/><rect width="1.768" height="1.768" transform="translate(76.952 52.15)" fill="#f0f0f0"/><rect width="1.768" height="1.768" transform="translate(76.952 55.114)" fill="#f0f0f0"/><rect width="1.768" height="1.768" transform="translate(76.952 66.969)" fill="#f0f0f0"/><rect width="1.768" height="1.768" transform="translate(79.76 7.695)" fill="#f0f0f0"/><rect width="1.768" height="1.768" transform="translate(79.76 10.659)" fill="#f0f0f0"/><rect width="1.768" height="1.768" transform="translate(79.76 13.623)" fill="#f0f0f0"/><rect width="1.768" height="1.768" transform="translate(79.76 16.586)" fill="#f0f0f0"/><rect width="1.768" height="1.768" transform="translate(79.76 19.55)" fill="#f0f0f0"/><rect width="1.768" height="1.768" transform="translate(79.76 22.514)" fill="#f0f0f0"/><rect width="1.768" height="1.768" transform="translate(79.76 25.477)" fill="#f0f0f0"/><rect width="1.768" height="1.768" transform="translate(79.76 28.441)" fill="#f0f0f0"/><rect width="1.768" height="1.768" transform="translate(79.76 31.405)" fill="#f0f0f0"/><rect width="1.768" height="1.768" transform="translate(79.76 34.368)" fill="#f0f0f0"/><rect width="1.768" height="1.768" transform="translate(79.76 43.259)" fill="#f0f0f0"/><rect width="1.768" height="1.768" transform="translate(79.76 46.223)" fill="#f0f0f0"/><rect width="1.768" height="1.768" transform="translate(79.76 49.187)" fill="#f0f0f0"/><rect width="1.768" height="1.768" transform="translate(79.76 52.15)" fill="#f0f0f0"/><rect width="1.768" height="1.768" transform="translate(79.76 55.114)" fill="#f0f0f0"/><rect width="1.768" height="1.768" transform="translate(79.76 66.969)" fill="#f0f0f0"/><rect width="1.768" height="1.768" transform="translate(82.567 7.695)" fill="#f0f0f0"/><rect width="1.768" height="1.768" transform="translate(82.567 10.659)" fill="#f0f0f0"/><rect width="1.768" height="1.768" transform="translate(82.567 13.623)" fill="#f0f0f0"/><rect width="1.768" height="1.768" transform="translate(82.567 16.586)" fill="#f0f0f0"/><rect width="1.768" height="1.768" transform="translate(82.567 19.55)" fill="#f0f0f0"/><rect width="1.768" height="1.768" transform="translate(82.567 22.514)" fill="#f0f0f0"/><rect width="1.768" height="1.768" transform="translate(82.567 25.477)" fill="#f0f0f0"/><rect width="1.768" height="1.768" transform="translate(82.567 28.441)" fill="#f0f0f0"/><rect width="1.768" height="1.768" transform="translate(82.567 31.405)" fill="#f0f0f0"/><rect width="1.768" height="1.768" transform="translate(82.567 34.368)" fill="#f0f0f0"/><rect width="1.768" height="1.768" transform="translate(82.567 37.332)" fill="#f0f0f0"/><rect width="1.768" height="1.768" transform="translate(82.567 40.296)" fill="#f0f0f0"/><rect width="1.768" height="1.768" transform="translate(82.567 43.259)" fill="#f0f0f0"/><rect width="1.768" height="1.768" transform="translate(82.567 46.223)" fill="#f0f0f0"/><rect width="1.768" height="1.768" transform="translate(82.567 49.187)" fill="#f0f0f0"/><rect width="1.768" height="1.768" transform="translate(82.567 52.15)" fill="#f0f0f0"/><rect width="1.768" height="1.768" transform="translate(82.567 55.114)" fill="#f0f0f0"/><rect width="1.768" height="1.768" transform="translate(82.567 58.078)" fill="#f0f0f0"/><rect width="1.768" height="1.768" transform="translate(85.375 7.695)" fill="#f0f0f0"/><rect width="1.768" height="1.768" transform="translate(85.375 10.659)" fill="#f0f0f0"/><rect width="1.768" height="1.768" transform="translate(85.375 13.623)" fill="#f0f0f0"/><rect width="1.768" height="1.768" transform="translate(85.375 16.586)" fill="#f0f0f0"/><rect width="1.768" height="1.768" transform="translate(85.375 19.55)" fill="#f0f0f0"/><rect width="1.768" height="1.768" transform="translate(85.375 22.514)" fill="#f0f0f0"/><rect width="1.768" height="1.768" transform="translate(85.375 25.477)" fill="#f0f0f0"/><rect width="1.768" height="1.768" transform="translate(85.375 28.441)" fill="#f0f0f0"/><rect width="1.768" height="1.768" transform="translate(85.375 31.405)" fill="#f0f0f0"/><rect width="1.768" height="1.768" transform="translate(85.375 34.368)" fill="#f0f0f0"/><rect width="1.768" height="1.768" transform="translate(85.375 43.259)" fill="#f0f0f0"/><rect width="1.768" height="1.768" transform="translate(85.375 46.223)" fill="#f0f0f0"/><rect width="1.768" height="1.768" transform="translate(85.375 49.187)" fill="#f0f0f0"/><rect width="1.768" height="1.768" transform="translate(85.375 52.15)" fill="#f0f0f0"/><rect width="1.768" height="1.768" transform="translate(88.183 7.695)" fill="#f0f0f0"/><rect width="1.768" height="1.768" transform="translate(88.183 10.659)" fill="#f0f0f0"/><rect width="1.768" height="1.768" transform="translate(88.183 13.623)" fill="#f0f0f0"/><rect width="1.768" height="1.768" transform="translate(88.183 16.586)" fill="#f0f0f0"/><rect width="1.768" height="1.768" transform="translate(88.183 19.55)" fill="#f0f0f0"/><rect width="1.768" height="1.768" transform="translate(88.183 22.514)" fill="#f0f0f0"/><rect width="1.768" height="1.768" transform="translate(88.183 25.477)" fill="#f0f0f0"/><rect width="1.768" height="1.768" transform="translate(88.183 28.441)" fill="#f0f0f0"/><rect width="1.768" height="1.768" transform="translate(88.183 31.405)" fill="#f0f0f0"/><rect width="1.768" height="1.768" transform="translate(88.183 34.368)" fill="#f0f0f0"/><rect width="1.768" height="1.768" transform="translate(88.183 43.259)" fill="#f0f0f0"/><rect width="1.768" height="1.768" transform="translate(88.183 46.223)" fill="#f0f0f0"/><rect width="1.768" height="1.768" transform="translate(88.183 49.187)" fill="#f0f0f0"/><rect width="1.768" height="1.768" transform="translate(119.795)" fill="#f0f0f0"/><rect width="1.768" height="1.768" transform="translate(119.795 2.964)" fill="#f0f0f0"/><rect width="1.768" height="1.768" transform="translate(119.795 5.927)" fill="#f0f0f0"/><rect width="1.768" height="1.768" transform="translate(119.795 8.891)" fill="#f0f0f0"/><rect width="1.768" height="1.768" transform="translate(119.795 11.855)" fill="#f0f0f0"/><rect width="1.768" height="1.768" transform="translate(119.795 14.818)" fill="#f0f0f0"/><rect width="1.768" height="1.768" transform="translate(119.795 17.782)" fill="#f0f0f0"/><rect width="1.768" height="1.768" transform="translate(119.795 20.746)" fill="#f0f0f0"/><rect width="1.768" height="1.768" transform="translate(119.795 29.637)" fill="#f0f0f0"/><rect width="1.768" height="1.768" transform="translate(119.795 32.601)" fill="#f0f0f0"/><rect width="1.768" height="1.768" transform="translate(122.603)" fill="#f0f0f0"/><rect width="1.768" height="1.768" transform="translate(122.603 2.964)" fill="#f0f0f0"/><rect width="1.768" height="1.768" transform="translate(122.603 5.927)" fill="#f0f0f0"/><rect width="1.768" height="1.768" transform="translate(122.603 8.891)" fill="#f0f0f0"/><rect width="1.768" height="1.768" transform="translate(122.603 11.855)" fill="#f0f0f0"/><rect width="1.768" height="1.768" transform="translate(122.603 14.818)" fill="#f0f0f0"/><rect width="1.768" height="1.768" transform="translate(122.603 17.782)" fill="#f0f0f0"/><rect width="1.768" height="1.768" transform="translate(122.603 20.746)" fill="#f0f0f0"/><rect width="1.768" height="1.768" transform="translate(122.603 32.601)" fill="#f0f0f0"/><rect width="1.768" height="1.768" transform="translate(125.411)" fill="#f0f0f0"/><rect width="1.768" height="1.768" transform="translate(125.411 2.964)" fill="#f0f0f0"/><rect width="1.768" height="1.768" transform="translate(125.411 5.927)" fill="#f0f0f0"/><rect width="1.768" height="1.768" transform="translate(125.411 8.891)" fill="#f0f0f0"/><rect width="1.768" height="1.768" transform="translate(125.411 11.855)" fill="#f0f0f0"/><rect width="1.768" height="1.768" transform="translate(125.411 14.818)" fill="#f0f0f0"/><rect width="1.768" height="1.768" transform="translate(125.411 17.782)" fill="#f0f0f0"/><rect width="1.768" height="1.768" transform="translate(125.411 20.746)" fill="#f0f0f0"/><rect width="1.768" height="1.768" transform="translate(128.218)" fill="#f0f0f0"/><rect width="1.768" height="1.768" transform="translate(128.218 2.964)" fill="#f0f0f0"/><rect width="1.768" height="1.768" transform="translate(128.218 5.927)" fill="#f0f0f0"/><rect width="1.768" height="1.768" transform="translate(128.218 8.891)" fill="#f0f0f0"/><rect width="1.768" height="1.768" transform="translate(128.218 11.855)" fill="#f0f0f0"/><rect width="1.768" height="1.768" transform="translate(128.218 14.818)" fill="#f0f0f0"/><rect width="1.768" height="1.768" transform="translate(128.218 20.746)" fill="#f0f0f0"/><rect width="1.768" height="1.768" transform="translate(128.218 23.709)" fill="#f0f0f0"/><rect width="1.768" height="1.768" transform="translate(128.218 32.601)" fill="#f0f0f0"/><rect width="1.768" height="1.768" transform="translate(128.218 35.564)" fill="#f0f0f0"/><rect width="1.768" height="1.768" transform="translate(128.218 38.528)" fill="#f0f0f0"/><rect width="1.768" height="1.768" transform="translate(128.218 41.492)" fill="#f0f0f0"/><rect width="1.768" height="1.768" transform="translate(128.218 44.455)" fill="#f0f0f0"/><rect width="1.768" height="1.768" transform="translate(128.218 47.419)" fill="#f0f0f0"/><rect width="1.768" height="1.768" transform="translate(128.218 50.383)" fill="#f0f0f0"/><rect width="1.768" height="1.768" transform="translate(131.026)" fill="#f0f0f0"/><rect width="1.768" height="1.768" transform="translate(131.026 2.964)" fill="#f0f0f0"/><rect width="1.768" height="1.768" transform="translate(131.026 5.927)" fill="#f0f0f0"/><rect width="1.768" height="1.768" transform="translate(131.026 8.891)" fill="#f0f0f0"/><rect width="1.768" height="1.768" transform="translate(131.026 11.855)" fill="#f0f0f0"/><rect width="1.768" height="1.768" transform="translate(131.026 14.818)" fill="#f0f0f0"/><rect width="1.768" height="1.768" transform="translate(131.026 23.709)" fill="#f0f0f0"/><rect width="1.768" height="1.768" transform="translate(131.026 26.673)" fill="#f0f0f0"/><rect width="1.768" height="1.768" transform="translate(131.026 29.637)" fill="#f0f0f0"/><rect width="1.768" height="1.768" transform="translate(131.026 32.601)" fill="#f0f0f0"/><rect width="1.768" height="1.768" transform="translate(131.026 35.564)" fill="#f0f0f0"/><rect width="1.768" height="1.768" transform="translate(131.026 38.528)" fill="#f0f0f0"/><rect width="1.768" height="1.768" transform="translate(131.026 41.492)" fill="#f0f0f0"/><rect width="1.768" height="1.768" transform="translate(131.026 44.455)" fill="#f0f0f0"/><rect width="1.768" height="1.768" transform="translate(131.026 47.419)" fill="#f0f0f0"/><rect width="1.768" height="1.768" transform="translate(131.026 50.383)" fill="#f0f0f0"/><rect width="1.768" height="1.768" transform="translate(131.026 53.346)" fill="#f0f0f0"/><rect width="1.768" height="1.768" transform="translate(131.026 59.274)" fill="#f0f0f0"/><rect width="1.768" height="1.768" transform="translate(133.834)" fill="#f0f0f0"/><rect width="1.768" height="1.768" transform="translate(133.834 2.964)" fill="#f0f0f0"/><rect width="1.768" height="1.768" transform="translate(133.834 5.927)" fill="#f0f0f0"/><rect width="1.768" height="1.768" transform="translate(133.834 8.891)" fill="#f0f0f0"/><rect width="1.768" height="1.768" transform="translate(133.834 11.855)" fill="#f0f0f0"/><rect width="1.768" height="1.768" transform="translate(133.834 14.818)" fill="#f0f0f0"/><rect width="1.768" height="1.768" transform="translate(133.834 23.709)" fill="#f0f0f0"/><rect width="1.768" height="1.768" transform="translate(133.834 26.673)" fill="#f0f0f0"/><rect width="1.768" height="1.768" transform="translate(133.834 29.637)" fill="#f0f0f0"/><rect width="1.768" height="1.768" transform="translate(133.834 32.601)" fill="#f0f0f0"/><rect width="1.768" height="1.768" transform="translate(133.834 41.492)" fill="#f0f0f0"/><rect width="1.768" height="1.768" transform="translate(133.834 44.455)" fill="#f0f0f0"/><rect width="1.768" height="1.768" transform="translate(133.834 47.419)" fill="#f0f0f0"/><rect width="1.768" height="1.768" transform="translate(133.834 50.383)" fill="#f0f0f0"/><rect width="1.768" height="1.768" transform="translate(133.834 53.346)" fill="#f0f0f0"/><rect width="1.768" height="1.768" transform="translate(133.834 59.274)" fill="#f0f0f0"/><rect width="1.768" height="1.768" transform="translate(133.834 62.237)" fill="#f0f0f0"/><rect width="1.768" height="1.768" transform="translate(159.311 27.557)" fill="#f0f0f0"/><rect width="1.768" height="1.768" transform="translate(159.311 30.521)" fill="#f0f0f0"/><rect width="1.768" height="1.768" transform="translate(159.311 33.484)" fill="#f0f0f0"/><rect width="1.768" height="1.768" transform="translate(159.311 36.448)" fill="#f0f0f0"/><rect width="1.768" height="1.768" transform="translate(159.311 39.412)" fill="#f0f0f0"/><rect width="1.768" height="1.768" transform="translate(159.311 42.376)" fill="#f0f0f0"/><rect width="1.768" height="1.768" transform="translate(159.311 45.339)" fill="#f0f0f0"/><rect width="1.768" height="1.768" transform="translate(159.311 54.23)" fill="#f0f0f0"/><rect width="1.768" height="1.768" transform="translate(159.311 57.194)" fill="#f0f0f0"/><rect width="1.768" height="1.768" transform="translate(159.311 60.158)" fill="#f0f0f0"/><rect width="1.768" height="1.768" transform="translate(162.119 27.557)" fill="#f0f0f0"/><rect width="1.768" height="1.768" transform="translate(162.119 30.521)" fill="#f0f0f0"/><rect width="1.768" height="1.768" transform="translate(162.119 33.484)" fill="#f0f0f0"/><rect width="1.768" height="1.768" transform="translate(162.119 36.448)" fill="#f0f0f0"/><rect width="1.768" height="1.768" transform="translate(162.119 39.412)" fill="#f0f0f0"/><rect width="1.768" height="1.768" transform="translate(162.119 42.376)" fill="#f0f0f0"/><rect width="1.768" height="1.768" transform="translate(162.119 45.339)" fill="#f0f0f0"/><rect width="1.768" height="1.768" transform="translate(164.927 27.557)" fill="#f0f0f0"/><rect width="1.768" height="1.768" transform="translate(164.927 30.521)" fill="#f0f0f0"/><rect width="1.768" height="1.768" transform="translate(164.927 33.484)" fill="#f0f0f0"/><rect width="1.768" height="1.768" transform="translate(164.927 36.448)" fill="#f0f0f0"/><rect width="1.768" height="1.768" transform="translate(164.927 39.412)" fill="#f0f0f0"/><rect width="1.768" height="1.768" transform="translate(164.927 42.376)" fill="#f0f0f0"/><rect width="1.768" height="1.768" transform="translate(164.927 45.339)" fill="#f0f0f0"/><rect width="1.768" height="1.768" transform="translate(167.734 27.557)" fill="#f0f0f0"/><rect width="1.768" height="1.768" transform="translate(167.734 30.521)" fill="#f0f0f0"/><rect width="1.768" height="1.768" transform="translate(167.734 33.484)" fill="#f0f0f0"/><rect width="1.768" height="1.768" transform="translate(167.734 36.448)" fill="#f0f0f0"/><rect width="1.768" height="1.768" transform="translate(167.734 39.412)" fill="#f0f0f0"/><rect width="1.768" height="1.768" transform="translate(167.734 42.376)" fill="#f0f0f0"/><rect width="1.768" height="1.768" transform="translate(167.734 45.339)" fill="#f0f0f0"/><rect width="1.768" height="1.768" transform="translate(167.734 48.303)" fill="#f0f0f0"/><rect width="1.768" height="1.768" transform="translate(167.734 51.267)" fill="#f0f0f0"/><rect width="1.768" height="1.768" transform="translate(167.734 54.23)" fill="#f0f0f0"/><rect width="1.768" height="1.768" transform="translate(167.734 57.194)" fill="#f0f0f0"/><rect width="1.768" height="1.768" transform="translate(170.542 27.557)" fill="#f0f0f0"/><rect width="1.768" height="1.768" transform="translate(170.542 30.521)" fill="#f0f0f0"/><rect width="1.768" height="1.768" transform="translate(170.542 33.484)" fill="#f0f0f0"/><rect width="1.768" height="1.768" transform="translate(170.542 36.448)" fill="#f0f0f0"/><rect width="1.768" height="1.768" transform="translate(170.542 39.412)" fill="#f0f0f0"/><rect width="1.768" height="1.768" transform="translate(170.542 42.376)" fill="#f0f0f0"/><rect width="1.768" height="1.768" transform="translate(170.542 45.339)" fill="#f0f0f0"/><rect width="1.768" height="1.768" transform="translate(170.542 48.303)" fill="#f0f0f0"/><rect width="1.768" height="1.768" transform="translate(170.542 51.267)" fill="#f0f0f0"/><rect width="1.768" height="1.768" transform="translate(170.542 54.23)" fill="#f0f0f0"/><rect width="1.768" height="1.768" transform="translate(170.542 57.194)" fill="#f0f0f0"/><rect width="1.768" height="1.768" transform="translate(170.542 60.158)" fill="#f0f0f0"/><rect width="1.768" height="1.768" transform="translate(170.542 69.049)" fill="#f0f0f0"/><rect width="1.768" height="1.768" transform="translate(170.542 72.012)" fill="#f0f0f0"/><rect width="1.768" height="1.768" transform="translate(173.35 27.557)" fill="#f0f0f0"/><rect width="1.768" height="1.768" transform="translate(173.35 30.521)" fill="#f0f0f0"/><rect width="1.768" height="1.768" transform="translate(173.35 33.484)" fill="#f0f0f0"/><rect width="1.768" height="1.768" transform="translate(173.35 42.376)" fill="#f0f0f0"/><rect width="1.768" height="1.768" transform="translate(173.35 45.339)" fill="#f0f0f0"/><rect width="1.768" height="1.768" transform="translate(173.35 48.303)" fill="#f0f0f0"/><rect width="1.768" height="1.768" transform="translate(173.35 51.267)" fill="#f0f0f0"/><rect width="1.768" height="1.768" transform="translate(173.35 54.23)" fill="#f0f0f0"/><rect width="1.768" height="1.768" transform="translate(173.35 57.194)" fill="#f0f0f0"/><rect width="1.768" height="1.768" transform="translate(173.35 60.158)" fill="#f0f0f0"/><rect width="1.768" height="1.768" transform="translate(173.35 69.049)" fill="#f0f0f0"/><rect width="1.768" height="1.768" transform="translate(173.35 72.012)" fill="#f0f0f0"/><rect width="1.768" height="1.768" transform="translate(173.35 74.976)" fill="#f0f0f0"/><rect width="1.768" height="1.768" transform="translate(202.778 9.775)" fill="#f0f0f0"/><rect width="1.768" height="1.768" transform="translate(202.778 12.739)" fill="#f0f0f0"/><rect width="1.768" height="1.768" transform="translate(202.778 15.702)" fill="#f0f0f0"/><rect width="1.768" height="1.768" transform="translate(202.778 18.666)" fill="#f0f0f0"/><rect width="1.768" height="1.768" transform="translate(202.778 21.63)" fill="#f0f0f0"/><rect width="1.768" height="1.768" transform="translate(202.778 24.593)" fill="#f0f0f0"/><rect width="1.768" height="1.768" transform="translate(202.778 27.557)" fill="#f0f0f0"/><rect width="1.768" height="1.768" transform="translate(202.778 30.521)" fill="#f0f0f0"/><rect width="1.768" height="1.768" transform="translate(202.778 33.484)" fill="#f0f0f0"/><rect width="1.768" height="1.768" transform="translate(202.778 36.448)" fill="#f0f0f0"/><rect width="1.768" height="1.768" transform="translate(202.778 39.412)" fill="#f0f0f0"/><rect width="1.768" height="1.768" transform="translate(202.778 42.376)" fill="#f0f0f0"/><rect width="1.768" height="1.768" transform="translate(202.778 45.339)" fill="#f0f0f0"/><rect width="1.768" height="1.768" transform="translate(202.778 48.303)" fill="#f0f0f0"/><rect width="1.768" height="1.768" transform="translate(202.778 51.267)" fill="#f0f0f0"/><rect width="1.768" height="1.768" transform="translate(202.778 54.23)" fill="#f0f0f0"/><rect width="1.768" height="1.768" transform="translate(202.778 57.194)" fill="#f0f0f0"/><rect width="1.768" height="1.768" transform="translate(202.778 60.158)" fill="#f0f0f0"/><rect width="1.768" height="1.768" transform="translate(202.778 63.121)" fill="#f0f0f0"/><rect width="1.768" height="1.768" transform="translate(202.778 66.085)" fill="#f0f0f0"/><rect width="1.768" height="1.768" transform="translate(202.778 69.049)" fill="#f0f0f0"/><rect width="1.768" height="1.768" transform="translate(202.778 72.012)" fill="#f0f0f0"/><rect width="1.768" height="1.768" transform="translate(202.778 74.976)" fill="#f0f0f0"/><rect width="1.768" height="1.768" transform="translate(205.586 9.775)" fill="#f0f0f0"/><rect width="1.768" height="1.768" transform="translate(205.586 12.739)" fill="#f0f0f0"/><rect width="1.768" height="1.768" transform="translate(205.586 15.702)" fill="#f0f0f0"/><rect width="1.768" height="1.768" transform="translate(205.586 18.666)" fill="#f0f0f0"/><rect width="1.768" height="1.768" transform="translate(205.586 21.63)" fill="#f0f0f0"/><rect width="1.768" height="1.768" transform="translate(205.586 24.593)" fill="#f0f0f0"/><rect width="1.768" height="1.768" transform="translate(205.586 27.557)" fill="#f0f0f0"/><rect width="1.768" height="1.768" transform="translate(205.586 30.521)" fill="#f0f0f0"/><rect width="1.768" height="1.768" transform="translate(205.586 33.484)" fill="#f0f0f0"/><rect width="1.768" height="1.768" transform="translate(205.586 36.448)" fill="#f0f0f0"/><rect width="1.768" height="1.768" transform="translate(205.586 39.412)" fill="#f0f0f0"/><rect width="1.768" height="1.768" transform="translate(205.586 42.376)" fill="#f0f0f0"/><rect width="1.768" height="1.768" transform="translate(205.586 45.339)" fill="#f0f0f0"/><rect width="1.768" height="1.768" transform="translate(205.586 48.303)" fill="#f0f0f0"/><rect width="1.768" height="1.768" transform="translate(205.586 51.267)" fill="#f0f0f0"/><rect width="1.768" height="1.768" transform="translate(205.586 54.23)" fill="#f0f0f0"/><rect width="1.768" height="1.768" transform="translate(205.586 57.194)" fill="#f0f0f0"/><rect width="1.768" height="1.768" transform="translate(205.586 60.158)" fill="#f0f0f0"/><rect width="1.768" height="1.768" transform="translate(205.586 63.121)" fill="#f0f0f0"/><rect width="1.768" height="1.768" transform="translate(208.394 9.775)" fill="#f0f0f0"/><rect width="1.768" height="1.768" transform="translate(208.394 12.739)" fill="#f0f0f0"/><rect width="1.768" height="1.768" transform="translate(208.394 15.702)" fill="#f0f0f0"/><rect width="1.768" height="1.768" transform="translate(208.394 18.666)" fill="#f0f0f0"/><rect width="1.768" height="1.768" transform="translate(208.394 21.63)" fill="#f0f0f0"/><rect width="1.768" height="1.768" transform="translate(208.394 24.593)" fill="#f0f0f0"/><rect width="1.768" height="1.768" transform="translate(208.394 27.557)" fill="#f0f0f0"/><rect width="1.768" height="1.768" transform="translate(208.394 30.521)" fill="#f0f0f0"/><rect width="1.768" height="1.768" transform="translate(208.394 33.484)" fill="#f0f0f0"/><rect width="1.768" height="1.768" transform="translate(208.394 36.448)" fill="#f0f0f0"/><rect width="1.768" height="1.768" transform="translate(208.394 39.412)" fill="#f0f0f0"/><rect width="1.768" height="1.768" transform="translate(208.394 42.376)" fill="#f0f0f0"/><rect width="1.768" height="1.768" transform="translate(208.394 45.339)" fill="#f0f0f0"/><rect width="1.768" height="1.768" transform="translate(208.394 48.303)" fill="#f0f0f0"/><rect width="1.768" height="1.768" transform="translate(208.394 51.267)" fill="#f0f0f0"/><rect width="1.768" height="1.768" transform="translate(208.394 54.23)" fill="#f0f0f0"/><rect width="1.768" height="1.768" transform="translate(208.394 57.194)" fill="#f0f0f0"/><rect width="1.768" height="1.768" transform="translate(208.394 60.158)" fill="#f0f0f0"/><rect width="1.768" height="1.768" transform="translate(208.394 63.121)" fill="#f0f0f0"/><rect width="1.768" height="1.768" transform="translate(211.202 9.775)" fill="#f0f0f0"/><rect width="1.768" height="1.768" transform="translate(211.202 12.739)" fill="#f0f0f0"/><rect width="1.768" height="1.768" transform="translate(211.202 15.702)" fill="#f0f0f0"/><rect width="1.768" height="1.768" transform="translate(211.202 18.666)" fill="#f0f0f0"/><rect width="1.768" height="1.768" transform="translate(211.202 21.63)" fill="#f0f0f0"/><rect width="1.768" height="1.768" transform="translate(211.202 24.593)" fill="#f0f0f0"/><rect width="1.768" height="1.768" transform="translate(211.202 27.557)" fill="#f0f0f0"/><rect width="1.768" height="1.768" transform="translate(211.202 30.521)" fill="#f0f0f0"/><rect width="1.768" height="1.768" transform="translate(211.202 33.484)" fill="#f0f0f0"/><rect width="1.768" height="1.768" transform="translate(211.202 36.448)" fill="#f0f0f0"/><rect width="1.768" height="1.768" transform="translate(211.202 39.412)" fill="#f0f0f0"/><rect width="1.768" height="1.768" transform="translate(211.202 42.376)" fill="#f0f0f0"/><rect width="1.768" height="1.768" transform="translate(211.202 45.339)" fill="#f0f0f0"/><rect width="1.768" height="1.768" transform="translate(211.202 48.303)" fill="#f0f0f0"/><rect width="1.768" height="1.768" transform="translate(211.202 51.267)" fill="#f0f0f0"/><rect width="1.768" height="1.768" transform="translate(214.009 9.775)" fill="#f0f0f0"/><rect width="1.768" height="1.768" transform="translate(214.009 12.739)" fill="#f0f0f0"/><rect width="1.768" height="1.768" transform="translate(214.009 15.702)" fill="#f0f0f0"/><rect width="1.768" height="1.768" transform="translate(214.009 18.666)" fill="#f0f0f0"/><rect width="1.768" height="1.768" transform="translate(214.009 21.63)" fill="#f0f0f0"/><rect width="1.768" height="1.768" transform="translate(214.009 24.593)" fill="#f0f0f0"/><rect width="1.768" height="1.768" transform="translate(214.009 27.557)" fill="#f0f0f0"/><rect width="1.768" height="1.768" transform="translate(214.009 30.521)" fill="#f0f0f0"/><rect width="1.768" height="1.768" transform="translate(214.009 33.484)" fill="#f0f0f0"/><rect width="1.768" height="1.768" transform="translate(214.009 36.448)" fill="#f0f0f0"/><rect width="1.768" height="1.768" transform="translate(214.009 39.412)" fill="#f0f0f0"/><rect width="1.768" height="1.768" transform="translate(214.009 42.376)" fill="#f0f0f0"/><rect width="1.768" height="1.768" transform="translate(214.009 45.339)" fill="#f0f0f0"/><rect width="1.768" height="1.768" transform="translate(216.817 9.775)" fill="#f0f0f0"/><rect width="1.768" height="1.768" transform="translate(216.817 12.739)" fill="#f0f0f0"/><rect width="1.768" height="1.768" transform="translate(216.817 15.702)" fill="#f0f0f0"/><rect width="1.768" height="1.768" transform="translate(216.817 18.666)" fill="#f0f0f0"/><rect width="1.768" height="1.768" transform="translate(216.817 21.63)" fill="#f0f0f0"/><rect width="1.768" height="1.768" transform="translate(216.817 24.593)" fill="#f0f0f0"/><rect width="1.768" height="1.768" transform="translate(216.817 27.557)" fill="#f0f0f0"/><rect width="1.768" height="1.768" transform="translate(216.817 30.521)" fill="#f0f0f0"/><rect width="1.768" height="1.768" transform="translate(216.817 33.484)" fill="#f0f0f0"/><rect width="1.768" height="1.768" transform="translate(216.817 36.448)" fill="#f0f0f0"/><rect width="1.768" height="1.768" transform="translate(216.817 39.412)" fill="#f0f0f0"/><rect width="1.768" height="1.768" transform="translate(216.817 42.376)" fill="#f0f0f0"/><rect width="1.768" height="1.768" transform="translate(10.503 31.405)" fill="#f0f0f0"/><rect width="1.768" height="1.768" transform="translate(10.503 34.368)" fill="#f0f0f0"/><rect width="1.768" height="1.768" transform="translate(10.503 37.332)" fill="#f0f0f0"/><rect width="1.768" height="1.768" transform="translate(10.503 40.296)" fill="#f0f0f0"/><rect width="1.768" height="1.768" transform="translate(10.503 43.259)" fill="#f0f0f0"/><rect width="1.768" height="1.768" transform="translate(10.503 46.223)" fill="#f0f0f0"/><rect width="1.768" height="1.768" transform="translate(10.503 49.187)" fill="#f0f0f0"/><rect width="1.768" height="1.768" transform="translate(10.503 52.15)" fill="#f0f0f0"/><rect width="1.768" height="1.768" transform="translate(10.503 55.114)" fill="#f0f0f0"/><rect width="1.768" height="1.768" transform="translate(10.503 58.078)" fill="#f0f0f0"/><rect width="1.768" height="1.768" transform="translate(10.503 61.042)" fill="#f0f0f0"/><rect width="1.768" height="1.768" transform="translate(10.503 64.005)" fill="#f0f0f0"/><rect width="1.768" height="1.768" transform="translate(10.503 66.969)" fill="#f0f0f0"/><rect width="1.768" height="1.768" transform="translate(10.503 69.933)" fill="#f0f0f0"/><rect width="1.768" height="1.768" transform="translate(10.503 72.896)" fill="#f0f0f0"/><rect width="1.768" height="1.768" transform="translate(10.503 75.86)" fill="#f0f0f0"/><rect width="1.768" height="1.768" transform="translate(10.503 78.824)" fill="#f0f0f0"/><rect width="1.768" height="1.768" transform="translate(10.503 81.787)" fill="#f0f0f0"/><rect width="1.768" height="1.768" transform="translate(10.503 84.751)" fill="#f0f0f0"/><rect width="1.768" height="1.768" transform="translate(10.503 87.715)" fill="#f0f0f0"/><rect width="1.768" height="1.768" transform="translate(13.311 31.405)" fill="#f0f0f0"/><rect width="1.768" height="1.768" transform="translate(13.311 34.368)" fill="#f0f0f0"/><rect width="1.768" height="1.768" transform="translate(13.311 37.332)" fill="#f0f0f0"/><rect width="1.768" height="1.768" transform="translate(13.311 40.296)" fill="#f0f0f0"/><rect width="1.768" height="1.768" transform="translate(13.311 43.259)" fill="#f0f0f0"/><rect width="1.768" height="1.768" transform="translate(13.311 46.223)" fill="#f0f0f0"/><rect width="1.768" height="1.768" transform="translate(13.311 49.187)" fill="#f0f0f0"/><rect width="1.768" height="1.768" transform="translate(13.311 52.15)" fill="#f0f0f0"/><rect width="1.768" height="1.768" transform="translate(13.311 55.114)" fill="#f0f0f0"/><rect width="1.768" height="1.768" transform="translate(13.311 58.078)" fill="#f0f0f0"/><rect width="1.768" height="1.768" transform="translate(13.311 61.042)" fill="#f0f0f0"/><rect width="1.768" height="1.768" transform="translate(13.311 64.005)" fill="#f0f0f0"/><rect width="1.768" height="1.768" transform="translate(13.311 66.969)" fill="#f0f0f0"/><rect width="1.768" height="1.768" transform="translate(13.311 69.933)" fill="#f0f0f0"/><rect width="1.768" height="1.768" transform="translate(13.311 72.896)" fill="#f0f0f0"/><rect width="1.768" height="1.768" transform="translate(13.311 75.86)" fill="#f0f0f0"/><rect width="1.768" height="1.768" transform="translate(13.311 78.824)" fill="#f0f0f0"/><rect width="1.768" height="1.768" transform="translate(13.311 81.787)" fill="#f0f0f0"/><rect width="1.768" height="1.768" transform="translate(16.118 31.405)" fill="#f0f0f0"/><rect width="1.768" height="1.768" transform="translate(16.118 34.368)" fill="#f0f0f0"/><rect width="1.768" height="1.768" transform="translate(16.118 37.332)" fill="#f0f0f0"/><rect width="1.768" height="1.768" transform="translate(16.118 40.296)" fill="#f0f0f0"/><rect width="1.768" height="1.768" transform="translate(16.118 43.259)" fill="#f0f0f0"/><rect width="1.768" height="1.768" transform="translate(16.118 46.223)" fill="#f0f0f0"/><rect width="1.768" height="1.768" transform="translate(16.118 49.187)" fill="#f0f0f0"/><rect width="1.768" height="1.768" transform="translate(16.118 52.15)" fill="#f0f0f0"/><rect width="1.768" height="1.768" transform="translate(16.118 55.114)" fill="#f0f0f0"/><rect width="1.768" height="1.768" transform="translate(16.118 58.078)" fill="#f0f0f0"/><rect width="1.768" height="1.768" transform="translate(16.118 61.042)" fill="#f0f0f0"/><rect width="1.768" height="1.768" transform="translate(16.118 64.005)" fill="#f0f0f0"/><rect width="1.768" height="1.768" transform="translate(16.118 66.969)" fill="#f0f0f0"/><rect width="1.768" height="1.768" transform="translate(16.118 69.933)" fill="#f0f0f0"/><rect width="1.768" height="1.768" transform="translate(16.118 72.896)" fill="#f0f0f0"/><rect width="1.768" height="1.768" transform="translate(16.118 75.86)" fill="#f0f0f0"/><rect width="1.768" height="1.768" transform="translate(16.118 78.824)" fill="#f0f0f0"/><rect width="1.768" height="1.768" transform="translate(16.118 81.787)" fill="#f0f0f0"/><rect width="1.768" height="1.768" transform="translate(0 53.034)" fill="#f0f0f0"/><rect width="1.768" height="1.768" transform="translate(0 55.998)" fill="#f0f0f0"/><rect width="1.768" height="1.768" transform="translate(0 58.962)" fill="#f0f0f0"/><rect width="1.768" height="1.768" transform="translate(0 61.925)" fill="#f0f0f0"/><rect width="1.768" height="1.768" transform="translate(0 64.889)" fill="#f0f0f0"/><rect width="1.768" height="1.768" transform="translate(0 67.853)" fill="#f0f0f0"/><rect width="1.768" height="1.768" transform="translate(0 70.817)" fill="#f0f0f0"/><rect width="1.768" height="1.768" transform="translate(0 73.78)" fill="#f0f0f0"/><rect width="1.768" height="1.768" transform="translate(0 76.744)" fill="#f0f0f0"/><rect width="1.768" height="1.768" transform="translate(0 79.707)" fill="#f0f0f0"/><rect width="1.768" height="1.768" transform="translate(0 82.671)" fill="#f0f0f0"/><rect width="1.768" height="1.768" transform="translate(0 85.635)" fill="#f0f0f0"/><rect width="1.768" height="1.768" transform="translate(0 88.599)" fill="#f0f0f0"/><rect width="1.768" height="1.768" transform="translate(2.808 53.034)" fill="#f0f0f0"/><rect width="1.768" height="1.768" transform="translate(2.808 55.998)" fill="#f0f0f0"/><rect width="1.768" height="1.768" transform="translate(2.808 58.962)" fill="#f0f0f0"/><rect width="1.768" height="1.768" transform="translate(2.808 61.925)" fill="#f0f0f0"/><rect width="1.768" height="1.768" transform="translate(2.808 64.889)" fill="#f0f0f0"/><rect width="1.768" height="1.768" transform="translate(2.808 67.853)" fill="#f0f0f0"/><rect width="1.768" height="1.768" transform="translate(2.808 70.817)" fill="#f0f0f0"/><rect width="1.768" height="1.768" transform="translate(2.808 73.78)" fill="#f0f0f0"/><rect width="1.768" height="1.768" transform="translate(2.808 76.744)" fill="#f0f0f0"/><rect width="1.768" height="1.768" transform="translate(2.808 79.707)" fill="#f0f0f0"/><rect width="1.768" height="1.768" transform="translate(2.808 82.671)" fill="#f0f0f0"/><rect width="1.768" height="1.768" transform="translate(2.808 85.635)" fill="#f0f0f0"/><rect width="1.768" height="1.768" transform="translate(2.808 88.599)" fill="#f0f0f0"/><rect width="1.768" height="1.768" transform="translate(5.615 53.034)" fill="#f0f0f0"/><rect width="1.768" height="1.768" transform="translate(5.615 55.998)" fill="#f0f0f0"/><rect width="1.768" height="1.768" transform="translate(5.615 58.962)" fill="#f0f0f0"/><rect width="1.768" height="1.768" transform="translate(5.615 61.925)" fill="#f0f0f0"/><rect width="1.768" height="1.768" transform="translate(5.615 64.889)" fill="#f0f0f0"/><rect width="1.768" height="1.768" transform="translate(5.615 67.853)" fill="#f0f0f0"/><rect width="1.768" height="1.768" transform="translate(5.615 70.817)" fill="#f0f0f0"/><rect width="1.768" height="1.768" transform="translate(5.615 73.78)" fill="#f0f0f0"/><rect width="1.768" height="1.768" transform="translate(5.615 76.744)" fill="#f0f0f0"/><rect width="1.768" height="1.768" transform="translate(5.615 79.707)" fill="#f0f0f0"/><rect width="1.768" height="1.768" transform="translate(5.615 82.671)" fill="#f0f0f0"/><rect width="1.768" height="1.768" transform="translate(5.615 85.635)" fill="#f0f0f0"/><rect width="1.768" height="1.768" transform="translate(5.615 88.599)" fill="#f0f0f0"/><rect width="1.768" height="1.768" transform="translate(5.615 91.562)" fill="#f0f0f0"/><rect width="1.768" height="1.768" transform="translate(21.214 53.918)" fill="#f0f0f0"/><rect width="1.768" height="1.768" transform="translate(21.214 56.882)" fill="#f0f0f0"/><rect width="1.768" height="1.768" transform="translate(21.214 59.846)" fill="#f0f0f0"/><rect width="1.768" height="1.768" transform="translate(21.214 62.809)" fill="#f0f0f0"/><rect width="1.768" height="1.768" transform="translate(21.214 65.773)" fill="#f0f0f0"/><rect width="1.768" height="1.768" transform="translate(21.214 68.737)" fill="#f0f0f0"/><rect width="1.768" height="1.768" transform="translate(21.214 71.7)" fill="#f0f0f0"/><rect width="1.768" height="1.768" transform="translate(21.214 74.664)" fill="#f0f0f0"/><rect width="1.768" height="1.768" transform="translate(21.214 77.628)" fill="#f0f0f0"/><rect width="1.768" height="1.768" transform="translate(21.214 80.591)" fill="#f0f0f0"/><rect width="1.768" height="1.768" transform="translate(21.214 89.483)" fill="#f0f0f0"/><rect width="1.768" height="1.768" transform="translate(24.021 53.918)" fill="#f0f0f0"/><rect width="1.768" height="1.768" transform="translate(24.021 56.882)" fill="#f0f0f0"/><rect width="1.768" height="1.768" transform="translate(24.021 59.846)" fill="#f0f0f0"/><rect width="1.768" height="1.768" transform="translate(24.021 62.809)" fill="#f0f0f0"/><rect width="1.768" height="1.768" transform="translate(24.021 65.773)" fill="#f0f0f0"/><rect width="1.768" height="1.768" transform="translate(24.021 68.737)" fill="#f0f0f0"/><rect width="1.768" height="1.768" transform="translate(24.021 71.7)" fill="#f0f0f0"/><rect width="1.768" height="1.768" transform="translate(24.021 74.664)" fill="#f0f0f0"/><rect width="1.768" height="1.768" transform="translate(24.021 77.628)" fill="#f0f0f0"/><rect width="1.768" height="1.768" transform="translate(24.021 86.519)" fill="#f0f0f0"/><rect width="1.768" height="1.768" transform="translate(24.021 89.483)" fill="#f0f0f0"/><rect width="1.768" height="1.768" transform="translate(26.829 53.918)" fill="#f0f0f0"/><rect width="1.768" height="1.768" transform="translate(26.829 56.882)" fill="#f0f0f0"/><rect width="1.768" height="1.768" transform="translate(26.829 59.846)" fill="#f0f0f0"/><rect width="1.768" height="1.768" transform="translate(26.829 62.809)" fill="#f0f0f0"/><rect width="1.768" height="1.768" transform="translate(26.829 65.773)" fill="#f0f0f0"/><rect width="1.768" height="1.768" transform="translate(26.829 68.737)" fill="#f0f0f0"/><rect width="1.768" height="1.768" transform="translate(26.829 71.7)" fill="#f0f0f0"/><rect width="1.768" height="1.768" transform="translate(26.829 74.664)" fill="#f0f0f0"/><rect width="1.768" height="1.768" transform="translate(26.829 83.555)" fill="#f0f0f0"/><rect width="1.768" height="1.768" transform="translate(26.829 86.519)" fill="#f0f0f0"/><rect width="1.768" height="1.768" transform="translate(26.829 89.483)" fill="#f0f0f0"/><rect width="1.768" height="1.768" transform="translate(52.931 8.891)" fill="#f0f0f0"/><rect width="1.768" height="1.768" transform="translate(52.931 11.855)" fill="#f0f0f0"/><rect width="1.768" height="1.768" transform="translate(52.931 14.818)" fill="#f0f0f0"/><rect width="1.768" height="1.768" transform="translate(52.931 17.782)" fill="#f0f0f0"/><rect width="1.768" height="1.768" transform="translate(52.931 20.746)" fill="#f0f0f0"/><rect width="1.768" height="1.768" transform="translate(52.931 23.709)" fill="#f0f0f0"/><rect width="1.768" height="1.768" transform="translate(52.931 26.673)" fill="#f0f0f0"/><rect width="1.768" height="1.768" transform="translate(52.931 29.637)" fill="#f0f0f0"/><rect width="1.768" height="1.768" transform="translate(52.931 32.601)" fill="#f0f0f0"/><rect width="1.768" height="1.768" transform="translate(52.931 35.564)" fill="#f0f0f0"/><rect width="1.768" height="1.768" transform="translate(52.931 38.528)" fill="#f0f0f0"/><rect width="1.768" height="1.768" transform="translate(52.931 41.492)" fill="#f0f0f0"/><rect width="1.768" height="1.768" transform="translate(52.931 44.455)" fill="#f0f0f0"/><rect width="1.768" height="1.768" transform="translate(52.931 47.419)" fill="#f0f0f0"/><rect width="1.768" height="1.768" transform="translate(52.931 50.383)" fill="#f0f0f0"/><rect width="1.768" height="1.768" transform="translate(52.931 53.346)" fill="#f0f0f0"/><rect width="1.768" height="1.768" transform="translate(52.931 56.31)" fill="#f0f0f0"/><rect width="1.768" height="1.768" transform="translate(52.931 62.237)" fill="#f0f0f0"/><rect width="1.768" height="1.768" transform="translate(52.931 65.201)" fill="#f0f0f0"/><rect width="1.768" height="1.768" transform="translate(52.931 68.165)" fill="#f0f0f0"/><rect width="1.768" height="1.768" transform="translate(52.931 71.128)" fill="#f0f0f0"/><rect width="1.768" height="1.768" transform="translate(52.931 74.092)" fill="#f0f0f0"/><rect width="1.768" height="1.768" transform="translate(55.738 8.891)" fill="#f0f0f0"/><rect width="1.768" height="1.768" transform="translate(55.738 11.855)" fill="#f0f0f0"/><rect width="1.768" height="1.768" transform="translate(55.738 14.818)" fill="#f0f0f0"/><rect width="1.768" height="1.768" transform="translate(55.738 17.782)" fill="#f0f0f0"/><rect width="1.768" height="1.768" transform="translate(55.738 20.746)" fill="#f0f0f0"/><rect width="1.768" height="1.768" transform="translate(55.738 23.709)" fill="#f0f0f0"/><rect width="1.768" height="1.768" transform="translate(55.738 26.673)" fill="#f0f0f0"/><rect width="1.768" height="1.768" transform="translate(55.738 29.637)" fill="#f0f0f0"/><rect width="1.768" height="1.768" transform="translate(55.738 32.601)" fill="#f0f0f0"/><rect width="1.768" height="1.768" transform="translate(55.738 35.564)" fill="#f0f0f0"/><rect width="1.768" height="1.768" transform="translate(55.738 38.528)" fill="#f0f0f0"/><rect width="1.768" height="1.768" transform="translate(55.738 41.492)" fill="#f0f0f0"/><rect width="1.768" height="1.768" transform="translate(55.738 44.455)" fill="#f0f0f0"/><rect width="1.768" height="1.768" transform="translate(55.738 47.419)" fill="#f0f0f0"/><rect width="1.768" height="1.768" transform="translate(55.738 50.383)" fill="#f0f0f0"/><rect width="1.768" height="1.768" transform="translate(55.738 53.346)" fill="#f0f0f0"/><rect width="1.768" height="1.768" transform="translate(55.738 71.128)" fill="#f0f0f0"/><rect width="1.768" height="1.768" transform="translate(55.738 74.092)" fill="#f0f0f0"/><rect width="1.768" height="1.768" transform="translate(58.546 8.891)" fill="#f0f0f0"/><rect width="1.768" height="1.768" transform="translate(58.546 11.855)" fill="#f0f0f0"/><rect width="1.768" height="1.768" transform="translate(58.546 14.818)" fill="#f0f0f0"/><rect width="1.768" height="1.768" transform="translate(58.546 17.782)" fill="#f0f0f0"/><rect width="1.768" height="1.768" transform="translate(58.546 20.746)" fill="#f0f0f0"/><rect width="1.768" height="1.768" transform="translate(58.546 23.709)" fill="#f0f0f0"/><rect width="1.768" height="1.768" transform="translate(58.546 26.673)" fill="#f0f0f0"/><rect width="1.768" height="1.768" transform="translate(58.546 29.637)" fill="#f0f0f0"/><rect width="1.768" height="1.768" transform="translate(58.546 32.601)" fill="#f0f0f0"/><rect width="1.768" height="1.768" transform="translate(58.546 35.564)" fill="#f0f0f0"/><rect width="1.768" height="1.768" transform="translate(58.546 38.528)" fill="#f0f0f0"/><rect width="1.768" height="1.768" transform="translate(58.546 41.492)" fill="#f0f0f0"/><rect width="1.768" height="1.768" transform="translate(58.546 44.455)" fill="#f0f0f0"/><rect width="1.768" height="1.768" transform="translate(58.546 47.419)" fill="#f0f0f0"/><rect width="1.768" height="1.768" transform="translate(58.546 50.383)" fill="#f0f0f0"/><rect width="1.768" height="1.768" transform="translate(58.546 53.346)" fill="#f0f0f0"/><rect width="1.768" height="1.768" transform="translate(58.546 59.274)" fill="#f0f0f0"/><rect width="1.768" height="1.768" transform="translate(58.546 62.237)" fill="#f0f0f0"/><rect width="1.768" height="1.768" transform="translate(58.546 65.201)" fill="#f0f0f0"/><rect width="1.768" height="1.768" transform="translate(58.546 68.165)" fill="#f0f0f0"/><rect width="1.768" height="1.768" transform="translate(58.546 74.092)" fill="#f0f0f0"/><rect width="1.768" height="1.768" transform="translate(42.74 46.223)" fill="#f0f0f0"/><rect width="1.768" height="1.768" transform="translate(42.74 49.187)" fill="#f0f0f0"/><rect width="1.768" height="1.768" transform="translate(42.74 52.15)" fill="#f0f0f0"/><rect width="1.768" height="1.768" transform="translate(42.74 55.114)" fill="#f0f0f0"/><rect width="1.768" height="1.768" transform="translate(42.74 58.078)" fill="#f0f0f0"/><rect width="1.768" height="1.768" transform="translate(42.74 61.042)" fill="#f0f0f0"/><rect width="1.768" height="1.768" transform="translate(42.74 64.005)" fill="#f0f0f0"/><rect width="1.768" height="1.768" transform="translate(42.74 69.933)" fill="#f0f0f0"/><rect width="1.768" height="1.768" transform="translate(42.74 72.896)" fill="#f0f0f0"/><rect width="1.768" height="1.768" transform="translate(42.74 75.86)" fill="#f0f0f0"/><rect width="1.768" height="1.768" transform="translate(42.74 78.824)" fill="#f0f0f0"/><rect width="1.768" height="1.768" transform="translate(42.74 81.787)" fill="#f0f0f0"/><rect width="1.768" height="1.768" transform="translate(42.74 84.751)" fill="#f0f0f0"/><rect width="1.768" height="1.768" transform="translate(42.74 87.715)" fill="#f0f0f0"/><rect width="1.768" height="1.768" transform="translate(42.74 90.678)" fill="#f0f0f0"/><rect width="1.768" height="1.768" transform="translate(45.547 46.223)" fill="#f0f0f0"/><rect width="1.768" height="1.768" transform="translate(45.547 49.187)" fill="#f0f0f0"/><rect width="1.768" height="1.768" transform="translate(45.547 52.15)" fill="#f0f0f0"/><rect width="1.768" height="1.768" transform="translate(45.547 55.114)" fill="#f0f0f0"/><rect width="1.768" height="1.768" transform="translate(45.547 58.078)" fill="#f0f0f0"/><rect width="1.768" height="1.768" transform="translate(45.547 61.042)" fill="#f0f0f0"/><rect width="1.768" height="1.768" transform="translate(45.547 69.933)" fill="#f0f0f0"/><rect width="1.768" height="1.768" transform="translate(45.547 72.896)" fill="#f0f0f0"/><rect width="1.768" height="1.768" transform="translate(45.547 75.86)" fill="#f0f0f0"/><rect width="1.768" height="1.768" transform="translate(45.547 78.824)" fill="#f0f0f0"/><rect width="1.768" height="1.768" transform="translate(45.547 81.787)" fill="#f0f0f0"/><rect width="1.768" height="1.768" transform="translate(45.547 84.751)" fill="#f0f0f0"/><rect width="1.768" height="1.768" transform="translate(45.547 87.715)" fill="#f0f0f0"/><rect width="1.768" height="1.768" transform="translate(45.547 90.678)" fill="#f0f0f0"/><rect width="1.768" height="1.768" transform="translate(48.355 46.223)" fill="#f0f0f0"/><rect width="1.768" height="1.768" transform="translate(48.355 49.187)" fill="#f0f0f0"/><rect width="1.768" height="1.768" transform="translate(48.355 52.15)" fill="#f0f0f0"/><rect width="1.768" height="1.768" transform="translate(48.355 55.114)" fill="#f0f0f0"/><rect width="1.768" height="1.768" transform="translate(48.355 58.078)" fill="#f0f0f0"/><rect width="1.768" height="1.768" transform="translate(48.355 61.042)" fill="#f0f0f0"/><rect width="1.768" height="1.768" transform="translate(48.355 66.969)" fill="#f0f0f0"/><rect width="1.768" height="1.768" transform="translate(48.355 69.933)" fill="#f0f0f0"/><rect width="1.768" height="1.768" transform="translate(48.355 72.896)" fill="#f0f0f0"/><rect width="1.768" height="1.768" transform="translate(48.355 75.86)" fill="#f0f0f0"/><rect width="1.768" height="1.768" transform="translate(48.355 78.824)" fill="#f0f0f0"/><rect width="1.768" height="1.768" transform="translate(48.355 81.787)" fill="#f0f0f0"/><rect width="1.768" height="1.768" transform="translate(48.355 84.751)" fill="#f0f0f0"/><rect width="1.768" height="1.768" transform="translate(48.355 87.715)" fill="#f0f0f0"/><rect width="1.768" height="1.768" transform="translate(48.355 90.678)" fill="#f0f0f0"/><rect width="1.768" height="1.768" transform="translate(107.525 29.637)" fill="#f0f0f0"/><rect width="1.768" height="1.768" transform="translate(107.525 32.601)" fill="#f0f0f0"/><rect width="1.768" height="1.768" transform="translate(107.525 35.564)" fill="#f0f0f0"/><rect width="1.768" height="1.768" transform="translate(107.525 38.528)" fill="#f0f0f0"/><rect width="1.768" height="1.768" transform="translate(107.525 41.492)" fill="#f0f0f0"/><rect width="1.768" height="1.768" transform="translate(107.525 44.455)" fill="#f0f0f0"/><rect width="1.768" height="1.768" transform="translate(107.525 47.419)" fill="#f0f0f0"/><rect width="1.768" height="1.768" transform="translate(107.525 50.383)" fill="#f0f0f0"/><rect width="1.768" height="1.768" transform="translate(107.525 53.346)" fill="#f0f0f0"/><rect width="1.768" height="1.768" transform="translate(107.525 56.31)" fill="#f0f0f0"/><rect width="1.768" height="1.768" transform="translate(107.525 59.274)" fill="#f0f0f0"/><rect width="1.768" height="1.768" transform="translate(107.525 62.237)" fill="#f0f0f0"/><rect width="1.768" height="1.768" transform="translate(107.525 65.201)" fill="#f0f0f0"/><rect width="1.768" height="1.768" transform="translate(107.525 71.128)" fill="#f0f0f0"/><rect width="1.768" height="1.768" transform="translate(107.525 74.092)" fill="#f0f0f0"/><rect width="1.768" height="1.768" transform="translate(107.525 77.056)" fill="#f0f0f0"/><rect width="1.768" height="1.768" transform="translate(107.525 80.019)" fill="#f0f0f0"/><rect width="1.768" height="1.768" transform="translate(107.525 85.947)" fill="#f0f0f0"/><rect width="1.768" height="1.768" transform="translate(107.525 88.911)" fill="#f0f0f0"/><rect width="1.768" height="1.768" transform="translate(107.525 91.874)" fill="#f0f0f0"/><rect width="1.768" height="1.768" transform="translate(110.332 29.637)" fill="#f0f0f0"/><rect width="1.768" height="1.768" transform="translate(110.332 32.601)" fill="#f0f0f0"/><rect width="1.768" height="1.768" transform="translate(110.332 35.564)" fill="#f0f0f0"/><rect width="1.768" height="1.768" transform="translate(110.332 38.528)" fill="#f0f0f0"/><rect width="1.768" height="1.768" transform="translate(110.332 41.492)" fill="#f0f0f0"/><rect width="1.768" height="1.768" transform="translate(110.332 44.455)" fill="#f0f0f0"/><rect width="1.768" height="1.768" transform="translate(110.332 47.419)" fill="#f0f0f0"/><rect width="1.768" height="1.768" transform="translate(110.332 50.383)" fill="#f0f0f0"/><rect width="1.768" height="1.768" transform="translate(110.332 53.346)" fill="#f0f0f0"/><rect width="1.768" height="1.768" transform="translate(110.332 56.31)" fill="#f0f0f0"/><rect width="1.768" height="1.768" transform="translate(110.332 59.274)" fill="#f0f0f0"/><rect width="1.768" height="1.768" transform="translate(110.332 62.237)" fill="#f0f0f0"/><rect width="1.768" height="1.768" transform="translate(110.332 65.201)" fill="#f0f0f0"/><rect width="1.768" height="1.768" transform="translate(110.332 74.092)" fill="#f0f0f0"/><rect width="1.768" height="1.768" transform="translate(110.332 77.056)" fill="#f0f0f0"/><rect width="1.768" height="1.768" transform="translate(110.332 82.983)" fill="#f0f0f0"/><rect width="1.768" height="1.768" transform="translate(110.332 85.947)" fill="#f0f0f0"/><rect width="1.768" height="1.768" transform="translate(110.332 88.911)" fill="#f0f0f0"/><rect width="1.768" height="1.768" transform="translate(110.332 91.874)" fill="#f0f0f0"/><rect width="1.768" height="1.768" transform="translate(113.14 29.637)" fill="#f0f0f0"/><rect width="1.768" height="1.768" transform="translate(113.14 32.601)" fill="#f0f0f0"/><rect width="1.768" height="1.768" transform="translate(113.14 35.564)" fill="#f0f0f0"/><rect width="1.768" height="1.768" transform="translate(113.14 38.528)" fill="#f0f0f0"/><rect width="1.768" height="1.768" transform="translate(113.14 41.492)" fill="#f0f0f0"/><rect width="1.768" height="1.768" transform="translate(113.14 44.455)" fill="#f0f0f0"/><rect width="1.768" height="1.768" transform="translate(113.14 47.419)" fill="#f0f0f0"/><rect width="1.768" height="1.768" transform="translate(113.14 50.383)" fill="#f0f0f0"/><rect width="1.768" height="1.768" transform="translate(113.14 53.346)" fill="#f0f0f0"/><rect width="1.768" height="1.768" transform="translate(113.14 56.31)" fill="#f0f0f0"/><rect width="1.768" height="1.768" transform="translate(113.14 59.274)" fill="#f0f0f0"/><rect width="1.768" height="1.768" transform="translate(113.14 62.237)" fill="#f0f0f0"/><rect width="1.768" height="1.768" transform="translate(113.14 65.201)" fill="#f0f0f0"/><rect width="1.768" height="1.768" transform="translate(113.14 68.165)" fill="#f0f0f0"/><rect width="1.768" height="1.768" transform="translate(113.14 74.092)" fill="#f0f0f0"/><rect width="1.768" height="1.768" transform="translate(113.14 80.019)" fill="#f0f0f0"/><rect width="1.768" height="1.768" transform="translate(113.14 82.983)" fill="#f0f0f0"/><rect width="1.768" height="1.768" transform="translate(113.14 85.947)" fill="#f0f0f0"/><rect width="1.768" height="1.768" transform="translate(113.14 88.911)" fill="#f0f0f0"/><rect width="1.768" height="1.768" transform="translate(113.14 91.874)" fill="#f0f0f0"/><rect width="1.768" height="1.768" transform="translate(96.086 46.535)" fill="#f0f0f0"/><rect width="1.768" height="1.768" transform="translate(96.086 49.499)" fill="#f0f0f0"/><rect width="1.768" height="1.768" transform="translate(96.086 52.463)" fill="#f0f0f0"/><rect width="1.768" height="1.768" transform="translate(96.086 55.426)" fill="#f0f0f0"/><rect width="1.768" height="1.768" transform="translate(96.086 58.39)" fill="#f0f0f0"/><rect width="1.768" height="1.768" transform="translate(96.086 61.354)" fill="#f0f0f0"/><rect width="1.768" height="1.768" transform="translate(96.086 70.245)" fill="#f0f0f0"/><rect width="1.768" height="1.768" transform="translate(96.086 73.208)" fill="#f0f0f0"/><rect width="1.768" height="1.768" transform="translate(96.086 76.172)" fill="#f0f0f0"/><rect width="1.768" height="1.768" transform="translate(96.086 79.136)" fill="#f0f0f0"/><rect width="1.768" height="1.768" transform="translate(96.086 82.099)" fill="#f0f0f0"/><rect width="1.768" height="1.768" transform="translate(96.086 85.063)" fill="#f0f0f0"/><rect width="1.768" height="1.768" transform="translate(96.086 88.027)" fill="#f0f0f0"/><rect width="1.768" height="1.768" transform="translate(98.893 46.535)" fill="#f0f0f0"/><rect width="1.768" height="1.768" transform="translate(98.893 49.499)" fill="#f0f0f0"/><rect width="1.768" height="1.768" transform="translate(98.893 52.463)" fill="#f0f0f0"/><rect width="1.768" height="1.768" transform="translate(98.893 55.426)" fill="#f0f0f0"/><rect width="1.768" height="1.768" transform="translate(98.893 58.39)" fill="#f0f0f0"/><rect width="1.768" height="1.768" transform="translate(98.893 61.354)" fill="#f0f0f0"/><rect width="1.768" height="1.768" transform="translate(98.893 70.245)" fill="#f0f0f0"/><rect width="1.768" height="1.768" transform="translate(98.893 73.208)" fill="#f0f0f0"/><rect width="1.768" height="1.768" transform="translate(98.893 76.172)" fill="#f0f0f0"/><rect width="1.768" height="1.768" transform="translate(98.893 79.136)" fill="#f0f0f0"/><rect width="1.768" height="1.768" transform="translate(98.893 82.099)" fill="#f0f0f0"/><rect width="1.768" height="1.768" transform="translate(98.893 85.063)" fill="#f0f0f0"/><rect width="1.768" height="1.768" transform="translate(98.893 90.99)" fill="#f0f0f0"/><rect width="1.768" height="1.768" transform="translate(192.172 33.484)" fill="#f0f0f0"/><rect width="1.768" height="1.768" transform="translate(192.172 36.448)" fill="#f0f0f0"/><rect width="1.768" height="1.768" transform="translate(192.172 39.412)" fill="#f0f0f0"/><rect width="1.768" height="1.768" transform="translate(192.172 42.376)" fill="#f0f0f0"/><rect width="1.768" height="1.768" transform="translate(192.172 45.339)" fill="#f0f0f0"/><rect width="1.768" height="1.768" transform="translate(192.172 48.303)" fill="#f0f0f0"/><rect width="1.768" height="1.768" transform="translate(192.172 51.267)" fill="#f0f0f0"/><rect width="1.768" height="1.768" transform="translate(192.172 54.23)" fill="#f0f0f0"/><rect width="1.768" height="1.768" transform="translate(192.172 57.194)" fill="#f0f0f0"/><rect width="1.768" height="1.768" transform="translate(192.172 60.158)" fill="#f0f0f0"/><rect width="1.768" height="1.768" transform="translate(192.172 63.121)" fill="#f0f0f0"/><rect width="1.768" height="1.768" transform="translate(192.172 69.049)" fill="#f0f0f0"/><rect width="1.768" height="1.768" transform="translate(192.172 72.012)" fill="#f0f0f0"/><rect width="1.768" height="1.768" transform="translate(192.172 74.976)" fill="#f0f0f0"/><rect width="1.768" height="1.768" transform="translate(192.172 77.94)" fill="#f0f0f0"/><rect width="1.768" height="1.768" transform="translate(192.172 80.903)" fill="#f0f0f0"/><rect width="1.768" height="1.768" transform="translate(192.172 83.867)" fill="#f0f0f0"/><rect width="1.768" height="1.768" transform="translate(192.172 86.831)" fill="#f0f0f0"/><rect width="1.768" height="1.768" transform="translate(192.172 89.794)" fill="#f0f0f0"/><rect width="1.768" height="1.768" transform="translate(194.979 33.484)" fill="#f0f0f0"/><rect width="1.768" height="1.768" transform="translate(194.979 36.448)" fill="#f0f0f0"/><rect width="1.768" height="1.768" transform="translate(194.979 39.412)" fill="#f0f0f0"/><rect width="1.768" height="1.768" transform="translate(194.979 42.376)" fill="#f0f0f0"/><rect width="1.768" height="1.768" transform="translate(194.979 45.339)" fill="#f0f0f0"/><rect width="1.768" height="1.768" transform="translate(194.979 48.303)" fill="#f0f0f0"/><rect width="1.768" height="1.768" transform="translate(194.979 51.267)" fill="#f0f0f0"/><rect width="1.768" height="1.768" transform="translate(194.979 54.23)" fill="#f0f0f0"/><rect width="1.768" height="1.768" transform="translate(194.979 57.194)" fill="#f0f0f0"/><rect width="1.768" height="1.768" transform="translate(194.979 60.158)" fill="#f0f0f0"/><rect width="1.768" height="1.768" transform="translate(194.979 63.121)" fill="#f0f0f0"/><rect width="1.768" height="1.768" transform="translate(194.979 66.085)" fill="#f0f0f0"/><rect width="1.768" height="1.768" transform="translate(194.979 69.049)" fill="#f0f0f0"/><rect width="1.768" height="1.768" transform="translate(194.979 72.012)" fill="#f0f0f0"/><rect width="1.768" height="1.768" transform="translate(194.979 74.976)" fill="#f0f0f0"/><rect width="1.768" height="1.768" transform="translate(194.979 77.94)" fill="#f0f0f0"/><rect width="1.768" height="1.768" transform="translate(194.979 80.903)" fill="#f0f0f0"/><rect width="1.768" height="1.768" transform="translate(194.979 83.867)" fill="#f0f0f0"/><rect width="1.768" height="1.768" transform="translate(194.979 86.831)" fill="#f0f0f0"/><rect width="1.768" height="1.768" transform="translate(194.979 89.794)" fill="#f0f0f0"/><rect width="1.768" height="1.768" transform="translate(178.341 45.027)" fill="#f0f0f0"/><rect width="1.768" height="1.768" transform="translate(178.341 47.991)" fill="#f0f0f0"/><rect width="1.768" height="1.768" transform="translate(178.341 50.955)" fill="#f0f0f0"/><rect width="1.768" height="1.768" transform="translate(178.341 53.918)" fill="#f0f0f0"/><rect width="1.768" height="1.768" transform="translate(178.341 56.882)" fill="#f0f0f0"/><rect width="1.768" height="1.768" transform="translate(178.341 59.846)" fill="#f0f0f0"/><rect width="1.768" height="1.768" transform="translate(178.341 62.809)" fill="#f0f0f0"/><rect width="1.768" height="1.768" transform="translate(178.341 65.773)" fill="#f0f0f0"/><rect width="1.768" height="1.768" transform="translate(178.341 68.737)" fill="#f0f0f0"/><rect width="1.768" height="1.768" transform="translate(178.341 71.7)" fill="#f0f0f0"/><rect width="1.768" height="1.768" transform="translate(181.149 45.027)" fill="#f0f0f0"/><rect width="1.768" height="1.768" transform="translate(181.149 47.991)" fill="#f0f0f0"/><rect width="1.768" height="1.768" transform="translate(181.149 50.955)" fill="#f0f0f0"/><rect width="1.768" height="1.768" transform="translate(181.149 53.918)" fill="#f0f0f0"/><rect width="1.768" height="1.768" transform="translate(181.149 56.882)" fill="#f0f0f0"/><rect width="1.768" height="1.768" transform="translate(181.149 59.846)" fill="#f0f0f0"/><rect width="1.768" height="1.768" transform="translate(181.149 62.809)" fill="#f0f0f0"/><rect width="1.768" height="1.768" transform="translate(181.149 65.773)" fill="#f0f0f0"/><rect width="1.768" height="1.768" transform="translate(181.149 68.737)" fill="#f0f0f0"/></g></g><g transform="translate(871.895 406.971)"><g transform="translate(136.321)"><path d="M1204.989,540.634s2.928-9.808-2.994-11.761-9.436-6.54-9.238-11.727-6.036-10.236-10.711-5.374-4.052-3.738-10.286-5.828-11.518,2.981-9.812,7.615-4.444,7.528-11.81,3.588-15.471,3.228-13.912,8.839.282,6.234-4.379,4.364-13,3.429-10.076,10.286S1204.989,540.634,1204.989,540.634Z" transform="translate(-1121.164 -505.459)" fill="#007cff"/><path d="M1204.989,540.634s2.928-9.808-2.994-11.761-9.436-6.54-9.238-11.727-6.036-10.236-10.711-5.374-4.052-3.738-10.286-5.828-11.518,2.981-9.812,7.615-4.444,7.528-11.81,3.588-15.471,3.228-13.912,8.839.282,6.234-4.379,4.364-13,3.429-10.076,10.286S1204.989,540.634,1204.989,540.634Z" transform="translate(-1121.164 -505.459)" fill="#fff" opacity="0.3" style="isolation:isolate"/></g><g transform="translate(0 7.753)"><path d="M965.974,546.253c3.117-3.117.312-8.416-2.805-9.039s-6.25-6.108-6.4-9.6-5.758-14.232-14.486-7.6-6.075.977-12.389-.887-10.3,3.5-7.526,7.519c0,0-6.342-1.59-8.955,4.333s0,9.6,0,9.6-11.928-.353-10.855,7.024S965.974,546.253,965.974,546.253Z" transform="translate(-902.492 -517.896)" fill="#007cff"/><path d="M965.974,546.253c3.117-3.117.312-8.416-2.805-9.039s-6.25-6.108-6.4-9.6-5.758-14.232-14.486-7.6-6.075.977-12.389-.887-10.3,3.5-7.526,7.519c0,0-6.342-1.59-8.955,4.333s0,9.6,0,9.6-11.928-.353-10.855,7.024S965.974,546.253,965.974,546.253Z" transform="translate(-902.492 -517.896)" fill="#fff" opacity="0.3" style="isolation:isolate"/></g></g><g transform="translate(952.036 301.366)"><path d="M1031.046,472.383v-129.7l43.407-5.23,19.076,3.634,6.234,1.185,13.385,2.55,8.921-1.758,6.234-1.228,29.362-5.779v129.7l-29.362,5.785-6.234,1.228-8.921,1.758-38.695-7.369-2.518.305-7.512.9Z" transform="translate(-1031.046 -336.057)" fill="#007cff"/><path d="M1031.046,472.383v-129.7l43.407-5.23,19.076,3.634,6.234,1.185,13.385,2.55,8.921-1.758,6.234-1.228,29.362-5.779v129.7l-29.362,5.785-6.234,1.228-8.921,1.758-38.695-7.369-2.518.305-7.512.9Z" transform="translate(-1031.046 -336.057)" opacity="0.2" style="isolation:isolate"/><path d="M1122.069,411.741V402.1a1.533,1.533,0,0,0-1.827-1.509l-89.2,17.156v-6.352l35.391-6.8a1.542,1.542,0,0,0,1.191-1.92l-6.8-24.743a1.529,1.529,0,0,0-1.771-1.1l-28.009,5.4v-6.352l32.492-6.265a1.539,1.539,0,0,1,1.77,1.1l8.522,31.008a1.539,1.539,0,0,0,1.771,1.1l16.682-3.211a1.536,1.536,0,0,0,1.246-1.509V361.682a1.531,1.531,0,0,0-1.259-1.509l-20.086-3.7a1.6,1.6,0,0,0-.517-.006l-40.621,6.39v-6.309l40.7-6.4a1.442,1.442,0,0,1,.517.006l19.45,3.578a1.532,1.532,0,0,0,1.814-1.509v-8.092l6.234,1.184v51a1.543,1.543,0,0,0,1.833,1.515l19.226-3.7a1.53,1.53,0,0,0,1.247-1.509V346.1l6.234-1.228v45.951a1.541,1.541,0,0,0,1.833,1.509l12.961-2.494a1.536,1.536,0,0,0,1.247-1.509V356.52a1.529,1.529,0,0,1,1.228-1.5l12.094-2.5v6.365l-5.86,1.209a1.541,1.541,0,0,0-1.228,1.509v24.942a1.536,1.536,0,0,0,1.827,1.509l5.261-1.01v6.346l-28.115,5.4a1.543,1.543,0,0,0-1.247,1.515V443.8a1.54,1.54,0,0,0,1.8,1.515l27.567-4.582v6.321l-28.072,4.663a1.546,1.546,0,0,0-1.29,1.521V474.58l-6.234,1.228V421.186a1.534,1.534,0,0,0-1.8-1.515l-23.122,3.984a1.545,1.545,0,0,0-1.1.8L1071.935,470.5l-7.512.9,9.214-17.6a1.538,1.538,0,0,0-1.6-2.232l-40.995,6.24v-6.3l46.817-7.125a1.547,1.547,0,0,0,1.135-.81l12.96-24.743a1.527,1.527,0,0,1,1.1-.8l27.741-4.782A1.538,1.538,0,0,0,1122.069,411.741Z" transform="translate(-1031.046 -339.096)" fill="#007cff"/><path d="M1113.138,471.352l-38.1-7.256-.476-.09-.482.059-2.515.3-7.512.9-29.888,3.6V345.448l40.183-4.842,18.6,3.544,6.232,1.185,13.384,2.55.593.113.593-.117,8.921-1.758,6.233-1.228,25.643-5.047V463.193l-26.848,5.29-6.234,1.228-8.328,1.641m.01,3.175,8.921-1.758,6.234-1.228,29.362-5.785v-129.7l-29.362,5.779-6.234,1.228-8.921,1.758-13.385-2.55-6.234-1.184-19.076-3.634-43.407,5.23v129.7l33.377-4.015,7.512-.9,2.518-.305,38.695,7.369Z" transform="translate(-1031.046 -336.057)" fill="#1a2e35"/><path d="M1113.138,471.352l-38.1-7.256-.476-.09-.482.059-2.515.3-7.512.9-29.888,3.6V345.448l40.183-4.842,18.6,3.544,6.232,1.185,13.384,2.55.593.113.593-.117,8.921-1.758,6.233-1.228,25.643-5.047V463.193l-26.848,5.29-6.234,1.228-8.328,1.641m.01,3.175,8.921-1.758,6.234-1.228,29.362-5.785v-129.7l-29.362,5.779-6.234,1.228-8.921,1.758-13.385-2.55-6.234-1.184-19.076-3.634-43.407,5.23v129.7l33.377-4.015,7.512-.9,2.518-.305,38.695,7.369Z" transform="translate(-1031.046 -336.057)" fill="#fff" opacity="0.1" style="isolation:isolate"/><path d="M1139.37,475.371v-129.7l-38.694-7.369V468Z" transform="translate(-1057.269 -336.901)" opacity="0.1" style="isolation:isolate"/><g transform="translate(46.92 53.198)" opacity="0.5" style="isolation:isolate"><g transform="translate(0.55 0.55)"><path d="M1170.712,422.274a.624.624,0,0,1,.11,1.237l-16.333,2.929v18.64a.624.624,0,0,1-.517.615l-30.531,5.271-15.073,28.589a.623.623,0,1,1-1.1-.582l15.215-28.861a.624.624,0,0,1,.446-.323l30.316-5.234V425.919a.623.623,0,0,1,.513-.614l16.845-3.021A.613.613,0,0,1,1170.712,422.274Z" transform="translate(-1107.194 -422.274)" fill="#fff"/></g><g transform="translate(0 56.367)"><path d="M1106.311,512.985a1.174,1.174,0,1,1,1.174,1.173A1.174,1.174,0,0,1,1106.311,512.985Z" transform="translate(-1106.311 -511.811)" fill="#fff"/></g><g transform="translate(62.894)"><path d="M1207.2,422.566a1.173,1.173,0,1,1,1.174,1.173A1.174,1.174,0,0,1,1207.2,422.566Z" transform="translate(-1207.2 -421.392)" fill="#fff"/></g></g><g transform="translate(36.703 90.296)"><path d="M1101.918,482.96h0a7.028,7.028,0,0,0-9.938,0h0a7.028,7.028,0,0,0,0,9.938l4.969,4.969,4.969-4.969A7.028,7.028,0,0,0,1101.918,482.96Zm-6.99,6.99a2.857,2.857,0,1,1,4.041,0A2.857,2.857,0,0,1,1094.928,489.949Z" transform="translate(-1089.921 -480.901)" fill="#fff"/><path d="M1106.136,482.961a7,7,0,0,0-5.014-2.056v4.172a2.853,2.853,0,1,1,0,5.706v7.041l.045.045,4.969-4.969A7.028,7.028,0,0,0,1106.136,482.961Z" transform="translate(-1094.14 -480.903)" opacity="0.2" style="isolation:isolate"/></g><g transform="translate(103.961 32.761)"><path d="M1209.806,390.668h0a7.027,7.027,0,0,0-9.937,0h0a7.026,7.026,0,0,0,0,9.938l4.969,4.969,4.968-4.969A7.027,7.027,0,0,0,1209.806,390.668Zm-6.989,6.99a2.857,2.857,0,1,1,4.04,0A2.857,2.857,0,0,1,1202.817,397.657Z" transform="translate(-1197.81 -388.609)" fill="#fff"/><path d="M1214.024,390.669a7,7,0,0,0-5.014-2.056v4.172a2.853,2.853,0,1,1,0,5.706v7.041l.045.045,4.969-4.969A7.027,7.027,0,0,0,1214.024,390.669Z" transform="translate(-1202.028 -388.611)" opacity="0.2" style="isolation:isolate"/></g></g><g transform="translate(881.231 296.394)"><path d="M924.695,585.463l3.448,3.481,8.351-7.7-3.453-3.486Z" transform="translate(-920.189 -422.11)" fill="#fcc1bb"/><path d="M926.3,593.205l-4.189-4.23a.43.43,0,0,0-.533-.06L917.8,591.3a.723.723,0,0,0-.217,1,.732.732,0,0,0,.1.125c1.378,1.346,2.449,2.26,4.15,3.979,1.049,1.058,4.1,4.362,5.548,5.824s3.08.222,2.621-.507c-2.073-3.264-3.264-6.086-3.343-7.709A1.184,1.184,0,0,0,926.3,593.205Z" transform="translate(-917.467 -426.287)" fill="#1a2e35"/><path d="M935.474,577.766l3.452,3.486-4.308,3.969-3.452-3.486Z" transform="translate(-922.626 -422.113)" opacity="0.2" style="isolation:isolate"/><path d="M931.235,596.88a.118.118,0,0,1,.009-.132.105.105,0,0,1,.119-.039c.2.045,2.008.486,2.19,1.068a.348.348,0,0,1-.09.37.686.686,0,0,1-.614.266,1.467,1.467,0,0,1-.84-.494A5.811,5.811,0,0,1,931.235,596.88Zm.351.125a2.382,2.382,0,0,0,1.291,1.179.479.479,0,0,0,.406-.183c.062-.07.067-.127.045-.15a.278.278,0,0,0-.083-.129A4.756,4.756,0,0,0,931.587,597.006Z" transform="translate(-922.646 -429.245)" fill="#007cff"/><path d="M931.179,596.381a.125.125,0,0,1,.036-.115c.053-.044,1.137-.951,1.864-.872a.624.624,0,0,1,.453.244.381.381,0,0,1,.046.481c-.3.435-1.752.5-2.3.333l-.039-.04A.11.11,0,0,1,931.179,596.381Zm1.908-.784a2.748,2.748,0,0,0-1.5.667c.625.092,1.644-.04,1.826-.308.018-.026.071-.1-.034-.2l-.039-.04A.394.394,0,0,0,933.088,595.6Z" transform="translate(-922.63 -428.75)" fill="#007cff"/><path d="M1013.013,387.337s7.789,12.446,9.27,14.036,11.242-14.747,11.982-16.923,10.5-2.234,11.171-1.959.218,4.975-1.654,5.955-8.3.72-8.3.72-5.658,18.233-12.317,19.16-13.914-15.555-13.914-15.555Z" transform="translate(-952.033 -348.529)" fill="#fcc1bb"/><g transform="translate(53.895 32.612)"><path d="M1005.3,380.4c4.885.873,11.3,14.067,11.3,14.067l-5.649,7.4-7.026-6.659Z" transform="translate(-1003.92 -380.396)" fill="#007cff"/><path d="M1016.594,394.466l-5.648,7.394-.187-.181-6.839-6.477.087-.948L1005.3,380.4C1010.185,381.269,1016.594,394.466,1016.594,394.466Z" transform="translate(-1003.92 -380.396)" fill="#fff" opacity="0.4" style="isolation:isolate"/></g><path d="M1010.759,407.147l-6.839-6.477.087-.948,2.376-4.806S1010.727,399.143,1010.759,407.147Z" transform="translate(-950.025 -353.252)" opacity="0.2" style="isolation:isolate"/><g transform="translate(10.164 75.756)"><path d="M977.5,449.6s-11.563,43.184-19.482,60.2S938.937,535.7,938.937,535.7l-5.166-6.37s14.523-20.659,17.67-33.409,4.2-39.139,4.2-39.139Z" transform="translate(-933.771 -449.602)" fill="#1a2e35"/><path d="M977.5,449.6s-11.563,43.184-19.482,60.2S938.937,535.7,938.937,535.7l-5.166-6.37s14.523-20.659,17.67-33.409,4.2-39.139,4.2-39.139Z" transform="translate(-933.771 -449.602)" opacity="0.2" style="isolation:isolate"/></g><path d="M1007.448,597.971l4.648-1.551-3.21-10.9-4.654,1.553Z" transform="translate(-950.143 -425.034)" fill="#fcc1bb"/><path d="M1014,601.753l-5.647,1.885a.431.431,0,0,0-.29.452l.465,4.445a.723.723,0,0,0,.8.636.677.677,0,0,0,.156-.035c1.817-.639,3.111-1.2,5.4-1.961,1.413-.472,5.726-1.747,7.678-2.4s1.562-2.664.7-2.575c-3.844.416-6.9.234-8.392-.413A1.184,1.184,0,0,0,1014,601.753Z" transform="translate(-951.586 -431.12)" fill="#1a2e35"/><path d="M1004.236,587.086l4.654-1.553,1.652,5.62-4.654,1.553Z" transform="translate(-950.144 -425.038)" opacity="0.2" style="isolation:isolate"/><path d="M1018.373,601.638a.119.119,0,0,1-.115-.067.106.106,0,0,1,.018-.124c.13-.161,1.324-1.585,1.927-1.491a.35.35,0,0,1,.292.244.687.687,0,0,1-.034.668,1.463,1.463,0,0,1-.814.535A5.866,5.866,0,0,1,1018.373,601.638Zm.268-.26a2.381,2.381,0,0,0,1.628-.635.479.479,0,0,0,.016-.446c-.036-.087-.085-.116-.114-.106a.262.262,0,0,0-.151.017A4.769,4.769,0,0,0,1018.641,601.377Z" transform="translate(-955.42 -430.467)" fill="#007cff"/><path d="M1018.273,601.226a.126.126,0,0,1-.087-.083,3.5,3.5,0,0,1,.042-2.059.625.625,0,0,1,.42-.3.38.38,0,0,1,.451.171c.258.459-.328,1.792-.72,2.212l-.053.018A.11.11,0,0,1,1018.273,601.226Zm.142-2.059a2.752,2.752,0,0,0-.065,1.638c.358-.521.691-1.492.532-1.774-.016-.028-.056-.107-.2-.059l-.054.018A.4.4,0,0,0,1018.415,599.167Z" transform="translate(-955.342 -430.022)" fill="#007cff"/><path d="M961.377,445.052a52.24,52.24,0,0,0,.508,24.564c2.688,9.648,25.632,68.053,25.632,68.053l7.979-2.3-16.873-69.484s6.31-8.93,8.815-18Z" transform="translate(-933.543 -372.133)" fill="#1a2e35"/><g transform="translate(50.726 160.848)"><path d="M1011.369,589.419l-10.029,3.347-2.5-3.438,11.844-3.228Z" transform="translate(-998.837 -586.099)" fill="#007cff"/><path d="M1011.369,589.419l-10.029,3.347-2.5-3.438,11.844-3.228Z" transform="translate(-998.837 -586.099)" fill="#fff" opacity="0.3" style="isolation:isolate"/></g><g transform="translate(7.564 153.533)"><path d="M937.04,585.642l-7.44-7.512,1.976-3.766,8.136,9.193Z" transform="translate(-929.6 -574.364)" fill="#007cff"/><path d="M937.04,585.642l-7.44-7.512,1.976-3.766,8.136,9.193Z" transform="translate(-929.6 -574.364)" fill="#fff" opacity="0.3" style="isolation:isolate"/></g><path d="M991.906,384.17" transform="translate(-945.501 -349.205)" fill="#fff"/><g transform="translate(25.261 30.149)"><path d="M963.639,376.665a110.541,110.541,0,0,1,.214,16.425c-.212,3.82-.583,7.433-.993,10.7-.965,7.655-4.871,21.86-4.871,21.86l20.143,5.3,1.824-8.9,1.876,8.9,4-2.459c6.23-19.782,6.391-39.735,5.636-45.47A4.987,4.987,0,0,0,988,378.9c-.918-.285-1.983-.6-3.112-.87-.442-.08-.876-.2-1.322-.289a96.546,96.546,0,0,0-11.083-1.207c-.7-.044-1.42-.065-2.115-.077A63.9,63.9,0,0,0,963.639,376.665Z" transform="translate(-957.989 -376.445)" fill="#007cff"/><path d="M985.831,428.488l-4,2.462-1.876-8.9-1.827,8.9-20.142-5.3s3.909-14.2,4.869-21.856c.1-.779.193-1.577.287-2.394.293-2.612.548-5.4.711-8.31.1-1.6.162-3.2.187-4.794a110.044,110.044,0,0,0-.405-11.633,64.378,64.378,0,0,1,6.732-.2c.7.012,1.416.031,2.114.075a95.75,95.75,0,0,1,11.084,1.209c.449.087.879.206,1.322.287,1.128.274,2.194.586,3.111.873a4.968,4.968,0,0,1,3.466,4.108C992.227,388.752,992.065,408.707,985.831,428.488Z" transform="translate(-957.989 -376.445)" fill="#fff" opacity="0.4" style="isolation:isolate"/></g><path d="M983.7,356.72c.307,3.646.3,10.251-2.457,12.359a11.141,11.141,0,0,0,8.172,4.326c3.075.267,3.464-1.86,2.911-3.119-3.875-1.381-3.454-4.32-2.457-7.016Z" transform="translate(-941.485 -338.867)" fill="#fcc1bb"/><path d="M989.038,361.012l3.649,3.868a12.367,12.367,0,0,0-.557,1.933c-1.5-.383-3.391-2.276-3.387-3.884A5.3,5.3,0,0,1,989.038,361.012Z" transform="translate(-944.309 -340.483)" opacity="0.2" style="isolation:isolate"/><g transform="translate(34.414)"><path d="M985.32,344.162c-.239,4.853-.609,7.688,1.567,10.416,3.261,4.128,9.458,2.562,11.151-2.131,1.508-4.226,1.625-11.464-2.891-13.9a6.64,6.64,0,0,0-9.826,5.612Z" transform="translate(-977.365 -331.716)" fill="#fcc1bb"/><path d="M996.935,351.088c-.069.387.128.733.389.76s.5-.271.544-.662-.134-.734-.389-.761S996.982,350.69,996.935,351.088Z" transform="translate(-981.803 -336.496)" fill="#1a2e35"/><path d="M1004.062,351.861c-.07.387.134.734.389.761s.5-.272.543-.663-.134-.733-.389-.76S1004.1,351.488,1004.062,351.861Z" transform="translate(-984.487 -336.787)" fill="#1a2e35"/><path d="M1001.521,352.326a14.069,14.069,0,0,0,1.513,3.566,2.291,2.291,0,0,1-1.927.148Z" transform="translate(-983.379 -337.212)" fill="#eb827e"/><path d="M994.882,348.248a.242.242,0,0,0,.233-.066,1.871,1.871,0,0,1,1.561-.612.231.231,0,1,0,.082-.454h0a2.3,2.3,0,0,0-1.977.747.23.23,0,0,0,0,.326l0,0A.379.379,0,0,0,994.882,348.248Z" transform="translate(-980.971 -335.244)" fill="#1a2e35"/><path d="M996.3,359.494h0a3.559,3.559,0,0,1-2.563-2.057.125.125,0,0,1,.073-.158.118.118,0,0,1,.155.064l0,.009a3.409,3.409,0,0,0,2.388,1.9.119.119,0,0,1,.1.137l0,.013a.118.118,0,0,1-.137.1Z" transform="translate(-980.602 -339.074)" fill="#1a2e35"/><path d="M1006.476,349.076a.221.221,0,0,0,.135.024.23.23,0,0,0,.143-.292v0a2.3,2.3,0,0,0-1.521-1.477.231.231,0,0,0-.278.171h0a.236.236,0,0,0,.172.277h0a1.873,1.873,0,0,1,1.186,1.189A.236.236,0,0,0,1006.476,349.076Z" transform="translate(-984.827 -335.327)" fill="#1a2e35"/><path d="M984.145,347.252s3.075-3.971,2.29-7.627a6.974,6.974,0,0,1,4.779,1.116,7.025,7.025,0,0,0-.107-1.688s4.336.3,6.489,3.072a7.347,7.347,0,0,0-1.572-4.443,3.291,3.291,0,0,1,1.9.222s-3.484-3.67-9.862-2.707-8.792,4.434-8.122,10.093,3.47,7.255,3.47,7.255-.667-4.331-.272-5.228S984.145,347.252,984.145,347.252Z" transform="translate(-975.368 -330.701)" fill="#1a2e35"/><path d="M980.86,354.336a4.619,4.619,0,0,0,2.645,2.338c1.536.517,2.387-.838,2.035-2.332-.325-1.325-1.509-3.235-3.086-3.089A2.062,2.062,0,0,0,980.86,354.336Z" transform="translate(-975.663 -336.805)" fill="#fcc1bb"/><path d="M992.086,332.676a25.819,25.819,0,0,0-4.437,1.139,19.512,19.512,0,0,0-2.994,1.34c-.006,0-.006.006-.012.007-4.7,2.585-5.894,5.929-5.894,5.929s-.146-.428-.351-1.09-.465-1.52-.71-2.416v-.006c-.463-1.682-.85-3.444-.627-3.945,2-4.506,8.346-5.773,9.2-5.521a27.926,27.926,0,0,1,4.009,3.024c.765.632,1.406,1.184,1.677,1.423C992.04,332.635,992.086,332.676,992.086,332.676Z" transform="translate(-974.299 -328.082)" fill="#007cff"/><path d="M992.366,334.405a18.242,18.242,0,0,0-4.3,1.255c-.877.349-1.867.794-2.994,1.34-.006,0-.006.006-.012.007-3.563,1.732-5.351,3.471-6.245,4.84-.2-.65-.465-1.52-.71-2.416v-.006c1.755-1.76,6.442-5.845,12.582-6.442C991.453,333.613,992.094,334.166,992.366,334.405Z" transform="translate(-974.717 -329.927)" fill="#fff" opacity="0.6" style="isolation:isolate"/><path d="M977.245,344.55s-4.274,3-4.544,1.4c-.694-4.1,10.651-13.083,21.729-12.876,9.093.169-.691,2.947-.691,2.947C990.12,334.772,976.961,340.491,977.245,344.55Z" transform="translate(-972.67 -329.961)" fill="#007cff"/><path d="M977.245,344.55s-4.274,3-4.544,1.4c-.694-4.1,10.651-13.083,21.729-12.876,9.093.169-.691,2.947-.691,2.947C990.12,334.772,976.961,340.491,977.245,344.55Z" transform="translate(-972.67 -329.961)" opacity="0.3" style="isolation:isolate"/></g><g transform="translate(37.11 27.812)"><path d="M980.191,372.7a26.182,26.182,0,0,0,7.238,4.629s1.208-.93,1.363-3.766l3.257,3.063-.724,5.131-2.166-2.389-1.118,14.911s.7-9.981-1.749-14.427l-1.638,2.527s-5.92-2.047-7.657-7.343Z" transform="translate(-976.996 -372.696)" fill="#007cff"/><path d="M992.049,376.623l-.723,5.131-2.163-2.388-1.122,14.912s.7-9.981-1.746-14.432l-1.64,2.531s-5.922-2.051-7.655-7.344l3.192-2.338a26.137,26.137,0,0,0,7.238,4.632l.012-.012c.137-.112,1.209-1.091,1.353-3.753Z" transform="translate(-976.997 -372.696)" fill="#fff" opacity="0.6" style="isolation:isolate"/></g><path d="M994.565,385.613c-.181-3.759-.835-7.761-.835-7.761l.012-.012c.137-.112,1.209-1.091,1.353-3.753a3.725,3.725,0,0,1-.37,3.245Z" transform="translate(-946.188 -345.407)" opacity="0.2" style="isolation:isolate"/><path d="M948.287,460.982a6.783,6.783,0,0,1,.825,3.206c.079,2.055-.336,6.074-.825,6.576-.287.3-5.084-1.048-5.55-2.24-.212-.544.617-6.063,1.6-7.543S948.287,460.982,948.287,460.982Z" transform="translate(-926.971 -377.884)" fill="#fcc1bb"/><path d="M972.8,396.865s-2.257,8.728-6.54,11.695c.293-2.612.548-5.4.711-8.31.1-1.6.162-3.2.187-4.794Z" transform="translate(-935.842 -353.455)" opacity="0.2" style="isolation:isolate"/><path d="M953.222,394.914s-5.793,10.2-6.843,13.648-1.049,27.786-1.049,27.786h3.946s2.466-24.169,3.946-27.293,6.768-10.327,6.768-10.327Z" transform="translate(-927.96 -353.251)" fill="#fcc1bb"/><g transform="translate(22.141 30.297)"><path d="M962.745,376.691c-2.653-.425-9.762,15.109-9.762,15.109l7.5,4.7s4.886-4.555,7.316-6.707S967.059,377.381,962.745,376.691Z" transform="translate(-952.983 -376.682)" fill="#007cff"/><path d="M962.745,376.691c-2.653-.425-9.762,15.109-9.762,15.109l7.5,4.7s4.886-4.555,7.316-6.707S967.059,377.381,962.745,376.691Z" transform="translate(-952.983 -376.682)" fill="#fff" opacity="0.4" style="isolation:isolate"/></g><g transform="translate(21.192 44.337)"><path d="M952.41,399.2l8.76,5.777-1.94,1.745-7.769-5.056Z" transform="translate(-951.462 -399.203)" fill="#007cff"/><path d="M952.41,399.2l8.76,5.777-1.94,1.745-7.769-5.056Z" transform="translate(-951.462 -399.203)" fill="#fff" opacity="0.6" style="isolation:isolate"/></g><g transform="translate(59.451 45.469)"><path d="M1012.833,409.1l6.695-8.08,1.524,2.118-5.87,7.173Z" transform="translate(-1012.833 -401.018)" fill="#007cff"/><path d="M1012.833,409.1l6.695-8.08,1.524,2.118-5.87,7.173Z" transform="translate(-1012.833 -401.018)" fill="#fff" opacity="0.6" style="isolation:isolate"/></g><g transform="translate(84.532 24.819)"><path d="M1053.9,377.643l6.606-9.162a.389.389,0,0,1,.384-.156l4.316.756a.392.392,0,0,1,.247.618l-6.755,9.185a.393.393,0,0,1-.388.153l-4.166-.779A.391.391,0,0,1,1053.9,377.643Z" transform="translate(-1053.351 -368.054)" fill="#1a2e35"/><path d="M1053.139,377.219l6.606-9.162a.393.393,0,0,1,.385-.156l4.315.756a.392.392,0,0,1,.248.618l-6.756,9.185a.391.391,0,0,1-.387.153l-4.166-.779A.392.392,0,0,1,1053.139,377.219Z" transform="translate(-1053.065 -367.895)" fill="#1a2e35"/><path d="M1060.3,368.642l4.131.74-6.6,8.878-4.007-.74Z" transform="translate(-1053.351 -368.176)" fill="#fff"/></g></g><g transform="translate(956.686 270.143)" opacity="0"><path d="M1072.046,302.742a16.77,16.77,0,1,0-18.953,16.624l.815,8.806,1.542-8.665A16.768,16.768,0,0,0,1072.046,302.742Z" transform="translate(-1038.506 -285.972)" fill="#007cff"/><path d="M1072.046,302.742a16.77,16.77,0,1,0-18.953,16.624l.815,8.806,1.542-8.665A16.768,16.768,0,0,0,1072.046,302.742Z" transform="translate(-1038.506 -285.972)" fill="#fff" opacity="0.8" style="isolation:isolate"/><g transform="translate(8.591 9.933)"><path d="M1068.645,308.743l-16.359-6.837,2.685,6.837-2.685,6.837Z" transform="translate(-1052.286 -301.906)" fill="#007cff"/><path d="M1054.971,312.873h13.674l-16.359,6.837Z" transform="translate(-1052.286 -306.036)" opacity="0.3" style="isolation:isolate"/></g></g></g></svg>