<svg xmlns="http://www.w3.org/2000/svg" width="32" height="32" viewBox="0 0 32 32"><g transform="translate(-296 636)"><rect width="32" height="32" transform="translate(296 -636)" fill="#fff" opacity="0"/><g transform="translate(301.878 -633.168)"><path d="M343.233,557.09a9.732,9.732,0,0,1-1.087,4.189,32.7,32.7,0,0,1-3.871,6.1c-1.622,2.1-3.294,4.157-4.942,6.235-.147.185-.283.218-.441.015-2.09-2.682-4.212-5.34-6.26-8.052a25.349,25.349,0,0,1-2.872-4.966c-2.5-5.595,1.375-11.947,7.464-13.013a10.155,10.155,0,0,1,11.371,6.173A9.11,9.11,0,0,1,343.233,557.09Zm-13.618.586a3.5,3.5,0,1,0,3.51-3.348A3.439,3.439,0,0,0,329.615,557.676Z" transform="translate(-322.99 -547.431)" fill="#8173b7"/></g></g></svg>