<svg xmlns="http://www.w3.org/2000/svg" width="247.717" height="181.452" viewBox="0 0 247.717 181.452"><g transform="translate(-414.302 -144.45)" opacity="0.85"><g transform="translate(477.978 161.902)"><g transform="translate(14.402 18.142)"><path d="M459.689,208.245a3.013,3.013,0,0,0-.17-1.22c-.5-1.336-1.919-2.131-2.527-3.422-.9-1.9.367-4.277,2.22-5.275a7.367,7.367,0,0,1,6.864,0c1.853,1,3.117,3.37,2.22,5.275-.607,1.291-2.028,2.086-2.526,3.422a3,3,0,0,0-.171,1.22h18.9V189.19a3.37,3.37,0,0,1,2.37-.08c1.337.5,2.132,1.92,3.423,2.527,1.9.9,4.276-.367,5.274-2.22a7.36,7.36,0,0,0,0-6.864c-1-1.853-3.37-3.116-5.274-2.22-1.291.607-2.086,2.029-3.423,2.527a3.371,3.371,0,0,1-2.37-.081V165.834l-42.264-.189v42.411Z" transform="translate(-442.238 -165.645)" fill="#1a2e35"/><path d="M459.689,208.245a3.013,3.013,0,0,0-.17-1.22c-.5-1.336-1.919-2.131-2.527-3.422-.9-1.9.367-4.277,2.22-5.275a7.367,7.367,0,0,1,6.864,0c1.853,1,3.117,3.37,2.22,5.275-.607,1.291-2.028,2.086-2.526,3.422a3,3,0,0,0-.171,1.22h18.9V189.19a3.37,3.37,0,0,1,2.37-.08c1.337.5,2.132,1.92,3.423,2.527,1.9.9,4.276-.367,5.274-2.22a7.36,7.36,0,0,0,0-6.864c-1-1.853-3.37-3.116-5.274-2.22-1.291.607-2.086,2.029-3.423,2.527a3.371,3.371,0,0,1-2.37-.081V165.834l-42.264-.189v42.411Z" transform="translate(-442.238 -165.645)" opacity="0.4"/><path d="M461.05,208.245a3.01,3.01,0,0,0-.17-1.22c-.5-1.336-1.919-2.131-2.527-3.422-.9-1.9.367-4.277,2.22-5.275a7.367,7.367,0,0,1,6.864,0c1.853,1,3.117,3.37,2.22,5.275-.607,1.291-2.028,2.086-2.526,3.422a3,3,0,0,0-.171,1.22h18.9V189.19a3.37,3.37,0,0,1,2.371-.08c1.337.5,2.132,1.92,3.423,2.527,1.9.9,4.276-.367,5.274-2.22a7.367,7.367,0,0,0,0-6.864c-1-1.853-3.37-3.116-5.274-2.22-1.291.607-2.086,2.029-3.423,2.527a3.371,3.371,0,0,1-2.371-.081V165.834l-42.264-.189v42.411Z" transform="translate(-442.318 -165.645)" fill="#1a2e35"/></g><path d="M432.177,186.782s-3.086,10.935-1.112,12.837,8.882.635,8.529.493,1.762-13.29,1.9-12.813S432.177,186.782,432.177,186.782Z" transform="translate(-427.143 -148.741)" fill="#cd7a63"/><g transform="translate(8.319 136.283)"><g transform="translate(0.545)"><path d="M436.365,291.62l-.009,9.486,4.4.343,1.548-8.911C440.294,291.082,438.311,290.735,436.365,291.62Z" transform="translate(-436.356 -291.137)" fill="#cd7a63"/></g><g transform="translate(0.043 7.843)"><path d="M436.285,300.6c-.434,1.251-.462,6.373-.462,6.373l9.336.011c.554-1.853-.3-3.117-1.392-3.285a3.03,3.03,0,0,1-1.42-1.047c0-.058-.573-2.9-.926-3.04,0,0-.243-.3-.45,0a4.979,4.979,0,0,0-.387,1.257C439.126,298.914,437.7,299.176,436.285,300.6Z" transform="translate(-435.823 -299.469)" fill="#1a2e35"/></g><g transform="translate(0.207 9.902)"><path d="M436.182,302.219a3.118,3.118,0,0,1,3.106.439c.161.122.314-.164.154-.285a3.382,3.382,0,0,0-3.342-.472c-.183.073-.1.393.082.318Z" transform="translate(-435.997 -301.656)" fill="#fff"/></g><g transform="translate(0 14.272)"><path d="M445.128,306.64h0l-9.2-.011a.166.166,0,0,1,0-.33h0l9.2.011a.166.166,0,0,1,0,.33Z" transform="translate(-435.777 -306.298)" fill="#fff"/></g></g><g transform="translate(27.166 135.045)"><g transform="translate(0.697)"><path d="M456.548,290.306l-.011,10.706,4.238.349,2.084-10.02A5.914,5.914,0,0,0,456.548,290.306Z" transform="translate(-456.537 -289.823)" fill="#cd7a63"/></g><g transform="translate(0.043 9.103)"><path d="M456.305,300.627c-.434,1.252-.462,6.373-.462,6.373l10.726.013a2.263,2.263,0,0,0-1.694-3.118,6.985,6.985,0,0,1-2.508-1.214c0-.059-.574-2.9-.926-3.041,0,0-.244-.3-.451,0a5,5,0,0,0-.386,1.257C459.146,298.938,457.718,299.2,456.305,300.627Z" transform="translate(-455.843 -299.493)" fill="#1a2e35"/></g><g transform="translate(0.207 11.162)"><path d="M456.2,302.243a3.118,3.118,0,0,1,3.107.439c.161.122.314-.165.154-.285a3.384,3.384,0,0,0-3.342-.473c-.183.073-.1.393.081.319Z" transform="translate(-456.017 -301.68)" fill="#fff"/></g><g transform="translate(0 15.532)"><path d="M466.567,306.665h0l-10.617-.012a.166.166,0,0,1,0-.33h0l10.617.012a.166.166,0,0,1,0,.33Z" transform="translate(-455.797 -306.322)" fill="#fff"/></g></g><g transform="translate(6.107 64.663)"><g transform="translate(0 0.937)"><path d="M434.367,291.9l9.385.5c2.106-6.823,4.187-31.292,4.4-38.638.257-8.778,3.4-30.807.621-35.391s-15.349-.934-15.349-.934,1.567,26.824.94,35.378C433.824,260.225,432.985,282.019,434.367,291.9Z" transform="translate(-433.427 -216.056)" fill="#1a2e35"/></g><g transform="translate(0.185 74.599)"><path d="M444.777,294.508l-.61,3.136L434,297.313l-.373-3.011Z" transform="translate(-433.623 -294.302)" fill="#007cff"/></g><g transform="translate(9.774)"><path d="M453.719,291.838l9.3.5c1.132-7.554,5.683-35.065,5.31-40.335-.457-6.437-5.845-34.3-7.85-36.449s-16.675,3.42-16.675,3.42,6.03,23.961,10.784,34.323C455.58,255.45,452.956,282.65,453.719,291.838Z" transform="translate(-443.809 -215.06)" fill="#1a2e35"/></g><g transform="translate(19.03 74.241)"><path d="M464.664,294.72l-.475,2.9-10.34-.663-.208-3.036Z" transform="translate(-453.641 -293.921)" fill="#007cff"/></g><path d="M449.572,240.989l-2.732-9.132-4.848-1.582,3.79,2.938,3.048,16.645Z" transform="translate(-433.929 -215.952)" opacity="0.3"/></g><g transform="translate(12.642)"><g transform="translate(13.412 6.349)"><path d="M455.6,155.7c0,.394.172.692.421.733s.477-.291.5-.692-.166-.691-.415-.732S455.646,155.32,455.6,155.7Z" transform="translate(-454.673 -153.228)" fill="#1a2e35"/><path d="M455.706,155.685a13.785,13.785,0,0,0,.934,3.7,2.268,2.268,0,0,1-1.894-.153Z" transform="translate(-454.623 -153.268)" fill="#b94d3c"/><path d="M454.828,154.325a.231.231,0,0,1-.145-.035.228.228,0,0,1,0-.322l0,0a2.269,2.269,0,0,1,1.907-.844.222.222,0,0,1,.2.24v0h0a.24.24,0,0,1-.255.2h0a1.8,1.8,0,0,0-1.5.691A.222.222,0,0,1,454.828,154.325Z" transform="translate(-454.615 -153.117)" fill="#1a2e35"/></g><path d="M455.007,160.52a5.691,5.691,0,0,1-.191.62,6.206,6.206,0,0,1-3.013,3.381,5.662,5.662,0,0,1-6.676-1.043c-2.234-2.217-2.176-4.779-2.43-9.114a5.912,5.912,0,0,1,.451-2.729,6.075,6.075,0,0,1,7.893-3.2h0C455.352,150.165,455.947,156.612,455.007,160.52Z" transform="translate(-440.504 -146.468)" fill="#cd7a63"/><path d="M452.859,164.979a6.114,6.114,0,0,1-.807.49,5.693,5.693,0,0,1-4.834.209,6.58,6.58,0,0,1,.791-1.471A8.861,8.861,0,0,1,452.859,164.979Z" transform="translate(-440.77 -147.415)" opacity="0.2" style="isolation:isolate"/><path d="M443.78,170.3c2.176,1.94,7.5,1.226,7.5,1.226s3.321-.9,2.621-1.915c-1.952-.318-2.9-1.215-3.295-2.369a5.534,5.534,0,0,1-.2-2.2,10.75,10.75,0,0,1,.164-1.226l-6.58-4.79C444.851,162.2,445.908,168.013,443.78,170.3Z" transform="translate(-440.568 -147.115)" fill="#cd7a63"/><path d="M452.458,156.482l.949.35-.472-1.91a3.525,3.525,0,0,0,0-3.9s3.842-1.149,1.671-3.13c-.806-.741-1.809,0-4.462-1.133-1.438-.62-5.938-.667-6.161,1.133,0,0-3.242,0-3.592,5.425a10.766,10.766,0,0,0,3.433,8.577s3.916.908,5.837-.636S452.458,156.482,452.458,156.482Z" transform="translate(-440.369 -146.374)" fill="#1a2e35"/><path d="M450.543,157.262a2.8,2.8,0,0,0,1.465,1.925c.9.376,1.491-.866,1.358-2.17-.122-1.158-.732-2.786-1.693-2.567S450.231,156.093,450.543,157.262Z" transform="translate(-440.959 -146.846)" fill="#cd7a63"/></g><g transform="translate(0 19.94)"><path d="M436.1,169.9s-1.529.464-2.29.743c-1.585.581-2.632,2.346-3.206,4.079-1.4,4.234-3.668,14.259-3.668,14.259l8.221,1.727,4.385-9.444Z" transform="translate(-426.94 -167.692)" fill="#007cff"/><path d="M436.1,169.9a8.986,8.986,0,0,0-3.358,1.366,7.15,7.15,0,0,0-2.137,3.456c-1.4,4.234-3.668,14.259-3.668,14.259l8.221,1.727,4.385-9.444Z" transform="translate(-426.94 -167.692)" fill="#fff" opacity="0.5"/><g transform="translate(5.627 1.616)"><path d="M456.363,170.346a64.177,64.177,0,0,0-19.91-.486l-2.347,37.073a97.966,97.966,0,0,1-1.189,10.54c10.19,4.375,22.244,3.124,29.061-.555-.079.154-.3-3.891-.652-9.816-.616-10.443-1.624-26.725-2.925-36.151C458.365,170.719,456.6,170.373,456.363,170.346Z" transform="translate(-432.917 -169.272)" fill="#007cff"/></g><g transform="translate(5.627 1.616)" opacity="0.5"><path d="M456.363,170.346a64.177,64.177,0,0,0-19.91-.486l-2.347,37.073a97.966,97.966,0,0,1-1.189,10.54c10.19,4.375,22.244,3.124,29.061-.555-.079.154-.3-3.891-.652-9.816-.616-10.443-1.624-26.725-2.925-36.151C458.365,170.719,456.6,170.373,456.363,170.346Z" transform="translate(-432.917 -169.272)" fill="#fff"/></g><g transform="translate(15.742)"><path d="M443.662,169.374a3.429,3.429,0,0,1,1.211-1.819l5.584.43,2.618,1.726Z" transform="translate(-443.662 -167.555)" fill="#007cff"/><path d="M443.662,169.374a3.429,3.429,0,0,1,1.211-1.819l5.584.43,2.618,1.726Z" transform="translate(-443.662 -167.555)" fill="#fff" opacity="0.5"/></g><path d="M457.546,182.67c.894,4.176,2.179,12.362,4.605,15.214l-.576-8.284Z" transform="translate(-428.733 -168.44)" opacity="0.2" style="isolation:isolate"/><path d="M434.991,191.212l.216-10.707-2.248,10.2Z" transform="translate(-427.293 -168.314)" opacity="0.2" style="isolation:isolate"/></g><g transform="translate(27.544 22.978)"><path d="M462.092,185.968c-.313.121,5.733,13.725,8.2,13.846s14.021-5.138,14.021-5.138l-2.594-3.094-8.736.5-4.456-9.486Z" transform="translate(-456.542 -171.474)" fill="#cd7a63"/><path d="M458.707,170.9c-3.136,2.071-4.69,6.76,3.717,21.239L471.5,186.6c-1.837-3.388-3.782-5.852-5.944-10.759C461.2,169.562,458.707,170.9,458.707,170.9Z" transform="translate(-456.198 -170.782)" fill="#007cff"/><path d="M458.707,170.9c-3.136,2.071-4.69,6.76,3.717,21.239L471.5,186.6c-1.837-3.388-3.782-5.852-5.944-10.759C461.2,169.562,458.707,170.9,458.707,170.9Z" transform="translate(-456.198 -170.782)" fill="#fff" opacity="0.5"/><path d="M489.594,191.822c0-.794-.245-1.657-.672-1.683s-2.71,0-2.71,0h0c0-.64,1.2-1.342.81-1.779-.51-.571-3.47,1.869-3.656,2.367a5.925,5.925,0,0,1-.55,1.221l1.565,3.59s2.894,1.906,3.565,1.234a1.894,1.894,0,0,0,.611-1.39,3.116,3.116,0,0,0,.61-1.541C489.105,193.227,489.594,192.616,489.594,191.822Z" transform="translate(-457.757 -171.806)" fill="#cd7a63"/></g></g><path d="M477.773,228.109a7.906,7.906,0,0,0-1.128,2.735l-1.527.144v2.958l1.528.144a7.919,7.919,0,0,0,1.128,2.736L476.8,238l2.091,2.091,1.178-.975a7.921,7.921,0,0,0,2.736,1.128l.144,1.527h2.958l.143-1.527a7.913,7.913,0,0,0,2.736-1.128l1.178.975L492.055,238l-.976-1.179a7.887,7.887,0,0,0,1.128-2.735l1.528-.144v-2.958l-1.527-.144a7.908,7.908,0,0,0-1.129-2.735l.975-1.178-2.091-2.092-1.178.976a7.9,7.9,0,0,0-2.736-1.129l-.143-1.527h-2.958l-.144,1.527a7.923,7.923,0,0,0-2.736,1.129l-1.178-.976-2.091,2.092Zm9.485,1.526a4,4,0,1,1-5.663,0A4,4,0,0,1,487.258,229.635Z" transform="translate(-17.598 0.456)" fill="#ececec"/><path d="M644.947,188.255a5.862,5.862,0,0,0-.835,2.022l-1.128.107v2.186l1.128.107a5.841,5.841,0,0,0,.835,2.022l-.722.871,1.547,1.547.871-.721a5.841,5.841,0,0,0,2.022.835l.107,1.129h2.187l.106-1.128a5.842,5.842,0,0,0,2.022-.835l.872.721,1.546-1.547-.72-.871a5.841,5.841,0,0,0,.834-2.022l1.129-.107v-2.186l-1.129-.107a5.859,5.859,0,0,0-.834-2.022l.72-.871-1.546-1.547-.871.722a5.841,5.841,0,0,0-2.022-.835l-.106-1.129h-2.187l-.107,1.128a5.84,5.84,0,0,0-2.022.835l-.871-.722-1.547,1.547Zm7.011,1.128a2.961,2.961,0,1,1-4.187,0A2.962,2.962,0,0,1,651.958,189.384Z" transform="translate(3.252 0.589)" fill="#ececec"/><path d="M562.772,161.3a5.841,5.841,0,0,0-.835,2.022l-1.128.107v2.187l1.129.106a5.841,5.841,0,0,0,.835,2.022l-.721.872,1.547,1.545.871-.72a5.839,5.839,0,0,0,2.022.834l.107,1.129h2.186l.107-1.129a5.84,5.84,0,0,0,2.022-.834l.871.72,1.546-1.545-.72-.872a5.859,5.859,0,0,0,.834-2.022l1.128-.106v-2.187l-1.129-.107a5.84,5.84,0,0,0-.835-2.022l.721-.871-1.546-1.547-.871.721a5.843,5.843,0,0,0-2.022-.835l-.106-1.128H566.6l-.107,1.128a5.843,5.843,0,0,0-2.022.835l-.871-.721-1.547,1.547Zm7.011,1.128a2.961,2.961,0,1,1-4.187,0A2.961,2.961,0,0,1,569.783,162.432Z" transform="translate(2.038 0.191)" fill="#f5f5f5"/><path d="M418.549,223.154a5.831,5.831,0,0,0-.835,2.022l-1.128.106v2.187l1.129.107a5.839,5.839,0,0,0,.835,2.022l-.722.871,1.547,1.547.871-.722a5.819,5.819,0,0,0,2.022.834l.107,1.129h2.186l.107-1.128a5.862,5.862,0,0,0,2.022-.835l.871.722,1.547-1.547-.72-.871a5.859,5.859,0,0,0,.834-2.022l1.128-.107v-2.187l-1.129-.107a5.844,5.844,0,0,0-.835-2.021l.721-.872-1.547-1.546-.871.721a5.839,5.839,0,0,0-2.022-.834l-.105-1.129h-2.187l-.107,1.129a5.839,5.839,0,0,0-2.022.834l-.871-.721-1.547,1.546Zm7.011,1.128a2.961,2.961,0,1,1-4.187,0A2.961,2.961,0,0,1,425.56,224.283Z" transform="translate(-0.093 1.105)" fill="#f5f5f5"/><path d="M613.533,196.986a10.035,10.035,0,0,0-1.434,3.475l-1.94.184V204.4l1.941.183a10.032,10.032,0,0,0,1.434,3.476l-1.239,1.5,2.658,2.658,1.5-1.24a10.056,10.056,0,0,0,3.475,1.435l.183,1.94h3.759l.183-1.94a10.053,10.053,0,0,0,3.476-1.435l1.5,1.24,2.658-2.658-1.239-1.5a10.05,10.05,0,0,0,1.434-3.476l1.94-.183v-3.758l-1.94-.184a10.037,10.037,0,0,0-1.435-3.475l1.24-1.5-2.658-2.658-1.5,1.239a10.031,10.031,0,0,0-3.476-1.434l-.183-1.941h-3.759l-.183,1.94a10.034,10.034,0,0,0-3.475,1.434l-1.5-1.239-2.658,2.658Zm12.05,1.939a5.088,5.088,0,1,1-7.2,0A5.089,5.089,0,0,1,625.584,198.925Z" transform="translate(2.767 0.679)" fill="#ececec"/><path d="M539.927,217.751a10.119,10.119,0,0,0-1.446,3.5l-1.955.185v3.787l1.955.185a10.118,10.118,0,0,0,1.446,3.5l-1.249,1.509,2.678,2.678,1.509-1.249a10.118,10.118,0,0,0,3.5,1.446l.185,1.955h3.787l.185-1.955a10.118,10.118,0,0,0,3.5-1.446l1.509,1.249,2.678-2.678-1.249-1.509a10.1,10.1,0,0,0,1.445-3.5l1.957-.185v-3.787l-1.956-.185a10.137,10.137,0,0,0-1.446-3.5l1.249-1.509-2.678-2.678-1.509,1.249a10.145,10.145,0,0,0-3.5-1.446l-.185-1.955h-3.787l-.185,1.956a10.1,10.1,0,0,0-3.5,1.445l-1.509-1.249-2.678,2.678Zm12.144,1.954a5.128,5.128,0,1,1-7.252,0A5.128,5.128,0,0,1,552.07,219.706Z" transform="translate(1.679 0.985)" fill="#ececec"/><path d="M550.9,252.995a16.958,16.958,0,0,0-2.425,5.878l-3.283.31v6.355l3.283.309a16.974,16.974,0,0,0,2.425,5.878l-2.1,2.532,4.494,4.494,2.532-2.1a16.975,16.975,0,0,0,5.878,2.425l.31,3.283h6.356l.31-3.282a16.987,16.987,0,0,0,5.878-2.426l2.532,2.1,4.5-4.494-2.1-2.532a16.993,16.993,0,0,0,2.425-5.878l3.282-.309v-6.355l-3.282-.31a16.986,16.986,0,0,0-2.426-5.878l2.1-2.532-4.495-4.494-2.532,2.1a17,17,0,0,0-5.878-2.426l-.31-3.282h-6.356l-.31,3.282a16.982,16.982,0,0,0-5.877,2.425l-2.533-2.1-4.494,4.5Zm20.38,3.281a8.6,8.6,0,1,1-12.169,0A8.6,8.6,0,0,1,571.279,256.276Z" transform="translate(1.807 1.443)" fill="#ececec"/><g transform="translate(414.302 230.157)"><path d="M413.394,228.913a35.315,35.315,0,0,0-5.915,35.068c5.042-4.5,8.593-11.361,8.818-17.362S414.952,234.711,413.394,228.913Z" transform="translate(-392.162 -228.913)" fill="#9658b9"/><path d="M411.938,264.68a23.228,23.228,0,0,0-3.679,14.338c4.374-1.522,8.23-6.463,10.542-10.477s3.6-8.52,4.781-13A23.232,23.232,0,0,0,411.938,264.68Z" transform="translate(-392.118 -228.52)" fill="#9658b9"/><path d="M411.118,245.243a133.237,133.237,0,0,0-4.478,46.215" transform="translate(-392.147 -228.672)" fill="none" stroke="#1a2e35" stroke-miterlimit="10" stroke-width="0.25"/><path d="M406.4,282.856a108.844,108.844,0,0,1,12.749-22.271" transform="translate(-392.144 -228.445)" fill="none" stroke="#1a2e35" stroke-miterlimit="10" stroke-width="0.25"/><path d="M402.06,271.118a19.37,19.37,0,0,1,3.068,11.955c-3.647-1.27-6.863-5.389-8.79-8.736a43.611,43.611,0,0,1-3.986-10.84A19.37,19.37,0,0,1,402.06,271.118Z" transform="translate(-392.352 -228.402)" fill="#9658b9"/><path d="M406.457,285.823A86.7,86.7,0,0,0,396.014,267.7" transform="translate(-392.298 -228.34)" fill="none" stroke="#1a2e35" stroke-miterlimit="10" stroke-width="0.25"/><path d="M406.473,287.75c5.207-5.359,10.342-10.419,15.548-15.778" transform="translate(-392.143 -228.277)" fill="none" stroke="#1a2e35" stroke-miterlimit="10" stroke-width="0.25"/><path d="M422.279,269.69a101.283,101.283,0,0,0-12.137,14.074h.817a12.057,12.057,0,0,0,11.32-14.075Z" transform="translate(-392.089 -228.311)" fill="#9658b9"/><g transform="translate(2.964 15.279)"><path d="M401.414,259.487q2.878,4.7,5.416,9.6" transform="translate(-395.182 -243.741)" fill="#9658b9" stroke="#1a2e35" stroke-miterlimit="10" stroke-width="0.25"/><path d="M396.737,243.97a55.866,55.866,0,0,0-1.464,10.99,14.13,14.13,0,0,0,2.984,9.061c1.945,2.3,5.875,3.3,7.458,1.987Z" transform="translate(-395.273 -243.97)" fill="#9658b9"/></g><rect width="19.506" height="3.615" transform="translate(4.328 61.12)" fill="#1a2e35"/><path d="M412.935,305.6H400.822l-2.2-13.707h16.052Z" transform="translate(-392.259 -227.983)" fill="#1a2e35"/><path d="M398.763,292.771h15.8l-.2,1.552H399.012Z" transform="translate(-392.257 -227.97)" opacity="0.2"/></g><g transform="translate(636.54 210.873)"><g transform="translate(0)"><g transform="translate(1.283 0.921)"><path d="M639.871,212.175a10.279,10.279,0,1,1-1.4,16.869l-3.049.48.726-3.18c-.029-.049-.064-.093-.092-.143A10.28,10.28,0,0,1,639.871,212.175Z" transform="translate(-634.694 -210.818)" fill="#ffa600"/></g><path d="M641.7,209.91a10.187,10.187,0,0,0-7.4,6.129" transform="translate(-633.416 -209.91)" fill="none" stroke="#007cff" stroke-linecap="round" stroke-linejoin="round" stroke-width="0.5"/><path d="M633.8,217.374a3.722,3.722,0,0,0-.369,1.472" transform="translate(-633.429 -209.8)" fill="none" stroke="#007cff" stroke-linecap="round" stroke-linejoin="round" stroke-width="0.5"/></g><g transform="translate(6.02 7.547)"><path d="M643.7,224.886l-4.338-3.959,1.382-1.514,2.909,2.655,4.834-4.72,1.432,1.466Z" transform="translate(-639.361 -217.347)" fill="#fff"/></g></g><g transform="translate(531.744 144.709)"><g transform="translate(0 1.344)"><path d="M535.555,147.5a10.842,10.842,0,1,1-1.357,17.8l-3.213.528.741-3.359c-.031-.052-.067-.1-.1-.151A10.842,10.842,0,0,1,535.555,147.5Z" transform="translate(-530.159 -146.033)" fill="#007cff"/></g><path d="M550.234,148.954a10.746,10.746,0,0,0-9.218-4.219" transform="translate(-529.998 -144.709)" fill="none" stroke="#007cff" stroke-linecap="round" stroke-linejoin="round" stroke-width="0.5"/><path d="M539.455,144.9a3.935,3.935,0,0,0-1.569.325" transform="translate(-530.044 -144.706)" fill="none" stroke="#007cff" stroke-linecap="round" stroke-linejoin="round" stroke-width="0.5"/><g transform="translate(5.417 9.424)"><rect width="10.127" height="2.532" transform="translate(0 1.206)" fill="#fff"/><path d="M544.554,159.11V154l2.494,2.558Z" transform="translate(-535.363 -153.995)" fill="#fff"/></g></g><g transform="translate(564.361 158.217)"><g transform="translate(0 52.114)"><path d="M601.305,210.962a67.838,67.838,0,0,1-2.539,12.79,129.079,129.079,0,0,1-5.173,14.8c-1.132,2.725-2.432,5.617-3.922,8.658-.671,1.384-1.389,2.791-2.143,4.234-.869,24.647-14.7,49.7-14.7,49.7-.766.4-3.443-.035-3.425-.814,2.048-3.252,6.077-34.832,8.676-49.814.161-2.037.4-4.192.683-6.473.76-6.048,1.886-12.623,2.994-18.407,1.719-9.114,3.354-16.258,3.354-16.258l4.556.443Z" transform="translate(-562.196 -209.375)" fill="#fdc2bc"/><path d="M572.783,305.123H572l-.221-.982-2.634,1.2H562.47s-1.059-1.065,2.114-1.91a2.624,2.624,0,0,0,.449-.173,18.583,18.583,0,0,0,4.1-3.479h3.658a3.867,3.867,0,0,1,.3.533A4.626,4.626,0,0,1,572.783,305.123Z" transform="translate(-562.301 -208.039)" fill="#1a2e35"/><path d="M573.053,300.312h0c-.479-.539-2.676,1.827-4.287,2.634-1.437.713-3.053,1.03-3.772.305,1.695-.8,4.713-4.523,4.713-4.523l2.587.26S572.886,299.965,573.053,300.312Z" transform="translate(-562.261 -208.055)" fill="#fdc2bc"/></g><g transform="translate(27.218 50.856)"><path d="M606.451,245.1h0q-.551,3.976-1.419,8.509c4.94,16.485-5.222,48.658-5.222,48.658a5.379,5.379,0,0,1-4.011-.462c1.916-9.694.539-34.9-.952-49.957-.132-1.366-.3-2.869-.479-4.473-.305-2.719-.671-5.712-1.06-8.808-.659-5.179-1.4-10.629-2.06-15.461-.814-5.838-1.521-10.779-1.886-13.263-.149-1.09-.239-1.707-.239-1.707l14.264,1.544s3.629,4.066,4.192,16.767A103.833,103.833,0,0,1,606.451,245.1Z" transform="translate(-589.122 -208.136)" fill="#fdc2bc"/><path d="M600.157,305.123h-.8l-.222-.982-2.628,1.2h-6.671s-1.059-1.065,2.12-1.91a2.617,2.617,0,0,0,.45-.173,18.74,18.74,0,0,0,4.1-3.479h3.658a5.078,5.078,0,0,1,.3.533A4.667,4.667,0,0,1,600.157,305.123Z" transform="translate(-589.114 -206.782)" fill="#1a2e35"/><path d="M600.427,300.308h0c-.485-.539-2.682,1.827-4.294,2.634-1.437.713-3.053,1.03-3.766.305,1.689-.8,4.353-4.263,4.353-4.263h2.94S600.254,299.961,600.427,300.308Z" transform="translate(-589.074 -206.794)" fill="#fdc2bc"/></g><g transform="translate(17.81 0)"><path d="M610.11,175.834c-.732-.633-1.916-.391-2.923-.509a4.635,4.635,0,0,1-3.42-2.537,13.277,13.277,0,0,1-1.084-4.026,9.174,9.174,0,0,0-1.377-3.935c-.839-1.162-2.861-2.6-4.33-1.722l-1.968,3.048a92.3,92.3,0,0,1,2.875,10.87,9.085,9.085,0,0,0,1.842,4.646,7.23,7.23,0,0,0,4.817,1.975,6.148,6.148,0,0,0,2.7-.34,2.777,2.777,0,0,0,1.737-1.806,1.794,1.794,0,0,0-1.112-2.053,5.746,5.746,0,0,0,2.227-1.371A1.614,1.614,0,0,0,610.11,175.834Z" transform="translate(-579.627 -157.949)" fill="#1a2e35"/><path d="M582.156,160.73a7.086,7.086,0,0,0-2.176,6.538c.755,2.344,1.9,3.893,2.971,6.109l3.808-15.218A9.664,9.664,0,0,0,582.156,160.73Z" transform="translate(-579.851 -158.018)" fill="#1a2e35"/><path d="M588.806,158.072c4.39.089,8.8,3.76,9.141,7.322s-3.158,8.158-3.815,8.44l-2.079.764s2.293-5.3,1.342-6.72-1.642-1.432-1.642-1.432Z" transform="translate(-579.719 -158.019)" fill="#1a2e35"/><path d="M585.182,158.917c2.283-1.614,4.982-.691,6.582,0a7.29,7.29,0,0,1,3.5,4.842c.349,1.915.771,4.236-.207,5.444a3.149,3.149,0,0,1-2.24,1.2l-11.06-7.013A11.228,11.228,0,0,1,585.182,158.917Z" transform="translate(-579.823 -158.02)" fill="#1a2e35"/><g transform="translate(1.951 1.36)"><path d="M589.57,184.641c.865.618,1.484.247,2.383-.328,5.4-3.133,3.183-5.613,3.183-5.613-1.331-1.088-1.659-2.618-1.687-5.037a1.445,1.445,0,0,0-.029-.208,1.546,1.546,0,0,0-.447-.819,1.576,1.576,0,0,0-2.228-.012l0,0-2.453,1.211h0l0,.116c.226,1.285.444,2.274.578,3.06a1.91,1.91,0,0,0,.046.287h0a1.55,1.55,0,0,0,.041.29c.134,1.086-1.4,2.994-2.067,3.5C586.483,181.43,586.639,182.558,589.57,184.641Z" transform="translate(-581.701 -159.171)" fill="#fdc2bc"/><path d="M588.272,173.8h0a.365.365,0,0,1,0,.12c.226,1.285.444,2.274.578,3.061a1.968,1.968,0,0,1,.046.286h0a2.177,2.177,0,0,1,.018.3h0a10.132,10.132,0,0,0,4.444-4.14h0a1.616,1.616,0,0,0-.424-.818,1.581,1.581,0,0,0-2.229-.039Z" transform="translate(-581.678 -159.172)" opacity="0.2" style="isolation:isolate"/><path d="M593.856,164.55c.707,4.445,1.1,6.3-.561,9.09-2.51,4.187-7.987,4.19-10,.069-1.779-3.717-2.657-10.345,1.147-13.135A5.9,5.9,0,0,1,593.856,164.55Z" transform="translate(-581.774 -159.361)" fill="#fdc2bc"/><path d="M596.347,167.893a3.645,3.645,0,0,1-1.677,2.229c-1.08.6-2.182-1.1-2.1-2.363a2.41,2.41,0,0,1,2.212-2.217A1.734,1.734,0,0,1,596.347,167.893Z" transform="translate(-581.614 -159.269)" fill="#fdc2bc"/><path d="M593.819,168.31a1.647,1.647,0,0,1,1.286-1.937" transform="translate(-581.596 -159.257)" fill="none" stroke="#000" stroke-linecap="round" stroke-linejoin="round" stroke-width="0.5" opacity="0.2"/><g transform="translate(0.132 5.621)"><path d="M588.356,167.4c.1.469-.045.917-.331,1s-.6-.227-.705-.7.044-.916.33-1S588.251,166.93,588.356,167.4Z" transform="translate(-581.824 -164.874)" fill="#1a2e35"/><path d="M584.1,168.536c.1.455-.051.891-.336.974s-.6-.216-.7-.671.051-.891.336-.974S584,168.081,584.1,168.536Z" transform="translate(-581.887 -164.857)" fill="#1a2e35"/><path d="M588.839,165.565a.206.206,0,0,1-.169-.007,1.635,1.635,0,0,0-1.551-.012.2.2,0,0,1-.291-.077.244.244,0,0,1,.086-.314,2.042,2.042,0,0,1,1.961-.008.227.227,0,0,1,.086.3A.232.232,0,0,1,588.839,165.565Z" transform="translate(-581.831 -164.9)" fill="#1a2e35"/><path d="M582.071,166.765a.17.17,0,0,1-.126-.068.244.244,0,0,1,.032-.311,1.867,1.867,0,0,1,1.74-.6.2.2,0,0,1,.123.265.211.211,0,0,1-.247.161,1.5,1.5,0,0,0-1.375.489A.2.2,0,0,1,582.071,166.765Z" transform="translate(-581.904 -164.888)" fill="#1a2e35"/><path d="M585.2,168a15.378,15.378,0,0,1-.736,3.052.349.349,0,0,0,.3.473,2.241,2.241,0,0,0,1.177-.3Z" transform="translate(-581.866 -164.854)" fill="#ec837e"/><path d="M587.826,166.676l-1.067.035S587.51,167.31,587.826,166.676Z" transform="translate(-581.832 -164.874)" fill="#1a2e35"/><path d="M583.518,167.847l-1.068.036S583.2,168.482,583.518,167.847Z" transform="translate(-581.896 -164.857)" fill="#1a2e35"/></g></g><path d="M592.531,165.913s-3.057-2.428-3.584-4.886c0,0-9.414-.359-7.157,7.3,0,0-3.185-6.4,4.005-8.846s10.477,6.927,7.739,10.9C593.514,170.349,594.424,167.438,592.531,165.913Z" transform="translate(-579.833 -158.005)" fill="#1a2e35"/><path d="M582.606,161.062a6.449,6.449,0,0,0-1.223,3.819c.176.963,1.614,1.421,1.614,1.421l1.219-2.392.336,1.845a5.932,5.932,0,0,0,4.365-4.607l-1.938-2.345S583.339,160.149,582.606,161.062Z" transform="translate(-579.829 -158.009)" fill="#1a2e35"/><path d="M587.722,171.983a.961.961,0,0,0,1.1-1.078" transform="translate(-579.735 -157.83)" fill="none" stroke="#1a2e35" stroke-linecap="round" stroke-linejoin="round" stroke-width="0.5"/><path d="M596.365,170.659s3.317-4.116.721-7.623a3.854,3.854,0,0,1,1.551,3.589A5.779,5.779,0,0,1,596.365,170.659Z" transform="translate(-579.607 -157.946)" opacity="0.2" style="isolation:isolate"/></g><path d="M606.606,244.882h0a44.217,44.217,0,0,1-12.083,2.275c-.305-2.719-.671-5.712-1.06-8.808-1.131,2.725-2.431,5.617-3.922,8.658a29.835,29.835,0,0,1-10.91-3.161c.76-6.048,1.886-12.623,2.994-18.407a17.839,17.839,0,0,1,4.851-1.959,21.6,21.6,0,0,1,4.946-.6,37.769,37.769,0,0,1,7.233.665,45.518,45.518,0,0,1,9.036,2.683A103.821,103.821,0,0,1,606.606,244.882Z" transform="translate(-562.059 -157.062)" opacity="0.2" style="isolation:isolate"/><path d="M584.706,208.136h18.941l.515,2.443s6.958,9.629,3.431,33.641c0,0-15.239,1.761-29.593-1.317,0,0,3.222-24.67,6.587-32.724Z" transform="translate(-562.069 -157.28)" fill="#1a2e35"/><g transform="translate(17.944 20.137)"><path d="M602.66,201.137l1.347,10.073-20.763-.837c-.055-2.163,1.875-7.906,1.652-9.476-.63-1.939-3.82-4.867-4.669-7.211-.905-3.253.964-12.2,1.574-12.486.74-.344,1.661-.313,2.228-.562,2.2-.519,7.218-2.31,9.465-2.589.435-.041.867-.12,1.3-.169,0,0,8.5-.409,8.871,3.047A76.192,76.192,0,0,0,602.66,201.137Z" transform="translate(-579.983 -177.864)" fill="#e0007a"/><path d="M602.295,198.858l-.169-2.759-3.147-8.569,2.466,10.089-7.813,2.737Z" transform="translate(-579.782 -177.721)" opacity="0.2" style="isolation:isolate"/><path d="M593.257,207.624A29.256,29.256,0,0,0,596,204.91l7.053.267-.341-2.55c.21-.165-8.241.22-8.241.22l-1.214,2.632Z" transform="translate(-579.787 -177.499)" opacity="0.2" style="isolation:isolate"/><path d="M600.247,178.672c.363.045,1.84-.79,4.506,2.633s5.654,16.476,5.824,18.381a3.407,3.407,0,0,1-3,3.875,127.773,127.773,0,0,1-13.722.957v-4.1l8.879-2.01s-5.039-12.132-4.244-15.257A14.521,14.521,0,0,1,600.247,178.672Z" transform="translate(-579.779 -177.853)" fill="#e0007a"/></g><path d="M596.393,177.869a9.025,9.025,0,0,1-6.68,7.1,4.321,4.321,0,0,1-3.5-1.166,5.225,5.225,0,0,1-1.809-3.169C588.584,178.99,592.369,177.577,596.393,177.869Z" transform="translate(-561.974 -157.727)" fill="#fdc2bc"/><path d="M602.6,198.128a2.764,2.764,0,0,1,2.056.705,1.8,1.8,0,0,0-2.254-1.191Z" transform="translate(-561.708 -157.435)" opacity="0.2" style="isolation:isolate"/></g><g transform="translate(547.857 179.501)"><path d="M591.689,224.709V178.994H546.037v18.265a10.33,10.33,0,0,0,4.353.215c1.441-.537.5-2.2,1.891-2.853,2.053-.966,4.61.4,5.686,2.394a7.939,7.939,0,0,1,0,7.4c-1.076,2-3.633,3.36-5.686,2.393-1.391-.655-.26-2.273-1.7-2.81a11.227,11.227,0,0,0-4.544.174v20.539h20.414a3.243,3.243,0,0,1-.184,1.315c-.537,1.441-2.069,2.3-2.724,3.689-.966,2.053.4,4.61,2.393,5.686a7.941,7.941,0,0,0,7.4,0c2-1.076,3.359-3.633,2.393-5.686-.655-1.39-2.187-2.248-2.724-3.689a3.242,3.242,0,0,1-.184-1.315Z" transform="translate(-546.037 -178.994)" fill="#7928a7"/><g transform="translate(2.267)"><path d="M593.922,224.709V178.994H548.271v18.265a3.627,3.627,0,0,0,2.555.086c1.441-.537,2.3-2.068,3.69-2.724,2.052-.966,4.609.4,5.685,2.394a7.939,7.939,0,0,1,0,7.4c-1.076,2-3.633,3.36-5.685,2.393-1.391-.655-2.249-2.186-3.69-2.723a3.627,3.627,0,0,0-2.555.086v20.539h20.414a3.229,3.229,0,0,1-.185,1.315c-.537,1.441-2.068,2.3-2.724,3.689-.966,2.053.4,4.61,2.394,5.686a7.941,7.941,0,0,0,7.4,0c2-1.076,3.359-3.633,2.393-5.686-.656-1.39-2.187-2.248-2.724-3.689a3.244,3.244,0,0,1-.185-1.315Z" transform="translate(-548.271 -178.994)" fill="#5b1f7d"/><path d="M593.922,224.709V178.994H548.271v18.265a3.627,3.627,0,0,0,2.555.086c1.441-.537,2.3-2.068,3.69-2.724,2.052-.966,4.609.4,5.685,2.394a7.939,7.939,0,0,1,0,7.4c-1.076,2-3.633,3.36-5.685,2.393-1.391-.655-2.249-2.186-3.69-2.723a3.627,3.627,0,0,0-2.555.086v20.539h20.414a3.229,3.229,0,0,1-.185,1.315c-.537,1.441-2.068,2.3-2.724,3.689-.966,2.053.4,4.61,2.394,5.686a7.941,7.941,0,0,0,7.4,0c2-1.076,3.359-3.633,2.393-5.686-.656-1.39-2.187-2.248-2.724-3.689a3.244,3.244,0,0,1-.185-1.315Z" transform="translate(-548.271 -178.994)" fill="#5b1f7d" opacity="0.3"/><g transform="translate(41.792 19.789)"><path d="M593.313,200.926s-3.065.766-3.4,1.487.8.666.8.666-1.243.138-1.256.674c-.016.643,1.171.579,1.171.579s-1.011.154-.99.631c.021.5,1.367.52,1.367.52s-.691.243-.489.567,3.057.429,3.9-.1.843-4.2.68-5-.771-1.232-1.777-2.448v2.431Z" transform="translate(-589.455 -198.495)" fill="#5b1f7d"/><g transform="translate(1.203 4.18)"><path d="M590.7,203.078h.005l2.156-.344a.058.058,0,0,0,.045-.067.056.056,0,0,0-.061-.052l-2.156.343a.06.06,0,0,0-.045.068A.055.055,0,0,0,590.7,203.078Z" transform="translate(-590.641 -202.614)" fill="#5b1f7d" opacity="0.2"/></g><g transform="translate(1.18 5.61)"><path d="M590.674,204.307h0l2.1-.164a.059.059,0,0,0,.049-.064.057.057,0,0,0-.058-.056l-2.1.164a.058.058,0,0,0-.049.064A.055.055,0,0,0,590.674,204.307Z" transform="translate(-590.618 -204.023)" fill="#5b1f7d" opacity="0.2"/></g><g transform="translate(1.566 6.846)"><path d="M591.055,205.44l1.562-.078a.061.061,0,0,0-.006-.121l-1.562.078a.061.061,0,0,0,.006.121Z" transform="translate(-590.998 -205.241)" fill="#5b1f7d" opacity="0.2"/></g></g></g><g transform="translate(11.234 19.295)"><path d="M558.751,199.724s3.282.916,3.617,1.638-.8.666-.8.666,1.244.137,1.257.673c.015.643-1.172.58-1.172.58s1.011.154.991.631c-.021.5-1.367.52-1.367.52s.692.243.489.566-3.055.43-3.9-.1-.843-4.2-.68-5,.231-.669,1.236-1.883l.184.68a3.242,3.242,0,0,1,.1.565Z" transform="translate(-557.107 -198.008)" fill="#fdc2bc"/><g transform="translate(2.253 3.616)"><path d="M561.534,202.035h-.005l-2.156-.344a.059.059,0,0,1-.045-.068.056.056,0,0,1,.061-.051l2.156.343a.059.059,0,0,1,.045.068A.056.056,0,0,1,561.534,202.035Z" transform="translate(-559.327 -201.571)" opacity="0.2"/></g><g transform="translate(2.336 5.044)"><path d="M561.556,203.264h0l-2.1-.164a.061.061,0,0,1,.008-.121l2.1.165a.058.058,0,0,1,.049.064A.056.056,0,0,1,561.556,203.264Z" transform="translate(-559.409 -202.979)" opacity="0.2"/></g><g transform="translate(2.485 6.281)"><path d="M561.168,204.4l-1.563-.078a.061.061,0,0,1,.006-.121l1.563.078a.061.061,0,0,1-.006.121Z" transform="translate(-559.556 -204.198)" opacity="0.2"/></g></g></g><g transform="translate(425.624 170.902)"><g transform="translate(0 137.214)"><path d="M492.456,300.177l4.531.444,3.349-11.471-6.893-.75Z" transform="translate(-490.348 -288.399)" fill="#fdc2bc"/><g transform="translate(0 9.48)"><path d="M497.673,298.471h-1.618a1.146,1.146,0,0,0-.92.48c-.934,1.275-1.635.793-2.649-.4-.645-.075-.819.665-.872.864l-1.21,4.4a.692.692,0,0,0,.475.855.675.675,0,0,0,.2.026H503.9c2.039,0,2.461-2.054,1.622-2.244-3.776-.835-6.45-1.945-7.617-3.044C497.686,299.211,497.909,299.067,497.673,298.471Z" transform="translate(-490.379 -297.73)" fill="#1a2e35"/><path d="M501.065,299.717a.662.662,0,0,0,.275-.529.3.3,0,0,0-.132-.285c-.507-.359-2.53.587-2.757.7a.09.09,0,0,0,0,.169,7.413,7.413,0,0,0,1.516.195A1.81,1.81,0,0,0,501.065,299.717Zm.016-.661a.118.118,0,0,1,.053.122.53.53,0,0,1-.2.386,3.492,3.492,0,0,1-2.165.084C499.608,299.279,500.8,298.861,501.081,299.056Z" transform="translate(-490.26 -297.725)" fill="#007cff"/><path d="M498.52,299.806c.607-.253,1.88-1.251,1.811-1.779-.01-.112-.09-.244-.364-.28-1.109-.127-1.584,1.864-1.584,1.948a.089.089,0,0,0,.026.1.11.11,0,0,0,.063,0Zm1.41-1.9c.206.021.206.1.206.122.059.322-.866,1.151-1.526,1.5.138-.465.544-1.627,1.247-1.627Z" transform="translate(-490.261 -297.741)" fill="#007cff"/><path d="M498.694,299.7a1.961,1.961,0,0,0-1.374.885" transform="translate(-490.276 -297.712)" fill="none" stroke="#007cff" stroke-linecap="round" stroke-linejoin="round" stroke-width="0.5"/><path d="M499.684,300.447a1.959,1.959,0,0,0-1.373.885" transform="translate(-490.262 -297.701)" fill="none" stroke="#007cff" stroke-linecap="round" stroke-linejoin="round" stroke-width="0.5"/><path d="M500.917,301.074a1.963,1.963,0,0,0-1.374.885" transform="translate(-490.243 -297.692)" fill="none" stroke="#007cff" stroke-linecap="round" stroke-linejoin="round" stroke-width="0.5"/></g><path d="M498.56,295.121l-.411,1.407-5.332-.819.1-1.153Z" transform="translate(-490.343 -288.308)" opacity="0.3"/></g><g transform="translate(26.375 137.214)"><path d="M518.446,300.177l4.531.444,3.348-11.471-6.893-.75Z" transform="translate(-516.339 -288.399)" fill="#fdc2bc"/><g transform="translate(0 9.48)"><path d="M523.663,298.471h-1.618a1.148,1.148,0,0,0-.92.48c-.933,1.275-1.634.793-2.649-.4-.645-.075-.819.665-.872.864l-1.209,4.4a.691.691,0,0,0,.475.855.671.671,0,0,0,.2.026h12.815c2.039,0,2.461-2.054,1.622-2.244-3.776-.835-6.449-1.945-7.616-3.044C523.676,299.211,523.9,299.067,523.663,298.471Z" transform="translate(-516.369 -297.73)" fill="#1a2e35"/><path d="M527.056,299.717a.661.661,0,0,0,.274-.529.3.3,0,0,0-.132-.285c-.506-.359-2.53.587-2.756.7a.09.09,0,0,0,0,.169,7.394,7.394,0,0,0,1.515.195A1.813,1.813,0,0,0,527.056,299.717Zm.015-.661a.115.115,0,0,1,.053.122.529.529,0,0,1-.2.386,3.5,3.5,0,0,1-2.166.084C525.6,299.279,526.791,298.861,527.071,299.056Z" transform="translate(-516.251 -297.725)" fill="#007cff"/><path d="M524.51,299.806c.608-.253,1.88-1.251,1.811-1.779-.01-.112-.089-.244-.364-.28-1.109-.127-1.584,1.864-1.584,1.948a.089.089,0,0,0,.026.1.114.114,0,0,0,.064,0Zm1.41-1.9c.206.021.206.1.206.122.058.322-.867,1.151-1.526,1.5.137-.465.544-1.627,1.246-1.627Z" transform="translate(-516.251 -297.741)" fill="#007cff"/><path d="M524.684,299.7a1.963,1.963,0,0,0-1.374.885" transform="translate(-516.267 -297.712)" fill="none" stroke="#007cff" stroke-linecap="round" stroke-linejoin="round" stroke-width="0.5"/><path d="M525.675,300.447a1.961,1.961,0,0,0-1.374.885" transform="translate(-516.252 -297.701)" fill="none" stroke="#007cff" stroke-linecap="round" stroke-linejoin="round" stroke-width="0.5"/><path d="M526.907,301.074a1.959,1.959,0,0,0-1.373.885" transform="translate(-516.234 -297.692)" fill="none" stroke="#007cff" stroke-linecap="round" stroke-linejoin="round" stroke-width="0.5"/></g><path d="M524.55,295.121l-.411,1.407-5.332-.819.1-1.153Z" transform="translate(-516.333 -288.308)" opacity="0.3"/></g><g transform="translate(2.003 57.781)"><g transform="translate(18.574 4.766)"><path d="M528.245,214.82S532,231.4,533.79,245.849a47.513,47.513,0,0,1-.314,14.624l-7.238,35.983-9.109-.912c1.432-15.519,3.427-34.66,4-42.8-2-9.543-6.273-21.1-10.47-32.583Z" transform="translate(-510.657 -214.82)" fill="#007cff"/></g><g transform="translate(18.574 4.766)" opacity="0.5" style="isolation:isolate"><path d="M528.245,214.82S532,231.4,533.79,245.849a47.513,47.513,0,0,1-.314,14.624l-7.238,35.983-9.109-.912c1.432-15.519,3.427-34.66,4-42.8-2-9.543-6.273-21.1-10.47-32.583Z" transform="translate(-510.657 -214.82)" fill="#93137a"/></g><path d="M498.587,255.708c.206-.9.535-2.721.939-5.125l-.037-.009c.3-3.179.843-17.928,1.85-27.335.772-5.991,2.3-10.046,3.846-12.032.079-.1.152-.195.218-.277.257-.32.412-.5.412-.5q.44.111.875.2l.324.07a46.213,46.213,0,0,0,20.468-.586c1,2.475,1.75,7.753,2.482,13.227-1.14,1.249-6.136,2.871-11.871,3.945l-1.635,7.394c-.861,4.585-1.965,9.081-2.9,13.131l-.98,4.434c-.06.291-.118.579-.174.863-.5,2.55-12.335,43.625-12.335,43.625l-7.712-.452S495.8,267.861,498.587,255.708Z" transform="translate(-492.353 -210.123)" fill="#007cff"/><path d="M498.587,255.708c.206-.9.535-2.721.939-5.125l-.037-.009c.3-3.179.843-17.928,1.85-27.335.772-5.991,2.3-10.046,3.846-12.032.079-.1.152-.195.218-.277.257-.32.412-.5.412-.5q.44.111.875.2l.324.07a46.213,46.213,0,0,0,20.468-.586c1,2.475,1.75,7.753,2.482,13.227-1.14,1.249-6.136,2.871-11.871,3.945l-1.635,7.394c-.861,4.585-1.965,9.081-2.9,13.131l-.98,4.434c-.06.291-.118.579-.174.863-.5,2.55-12.335,43.625-12.335,43.625l-7.712-.452S495.8,267.861,498.587,255.708Z" transform="translate(-492.353 -210.123)" fill="#93137a" opacity="0.5" style="isolation:isolate"/><path d="M516,235.191c-.029.151,3.532-12.8,3.532-12.8s3,11.56-1.564,18.791Z" transform="translate(-492.004 -209.942)" opacity="0.2" style="isolation:isolate"/></g><g transform="translate(15.815 0)"><path d="M508.45,177.584s1.811,1.392,4.143,3.4a8.613,8.613,0,0,0,1.587,1.082c1.528.812,2.922,1.277,3.3.54a2.494,2.494,0,0,0,.2-.522c.32-1.234.189-2.968-.809-3.762-1.125-.9-1.666-1.661-1.463-2.873a9.017,9.017,0,0,1,.645-2.084l-.885-1.035-4.628-4.67C510.651,170.78,510.887,175.891,508.45,177.584Z" transform="translate(-505.927 -152.969)" fill="#fdc2bc"/><path d="M515.3,175.675c-1.273-.755-2.67-2.066-2.5-3.563a7.085,7.085,0,0,1,.361-1.611l2.586,3.423A8.649,8.649,0,0,0,515.3,175.675Z" transform="translate(-505.863 -152.927)" opacity="0.2"/><path d="M509.214,162.823c.435,4.755.52,6.772,2.973,9.265,3.691,3.751,9.369,2.489,10.348-2.224.88-4.243.019-11.306-4.649-13.3A6.117,6.117,0,0,0,509.214,162.823Z" transform="translate(-505.916 -153.141)" fill="#fdc2bc"/><path d="M515.051,164.213c.024.445.3.812.611.818s.546-.348.522-.794-.3-.812-.611-.818S515.027,163.768,515.051,164.213Z" transform="translate(-505.83 -153.031)" fill="#1a2e35"/><path d="M519.907,164.146c.024.431.3.786.61.793s.544-.337.519-.769-.3-.785-.609-.793S519.882,163.715,519.907,164.146Z" transform="translate(-505.758 -153.032)" fill="#1a2e35"/><path d="M514.309,162.538a.213.213,0,0,0,.168-.055,1.716,1.716,0,0,1,1.567-.437.214.214,0,0,0,.274-.158.253.253,0,0,0-.174-.293,2.142,2.142,0,0,0-1.987.53.239.239,0,0,0,0,.332A.25.25,0,0,0,514.309,162.538Z" transform="translate(-505.844 -153.059)" fill="#1a2e35"/><path d="M521.432,162.311a.209.209,0,0,0,.166-.025.23.23,0,0,0,.062-.322,2.451,2.451,0,0,0-1.815-1.2.213.213,0,0,0-.225.222.253.253,0,0,0,.232.248,1.959,1.959,0,0,1,1.429.962A.251.251,0,0,0,521.432,162.311Z" transform="translate(-505.762 -153.071)" fill="#1a2e35"/><path d="M511.288,165.812s1.466-2.218.863-6.537a1.365,1.365,0,0,1,1.075-1.549c2.051-.4,4.794-2.986,8.141,2.153,0,0-1.6-6.157-10.94-3.676-8.315,2.207-2.622,9.255-1.765,9.979S511.288,165.812,511.288,165.812Z" transform="translate(-505.964 -153.147)" fill="#1a2e35"/><path d="M507.8,166.585a3.828,3.828,0,0,0,2.312,1.8c1.258.316,1.909-1.708,1.479-2.969a2.531,2.531,0,0,0-2.848-1.639A1.821,1.821,0,0,0,507.8,166.585Z" transform="translate(-505.941 -153.027)" fill="#fdc2bc"/><g transform="translate(9.401 14.321)"><path d="M518.778,168.734a13.364,13.364,0,0,0-.852,1.75c-.113-.023-.225-.047-.336-.076-1.513-.354-2.1-1.019-2.288-1.648a2.016,2.016,0,0,1-.031-.949,1.963,1.963,0,0,1,.167-.517,7.329,7.329,0,0,0,2.826,1.31C518.576,168.693,518.778,168.734,518.778,168.734Z" transform="translate(-515.228 -167.295)" fill="#1a2e35"/><path d="M518.263,168.605l-.265.509a4.628,4.628,0,0,1-2.729-1.3,1.961,1.961,0,0,1,.167-.517A7.329,7.329,0,0,0,518.263,168.605Z" transform="translate(-515.227 -167.295)" fill="#fff"/><path d="M517.588,170.387c-1.513-.354-2.1-1.019-2.288-1.648a5.021,5.021,0,0,1,1.6.727A1.867,1.867,0,0,1,517.588,170.387Z" transform="translate(-515.227 -167.274)" fill="#fc5652"/></g><path d="M518.648,164.007a16.121,16.121,0,0,0,1.583,2.889.368.368,0,0,1-.173.561,2.353,2.353,0,0,1-1.275.02Z" transform="translate(-505.776 -153.023)" fill="#ec837e"/><path d="M515.471,163.412l1.091-.258S515.965,163.968,515.471,163.412Z" transform="translate(-505.823 -153.035)" fill="#1a2e35"/><path d="M520.308,163.392l1.091-.258S520.8,163.948,520.308,163.392Z" transform="translate(-505.752 -153.036)" fill="#1a2e35"/><g transform="translate(2.663)"><path d="M522.16,161.927s2.88-3.407.958-6.216c-.721-1.055-2.048-1.213-3.218-1.728-2.7-1.189-4.888-1.43-8.333,1.947-3.585,3.513-4.234,4.7-.28,9.025,0,0-.426-.566,1.035-1.854s3.076-2.433,2.292-3.683a2.1,2.1,0,0,1,1.3,1.626l2.138-.585a4.06,4.06,0,0,0-.659-1.653,3.812,3.812,0,0,1,1.467,1.609l1.849.348a6.4,6.4,0,0,0-.794-2.306A10.82,10.82,0,0,1,522.16,161.927Z" transform="translate(-508.589 -153.183)" fill="#1a2e35"/></g></g><path d="M510.607,166.43a1.87,1.87,0,0,0-1.793-1.7" transform="translate(-490.106 -153.012)" fill="none" stroke="#000" stroke-linecap="round" stroke-linejoin="round" stroke-width="0.5" opacity="0.2"/><g transform="translate(9.048 22.35)"><g transform="translate(0 1.893)"><path d="M533.073,205.668a6.764,6.764,0,0,1-.759-.682c-.2-.212-.343-.485-.294-.485a.7.7,0,0,0-.037-.088l-.085-.2-.208-.533c-.141-.382-.276-.8-.41-1.221-.282-.84-.545-1.714-.8-2.594-.52-1.768-1.016-3.556-1.518-5.351l-.92-3.763c-.133-.609-.34-1.5-.615-2.511v0h0c-.749-2.764-2-6.451-3.637-7.916-2.54-1.943-4.161.454-5.207,2.946-1,2.393,1.473,8.93,1.473,8.93l3.018-.218c.38,1.391.781,2.774,1.175,4.187.514,1.843,1.126,3.651,1.738,5.459.313.907.636,1.815.991,2.73.208.464.4.921.612,1.406.1.238.221.491.349.744l.226.423a4.339,4.339,0,0,0,.319.5A4.976,4.976,0,0,0,530.1,208.8a6.908,6.908,0,0,0,1.494.621,8.984,8.984,0,0,0,2.883.348l.545-2.634C534.371,206.652,533.655,206.146,533.073,205.668Z" transform="translate(-499.014 -177.035)" fill="#1a2e35"/><path d="M533.073,205.668a6.764,6.764,0,0,1-.759-.682c-.2-.212-.343-.485-.294-.485a.7.7,0,0,0-.037-.088l-.085-.2-.208-.533c-.141-.382-.276-.8-.41-1.221-.282-.84-.545-1.714-.8-2.594-.52-1.768-1.016-3.556-1.518-5.351l-.92-3.763c-.133-.609-.34-1.5-.615-2.511v0h0c-.749-2.764-2-6.451-3.637-7.916-2.54-1.943-4.161.454-5.207,2.946-1,2.393,1.473,8.93,1.473,8.93l3.018-.218c.38,1.391.781,2.774,1.175,4.187.514,1.843,1.126,3.651,1.738,5.459.313.907.636,1.815.991,2.73.208.464.4.921.612,1.406.1.238.221.491.349.744l.226.423a4.339,4.339,0,0,0,.319.5A4.976,4.976,0,0,0,530.1,208.8a6.908,6.908,0,0,0,1.494.621,8.984,8.984,0,0,0,2.883.348l.545-2.634C534.371,206.652,533.655,206.146,533.073,205.668Z" transform="translate(-499.014 -177.035)" fill="#ff85e7" opacity="0.5"/><path d="M524.26,184.5a9.8,9.8,0,0,1,1,2.369c.32,1,.681,6.421-1.148,8.023v-3.757C524.183,188.832,524.193,186.8,524.26,184.5Z" transform="translate(-498.928 -176.963)" opacity="0.3"/><path d="M502.127,191.459,499.3,181.8c1.791-2.674,10.657-4.729,10.657-4.729l4.544,1.594,1.3-1.276s2.245.5,4.167,1.128c2.566.836,3.954,1.51,4.565,2.934,0,0,1.071,3.154.427,9.655a105.868,105.868,0,0,0,.523,14.15l3.023,9.569c-10.672,8.312-25.612.55-25.612.55.48-1.467,2.079-5.973,2.3-7.408a41.468,41.468,0,0,0-.713-7.855C504.319,199.5,502.387,192.061,502.127,191.459Z" transform="translate(-499.295 -177.073)" fill="#1a2e35"/><path d="M502.127,191.459,499.3,181.8c1.791-2.674,10.657-4.729,10.657-4.729l4.544,1.594,1.3-1.276s2.245.5,4.167,1.128c2.566.836,3.954,1.51,4.565,2.934,0,0,1.071,3.154.427,9.655a105.868,105.868,0,0,0,.523,14.15l3.023,9.569c-10.672,8.312-25.612.55-25.612.55.48-1.467,2.079-5.973,2.3-7.408a41.468,41.468,0,0,0-.713-7.855C504.319,199.5,502.387,192.061,502.127,191.459Z" transform="translate(-499.295 -177.073)" fill="#ff85e7" opacity="0.5"/></g><path d="M534.037,201.613a8.539,8.539,0,0,1,7.432-7.766l-.819,1.365,1.563-.929-7.165,8.989Z" transform="translate(-498.782 -174.932)" fill="#007cff"/><path d="M534.037,201.613a8.539,8.539,0,0,1,7.432-7.766l-.819,1.365,1.563-.929-7.165,8.989Z" transform="translate(-498.782 -174.932)" fill="#fff" opacity="0.8" style="isolation:isolate"/><path d="M523.089,194.231l2.464-.075,11.793,4L526.6,214.575l-10.578-2.64a1.133,1.133,0,0,1-.79-1.394,1.177,1.177,0,0,1,.107-.258l4.272-7.725a.5.5,0,0,0,0-.491l-.579-1.031a.682.682,0,0,1,0-.682l2.866-5.371A1.465,1.465,0,0,1,523.089,194.231Z" transform="translate(-499.06 -174.928)" fill="#007cff"/><path d="M537.18,198.16l6.715-4.313-11.042,16.406-6.422,4.327Z" transform="translate(-498.894 -174.932)" fill="#007cff"/><path d="M537.18,198.16l6.715-4.313-11.042,16.406-6.422,4.327Z" transform="translate(-498.894 -174.932)" opacity="0.2" style="isolation:isolate"/><g transform="translate(32.327 29.792)"><path d="M535.792,205.632s-2.61-.684-3.183-.236.211.874.211.874-.9-.4-1.166.026c-.322.517.5.958.5.958s-.751-.294-.968.1c-.226.412.662.99.662.99s-.579-.089-.6.258a4.023,4.023,0,0,0,2.657,1.532c.821-.086,2.6-3.071,2.877-3.79a1.46,1.46,0,0,0-.278-1.78l-.713,1.066Z" transform="translate(-531.152 -204.566)" fill="#fdc2bc"/><g transform="translate(1.622 1.648)"><path d="M532.769,206.295l0,0,1.609.615a.055.055,0,0,0,.062-.037c.013-.029.005-.06-.015-.067l-1.609-.616c-.021-.008-.049.009-.062.038A.049.049,0,0,0,532.769,206.295Z" transform="translate(-532.75 -206.19)" opacity="0.2"/></g><g transform="translate(1.002 2.656)"><path d="M532.157,207.288h0l1.483.736a.06.06,0,0,0,.053-.1l-1.484-.736a.052.052,0,0,0-.063.032C532.133,207.247,532.137,207.277,532.157,207.288Z" transform="translate(-532.139 -207.184)" opacity="0.2"/></g><g transform="translate(0.703 3.753)"><path d="M531.863,208.367l1.083.586a.053.053,0,0,0,.064-.03.052.052,0,0,0-.01-.07l-1.083-.584a.051.051,0,0,0-.064.029C531.839,208.326,531.843,208.357,531.863,208.367Z" transform="translate(-531.845 -208.264)" opacity="0.2"/></g></g><path d="M517.343,177.829l-1.969-1.908-1,2.774L510,175.207l-2.219,2.434,5.5,3.829,1.1-2.432,2.972,2.229Z" transform="translate(-499.17 -175.207)" fill="#1a2e35"/><path d="M517.339,177.79a28.126,28.126,0,0,1,0,3.44L514.368,179l-1.1,2.432-5.281-3.643,5.406,4.71.974-2.859,3.314,2.859Z" transform="translate(-499.167 -175.169)" opacity="0.3"/><path d="M520.194,192.543l-15.136,14.584v-2.882s13.625-12.482,13.791-12.5A8.18,8.18,0,0,1,520.194,192.543Z" transform="translate(-499.21 -174.963)" opacity="0.3"/><path d="M505.993,193.766,504.353,187l-.325,7.849Z" transform="translate(-499.225 -175.033)" opacity="0.3"/></g><path d="M508.641,168.2a.91.91,0,1,0,.909-.909A.909.909,0,0,0,508.641,168.2Z" transform="translate(-490.109 -152.974)" fill="#007cff"/><g transform="translate(5.714 28.972)"><path d="M499.344,181.733s-2.047,1.992-2.736,8.79c-.494,4.879-1.744,15.4,2.047,16.752s20.328-14.458,20.328-14.458l-2.685-4.607-12.151,6.722s1.239-11.144-.9-12.163A10.245,10.245,0,0,0,499.344,181.733Z" transform="translate(-496.01 -181.733)" fill="#1a2e35"/><path d="M499.344,181.733s-2.047,1.992-2.736,8.79c-.494,4.879-1.744,15.4,2.047,16.752s20.328-14.458,20.328-14.458l-2.685-4.607-12.151,6.722s1.239-11.144-.9-12.163A10.245,10.245,0,0,0,499.344,181.733Z" transform="translate(-496.01 -181.733)" fill="#ff85e7" opacity="0.5"/><g transform="translate(20.664 0.539)"><path d="M517.035,187.859s1.6-3.195,2.352-3.336a2.642,2.642,0,0,1,1.367.112s5.155-3.037,5.5-2.238c.186.432-.959,1.385-3.416,2.788,0,0,1.415.521.844,1.35a1.052,1.052,0,0,1,.486,1.513s.478.915-.123,1.5a13.913,13.913,0,0,1-5.074,2.436c-1.641.241-2.6-2.947-2.6-2.947Z" transform="translate(-516.373 -182.264)" fill="#fdc2bc"/></g></g></g><g transform="translate(496.323 260.163)"><path d="M534.762,278.152c1.391.655,2.248,2.187,3.689,2.724a3.617,3.617,0,0,0,2.518-.072V260.249H521.3a3.247,3.247,0,0,1,.184-1.315c.537-1.44,2.068-2.3,2.724-3.689.966-2.053-.4-4.61-2.393-5.686a7.941,7.941,0,0,0-7.4,0c-2,1.076-3.36,3.633-2.393,5.686.654,1.391,2.186,2.249,2.723,3.689a3.233,3.233,0,0,1,.185,1.315H495.253v45.716h45.716V287.684a3.623,3.623,0,0,0-2.518-.071c-1.441.537-2.3,2.057-3.689,2.724-1.848.889-4.6-.4-5.686-2.393a7.941,7.941,0,0,1,0-7.4C530.152,278.548,532.709,277.186,534.762,278.152Z" transform="translate(-495.253 -248.628)" fill="#007cff"/><path d="M534.762,278.152c1.391.655,2.248,2.187,3.689,2.724a3.617,3.617,0,0,0,2.518-.072V260.249H521.3a3.247,3.247,0,0,1,.184-1.315c.537-1.44,2.068-2.3,2.724-3.689.966-2.053-.4-4.61-2.393-5.686a7.941,7.941,0,0,0-7.4,0c-2,1.076-3.36,3.633-2.393,5.686.654,1.391,2.186,2.249,2.723,3.689a3.233,3.233,0,0,1,.185,1.315H495.253v45.716h45.716V287.684a3.623,3.623,0,0,0-2.518-.071c-1.441.537-2.3,2.057-3.689,2.724-1.848.889-4.6-.4-5.686-2.393a7.941,7.941,0,0,1,0-7.4C530.152,278.548,532.709,277.186,534.762,278.152Z" transform="translate(-495.253 -248.628)" fill="#4c32ae"/><path d="M536.971,278.152c1.39.655,2.248,2.187,3.689,2.724a3.618,3.618,0,0,0,2.518-.072V260.249H523.505a3.232,3.232,0,0,1,.184-1.315c.537-1.44,2.068-2.3,2.724-3.689.966-2.053-.4-4.61-2.393-5.686a7.941,7.941,0,0,0-7.4,0c-2,1.076-3.36,3.633-2.393,5.686.655,1.391,2.186,2.249,2.723,3.689a3.233,3.233,0,0,1,.185,1.315H497.462v45.716h45.716V287.684a3.623,3.623,0,0,0-2.518-.071c-1.441.537-2.3,2.057-3.689,2.724-1.848.889-4.6-.4-5.686-2.393a7.941,7.941,0,0,1,0-7.4C532.361,278.548,534.918,277.186,536.971,278.152Z" transform="translate(-495.22 -248.628)" fill="#372381"/></g><path d="M535.032,290.082s1.583,2.836,4.3,2.6,3.289-1.419,3.289-1.419l-.038-3.9-6.066,2.323A1.908,1.908,0,0,1,535.032,290.082Z" transform="translate(1.657 2.108)" opacity="0.4"/><g transform="translate(534.586 230.219)"><g transform="translate(58.398 28.289)"><path d="M590.507,266.547l15.626-6,9.02-8.744c.25-.29,2.866-4.8,2.866-4.8l4.427,9.483s-11.008,11.062-15.04,12.35c-3.258,1.041-14.8,3.867-14.8,3.867Z" transform="translate(-590.507 -246.997)" fill="#f87f0e"/><path d="M599.947,270.613s1.883-7.386,6.095-8.922,9.656.873,9.5.976-4.716,4.35-4.872,4.4c-.116.039-5.913,2.082-8.913,3.074Z" transform="translate(-590.368 -246.787)" fill="#f87f0e" opacity="0.4"/></g><g transform="translate(0 41.801)"><path d="M572.567,260.312a3.242,3.242,0,0,0,.184,1.314c.537,1.441,2.069,2.3,2.724,3.69.966,2.052-.4,4.609-2.393,5.685a7.933,7.933,0,0,1-7.4,0c-2-1.076-3.359-3.633-2.393-5.685.654-1.391,2.187-2.249,2.724-3.69a3.239,3.239,0,0,0,.184-1.314H545.821v20.539a3.63,3.63,0,0,1-2.556.086c-1.441-.537-2.3-2.068-3.689-2.723-2.053-.967-4.61.4-5.686,2.393a7.941,7.941,0,0,0,0,7.4c1.076,2,3.633,3.359,5.686,2.393,1.391-.656,2.248-2.187,3.689-2.724a3.63,3.63,0,0,1,2.556.086v18.266l45.557.2V260.515Z" transform="translate(-532.959 -260.312)" fill="#1a2e35"/><path d="M572.567,260.312a3.242,3.242,0,0,0,.184,1.314c.537,1.441,2.069,2.3,2.724,3.69.966,2.052-.4,4.609-2.393,5.685a7.933,7.933,0,0,1-7.4,0c-2-1.076-3.359-3.633-2.393-5.685.654-1.391,2.187-2.249,2.724-3.69a3.239,3.239,0,0,0,.184-1.314H545.821v20.539a3.63,3.63,0,0,1-2.556.086c-1.441-.537-2.3-2.068-3.689-2.723-2.053-.967-4.61.4-5.686,2.393a7.941,7.941,0,0,0,0,7.4c1.076,2,3.633,3.359,5.686,2.393,1.391-.656,2.248-2.187,3.689-2.724a3.63,3.63,0,0,1,2.556.086v18.266l45.557.2V260.515Z" transform="translate(-532.959 -260.312)" opacity="0.4"/><path d="M574.554,260.312a3.226,3.226,0,0,0,.185,1.314c.536,1.441,2.068,2.3,2.723,3.69.966,2.052-.4,4.609-2.393,5.685a7.933,7.933,0,0,1-7.4,0c-2-1.076-3.359-3.633-2.393-5.685.655-1.391,2.187-2.249,2.724-3.69a3.242,3.242,0,0,0,.184-1.314H547.808v20.539a3.63,3.63,0,0,1-2.556.086c-1.44-.537-2.3-2.068-3.689-2.723-2.053-.967-4.61.4-5.686,2.393a7.941,7.941,0,0,0,0,7.4c1.076,2,3.633,3.359,5.686,2.393,1.391-.656,2.249-2.187,3.689-2.724a3.63,3.63,0,0,1,2.556.086v18.266l45.557.2V260.515Z" transform="translate(-532.929 -260.312)" fill="#1a2e51"/></g><g transform="translate(63.34 43.193)"><g transform="translate(0 28.99)"><path d="M605.606,290.685l7.165-.433c-1.147,6.313-2.325,10.409-1.824,13.65l-2.888,1.93-2.675-2.629A72.024,72.024,0,0,1,605.606,290.685Z" transform="translate(-595.231 -290.252)" fill="#fbb473"/><g transform="translate(0 8.52)"><path d="M605.1,298.648l2.6.031c1.259,2.181,2.131,1.667,3.466.128.756-.079.949.791,1.008,1.024L613.533,305a.81.81,0,0,1-.8,1.023l-6.249-.073-8.752-.1c-2.386-.028-2.853-2.439-1.867-2.65,4.432-.924,7.576-2.189,8.957-3.458C605.074,299.514,604.815,299.342,605.1,298.648Z" transform="translate(-595.376 -298.648)" fill="#007cff"/><path d="M603.646,300.073a2.293,2.293,0,0,1,1.6,1.054" transform="translate(-595.254 -298.627)" fill="none" stroke="#1a2e35" stroke-linecap="round" stroke-linejoin="round" stroke-width="0.5"/><path d="M602.476,300.932a2.3,2.3,0,0,1,1.6,1.055" transform="translate(-595.271 -298.614)" fill="none" stroke="#1a2e35" stroke-linecap="round" stroke-linejoin="round" stroke-width="0.5"/><path d="M601.024,301.649a2.3,2.3,0,0,1,1.6,1.055" transform="translate(-595.293 -298.604)" fill="none" stroke="#1a2e35" stroke-linecap="round" stroke-linejoin="round" stroke-width="0.5"/><path d="M612.964,305.907a.8.8,0,0,1-.235.028l-6.249-.073-8.752-.1a2.273,2.273,0,0,1-2.257-1.413c.363.007,17.755.346,17.985.271l.092.386A.806.806,0,0,1,612.964,305.907Z" transform="translate(-595.375 -298.564)" fill="#fff" opacity="0.7"/></g></g><path d="M633.1,272.1S613.535,262,609.724,261.709s-7.453,1.776-8.181,9.666.729,28.181.729,28.181l10.557.182,1.308-23.508s16.349,11.943,16.834,11.821,6.868-.41,6.868-.41Z" transform="translate(-595.288 -261.684)" fill="#1a2e35"/><path d="M633.1,272.1S613.535,262,609.724,261.709s-7.453,1.776-8.181,9.666.729,28.181.729,28.181l10.557.182,1.308-23.508s16.349,11.943,16.834,11.821,6.868-.41,6.868-.41Z" transform="translate(-595.288 -261.684)" fill="#fff" opacity="0.3"/><path d="M613.486,286.852s-8.625,3.02-8.716,10.133,7.513,5.759,7.513,5.759Z" transform="translate(-595.238 -261.312)" opacity="0.4"/></g><g transform="translate(74.378 57.465)"><g transform="translate(32.327 19.208)"><path d="M640.051,305.224l-1.94-7.054c6.782-.734,11.313.936,14.466-.552l2.839,2.362-1.875,3.519A46.289,46.289,0,0,1,640.051,305.224Z" transform="translate(-638.111 -294.633)" fill="#fbb473"/><g transform="translate(9.307)"><path d="M649.018,305.318l-.754-2.665c1.845-1.941,1.058-2.675-.913-3.573-.308-.747.52-1.206.74-1.335l4.858-2.939a.86.86,0,0,1,1.185.279.847.847,0,0,1,.1.231c.666,2.352.981,3.465,1.809,6.394l2.533,8.954c.691,2.441-1.626,3.643-2.138,2.7-2.278-4.239-4.515-7.064-6.226-8.09C649.908,305.082,649.812,305.4,649.018,305.318Z" transform="translate(-647.283 -294.677)" fill="#007cff"/><path d="M650.841,306.1a2.438,2.438,0,0,1,.595-1.944" transform="translate(-647.231 -294.537)" fill="none" stroke="#1a2e35" stroke-linecap="round" stroke-linejoin="round" stroke-width="0.5"/><path d="M652.07,307.033a2.44,2.44,0,0,1,.594-1.945" transform="translate(-647.213 -294.523)" fill="none" stroke="#1a2e35" stroke-linecap="round" stroke-linejoin="round" stroke-width="0.5"/><path d="M653.238,308.3a2.442,2.442,0,0,1,.595-1.945" transform="translate(-647.195 -294.504)" fill="none" stroke="#1a2e35" stroke-linecap="round" stroke-linejoin="round" stroke-width="0.5"/><path d="M654.055,295.085a.845.845,0,0,1,.1.231c.666,2.352.981,3.465,1.809,6.394l2.533,8.954a2.416,2.416,0,0,1-.759,2.726c-.1-.372-5-18.205-5.144-18.417l.364-.21A.858.858,0,0,1,654.055,295.085Z" transform="translate(-647.204 -294.677)" fill="#fff" opacity="0.7"/></g></g><path d="M654.479,275.748l.849,4.265s2.178,8.461-.875,12.711a12.246,12.246,0,0,1-7.22,4.784l.885,8.16-.885.551s-5.629,0-17.153-.526c-10.946-.5-20.356-1.023-22.3-4.421s-2.391-5.05.785-9.1c2.87-3.664,24.724-9.062,25.484-9.28l-.3-1.862-.355-1.319Z" transform="translate(-606.254 -275.748)" fill="#1a2e35"/><path d="M654.479,275.748l.849,4.265s2.178,8.461-.875,12.711a12.246,12.246,0,0,1-7.22,4.784l.885,8.16-.885.551s-5.629,0-17.153-.526c-10.946-.5-20.356-1.023-22.3-4.421s-2.391-5.05.785-9.1c2.87-3.664,24.724-9.062,25.484-9.28l-.3-1.862-.355-1.319Z" transform="translate(-606.254 -275.748)" fill="#fff" opacity="0.3"/><path d="M646.992,297.2c-.672.176-24.411-.59-24.411-.59s7.017,1.2,12.206,1.641S646.992,297.2,646.992,297.2Z" transform="translate(-606.013 -275.44)" opacity="0.4"/><path d="M633.648,282.818l13.671-2.384S637.465,280.274,633.648,282.818Z" transform="translate(-605.85 -275.679)" opacity="0.4"/></g><g transform="translate(53.801 51.587)"><path d="M599.5,273.294a5.19,5.19,0,0,0-2.838-2.1c-1.7-.34-2.962-1.063-4.241-1.228s-.119,1.131.638,1.7,1.609,1.215,1.093,1.714-6.511,2.02-7.148,2.8.409.832.409.832-1.445.408-1.44,1.025c0,.16.265.531.953.448,1.549-.187,4.776-.745,4.776-.745-.186.028-4.122,1-4.692,1.225-.745.291-.948.809-.765,1.235.26.608,5.181-.433,5.419-.332,0,0-2.853.5-3.126,1.312s1.54.588,3.1.09c1.432-.456,4.36-.975,5.77-1.58,1.739-.746,2.739-1.637,2.776-3.41A6.027,6.027,0,0,0,599.5,273.294Z" transform="translate(-585.977 -269.956)" fill="#fbb473"/><path d="M597.459,273.232l4.377-1.751,1.512,4.735-5.133,1.83Z" transform="translate(-585.807 -269.933)" fill="#fbb473"/></g><g transform="translate(80.428 0)"><g transform="translate(2.081 1.393)"><g transform="translate(0.535)"><g transform="translate(7.294 10.618)"><path d="M628.849,241.082s-1.188-2.685-.937-8c0-.005-.291-.059-.292-.064.032-.743.09-1.436.156-2.04a.131.131,0,0,0,0-.022l-5.793,5.828a23.273,23.273,0,0,1,.674,6.137s-.3,2.554,2.852,1.91C627.81,244.359,628.849,241.082,628.849,241.082Z" transform="translate(-621.982 -230.956)" fill="#fbb473"/><path d="M622.394,238.955l3.7-1.818c-.064,1.3-.8,3-3.491,3.771A12.47,12.47,0,0,0,622.394,238.955Z" transform="translate(-621.976 -230.865)" opacity="0.2"/></g><path d="M627.144,227.767c.572,4.42.985,6.9-.8,9.549-2.682,3.982-8.332,3.046-10.219-1.125-1.7-3.756-2.35-10.353,1.607-12.874A6.149,6.149,0,0,1,627.144,227.767Z" transform="translate(-614.795 -220.465)" fill="#fbb473"/><path d="M625.393,221.577c-2.047-2.395-5.856-.3-7.305,1.257-.216.232,3.7,1.339,3.471,1.3l1.238,1.026c.16-.069.49,1.45.769,2.766a6.791,6.791,0,0,0,1.676,3.225,17.38,17.38,0,0,0,2.715,2.4c1.382-1.037.96-3.709,1.137-5.382C629.356,225.678,629.3,221.011,625.393,221.577Z" transform="translate(-614.746 -220.492)" fill="#1a2e35"/><path d="M629.409,230.983a4.187,4.187,0,0,1-1.59,2.8c-1.179.9-1.939-.433-2.081-1.834-.127-1.259-.056-2.838,1.353-3.186A1.923,1.923,0,0,1,629.409,230.983Z" transform="translate(-614.634 -220.371)" fill="#fbb473"/><path d="M621.058,230.128c.086.446-.082.852-.375.906s-.6-.266-.686-.713.081-.852.374-.906S620.971,229.681,621.058,230.128Z" transform="translate(-614.718 -220.361)" fill="#1a2e35"/><path d="M616.754,231.045c.086.448-.081.853-.374.906s-.6-.265-.687-.712.082-.852.374-.906S616.667,230.6,616.754,231.045Z" transform="translate(-614.782 -220.347)" fill="#1a2e35"/><path d="M618.115,230.52s-.987,2.494-1.267,3.486a2.149,2.149,0,0,0,1.753-.023Z" transform="translate(-614.764 -220.344)" fill="#ed883e"/><path d="M621.749,227.843a.216.216,0,0,1-.216.011,1.715,1.715,0,0,0-1.544-.053.216.216,0,0,1-.292-.079.212.212,0,0,1,.079-.289,2.133,2.133,0,0,1,1.952.045.211.211,0,0,1,.021.365Z" transform="translate(-614.723 -220.393)" fill="#1a2e35"/><path d="M620.289,235.076a2.658,2.658,0,0,0,1.677-1.252" transform="translate(-614.713 -220.296)" fill="none" stroke="#1a2e35" stroke-linecap="round" stroke-linejoin="round" stroke-width="0.75"/><path d="M628.168,229.952a.81.81,0,0,0-.895-.12,1.4,1.4,0,0,0-.64.69,2.226,2.226,0,0,0-.208,1.121" transform="translate(-614.623 -220.356)" fill="none" stroke="#000" stroke-linecap="round" stroke-linejoin="round" stroke-width="0.5" opacity="0.2"/></g><path d="M614.477,229.562a.208.208,0,0,1-.117-.039.213.213,0,0,1-.056-.3,2.1,2.1,0,0,1,1.69-.945.217.217,0,0,1,.208.22.21.21,0,0,1-.216.206,1.64,1.64,0,0,0-1.33.762A.209.209,0,0,1,614.477,229.562Z" transform="translate(-614.267 -220.377)" fill="#1a2e35"/></g><path d="M625.48,221.6a7.541,7.541,0,0,0-7.427-2.253c-3.786.892-5.76,3.661-5.834,6.311a5.357,5.357,0,0,0,.52,2.582.548.548,0,0,0,1.018-.1,3.635,3.635,0,0,1,.148-.4c.015.03.032.06.049.088a.549.549,0,0,0,1.021-.246,2.658,2.658,0,0,1,.058-.507l.007.012a.545.545,0,0,0,.986-.185,3.949,3.949,0,0,1,5.222-2.685l1.636.971A6.818,6.818,0,0,0,625.48,221.6Z" transform="translate(-612.216 -219.12)" fill="#1a2e35"/></g><path d="M632.362,279.776l-.258,1.731-7.633,2.3,1.759,1.128,7.555-2.1.311-3.363Z" transform="translate(-531.607 -218.228)" opacity="0.4"/><g transform="translate(66.817 20.392)"><g transform="translate(19.094 0.888)"><path d="M638.166,241.491c-3.428-2.2-9.468-1.153-9.468-1.153l-11.079,6.76,7.576,17.807s3.161,7.574,4.867,12.618c.422,1.249,1.231,2.993,2.539,2.822l21.043-3.8a1.775,1.775,0,0,0,1.4-2.219C653.012,266.984,641.236,243.459,638.166,241.491Z" transform="translate(-617.619 -240.09)" fill="#f87f0e"/><path d="M640.032,251.231a51.2,51.2,0,0,1-9.293,11.883,23.045,23.045,0,0,0-4.051,5.458L625.2,264.78Z" transform="translate(-617.507 -239.926)" opacity="0.4"/></g><g transform="translate(0 3.808)"><path d="M629.99,246.461l-14.345,17.888L598.8,272l1.678,6.972s13.656-3.685,19.145-7.105,14.537-12.985,14.537-12.985,7.892-6.333,7.516-11.457S633.79,241.1,629.99,246.461Z" transform="translate(-598.803 -242.968)" fill="#f87f0e"/></g><path d="M621.862,244.485s.533-2.733.792-2.623,2.822,1.65,2.822,1.65l2.868-4.3,1.722,1.139-3.962,8.214Z" transform="translate(-598.462 -239.215)" fill="#f87f0e"/><path d="M620.669,255.856l-3.308-4.54,2.673,7.11,1.3-1.384,9.135-11.547Z" transform="translate(-598.529 -239.122)" opacity="0.4"/><path d="M621.862,244.47a20.755,20.755,0,0,1,2.391,1.679,15.121,15.121,0,0,1,1-1.916l2.518.958,2.067-5-2.035,5.764-2.386-1.153-1.164,2.112Z" transform="translate(-598.462 -239.201)" opacity="0.4"/></g></g></g></svg>